<svg width="24" height="24" viewBox="0 0 24 24" fill="none" xmlns="http://www.w3.org/2000/svg">
<g clip-path="url(#clip0_2840_9342)">
<path fill-rule="evenodd" clip-rule="evenodd" d="M12 3.75C11.4033 3.75 10.831 3.98705 10.409 4.40901C9.98709 4.83097 9.75004 5.40326 9.75004 6V7.25H14.25V6C14.25 5.40326 14.013 4.83097 13.591 4.40901C13.1691 3.98705 12.5968 3.75 12 3.75ZM15.75 7.25V6C15.75 5.00544 15.3549 4.05161 14.6517 3.34835C13.9484 2.64509 12.9946 2.25 12 2.25C11.0055 2.25 10.0516 2.64509 9.34839 3.34835C8.64512 4.05161 8.25004 5.00544 8.25004 6V7.25H6.33113M8.25004 8.75H6.33104C6.15081 8.74998 5.97261 8.78893 5.80885 8.86419C5.64508 8.93944 5.49953 9.04922 5.38216 9.186C5.2648 9.32278 5.1784 9.48332 5.12889 9.65662C5.07939 9.82987 5.06793 10.0118 5.0953 10.1899C5.09531 10.1899 5.0953 10.1898 5.0953 10.1899L6.3503 18.3419C6.432 18.8731 6.70116 19.3576 7.10904 19.7076C7.51692 20.0576 8.0366 20.25 8.57404 20.25C8.57405 20.25 8.57403 20.25 8.57404 20.25H15.426C15.9636 20.2502 16.4837 20.0578 16.8917 19.7078C17.2998 19.3579 17.569 18.8733 17.6508 18.342L18.9057 10.19C18.9331 10.0119 18.9217 9.82991 18.8722 9.65662C18.8227 9.48332 18.7363 9.32278 18.6189 9.186C18.5015 9.04922 18.356 8.93944 18.1922 8.86419C18.0285 8.78893 17.8504 8.74998 17.6701 8.75H15.75V11C15.75 11.4142 15.4143 11.75 15 11.75C14.5858 11.75 14.25 11.4142 14.25 11V8.75H9.75004V11C9.75004 11.4142 9.41425 11.75 9.00004 11.75C8.58582 11.75 8.25004 11.4142 8.25004 11V8.75ZM15.75 7.25H17.6699C17.67 7.25 17.6699 7.25 17.6699 7.25C18.0664 7.24997 18.4583 7.33566 18.8186 7.50121C19.1788 7.66678 19.4991 7.90829 19.7573 8.20921C20.0155 8.51012 20.2056 8.86331 20.3145 9.24455C20.4234 9.62581 20.4486 10.0261 20.3883 10.418L19.1333 18.57C18.9971 19.4556 18.5484 20.2631 17.8683 20.8464C17.1883 21.4297 16.3219 21.7502 15.426 21.75C15.426 21.75 15.4261 21.75 15.426 21.75H8.57404C7.67829 21.75 6.8121 21.4293 6.13229 20.846C5.4525 20.2627 5.00395 19.4554 4.86777 18.5701C4.86776 18.5701 4.86778 18.5702 4.86777 18.5701L3.61277 10.4181C3.5525 10.0262 3.57767 9.62581 3.6866 9.24455C3.79552 8.8633 3.9856 8.51012 4.2438 8.20921C4.502 7.90829 4.82223 7.66678 5.18251 7.50121C5.54277 7.33566 5.93465 7.24997 6.33113 7.25" fill="#43423D"/>
</g>
<defs>
<clipPath id="clip0_2840_9342">
<rect width="24" height="24" fill="white"/>
</clipPath>
</defs>
</svg>
