<svg width="17" height="20" viewBox="0 0 17 20" fill="none" xmlns="http://www.w3.org/2000/svg">
<path fill-rule="evenodd" clip-rule="evenodd" d="M8.41923 1.5C7.82249 1.5 7.25019 1.73705 6.82823 2.15901C6.40628 2.58097 6.16923 3.15326 6.16923 3.75V5H10.6692V3.75C10.6692 3.15326 10.4322 2.58097 10.0102 2.15901C9.58826 1.73705 9.01596 1.5 8.41923 1.5ZM12.1692 5V3.75C12.1692 2.75544 11.7741 1.80161 11.0709 1.09835C10.3676 0.395088 9.41379 0 8.41923 0C7.42466 0 6.47084 0.395088 5.76757 1.09835C5.06431 1.80161 4.66923 2.75544 4.66923 3.75V5H2.75032M4.66923 6.5H2.75023C2.56999 6.49998 2.3918 6.53893 2.22804 6.61419C2.06427 6.68944 1.91872 6.79922 1.80135 6.936C1.68399 7.07278 1.59759 7.23332 1.54808 7.40662C1.49858 7.57987 1.48712 7.76178 1.51449 7.93988C1.5145 7.93992 1.51449 7.93984 1.51449 7.93988L2.76949 16.0919C2.85119 16.6231 3.12035 17.1076 3.52823 17.4576C3.93611 17.8076 4.45579 18 4.99323 18C4.99324 18 4.99321 18 4.99323 18H11.8452C12.3828 18.0002 12.9029 17.8078 13.3109 17.4578C13.719 17.1079 13.9882 16.6233 14.0699 16.092L15.3249 7.94C15.3523 7.76186 15.3409 7.57991 15.2914 7.40662C15.2419 7.23332 15.1555 7.07278 15.0381 6.936C14.9207 6.79922 14.7752 6.68944 14.6114 6.61419C14.4476 6.53893 14.2695 6.49998 14.0893 6.5H12.1692V8.75C12.1692 9.16421 11.8334 9.5 11.4192 9.5C11.005 9.5 10.6692 9.16421 10.6692 8.75V6.5H6.16923V8.75C6.16923 9.16421 5.83344 9.5 5.41923 9.5C5.00501 9.5 4.66923 9.16421 4.66923 8.75V6.5ZM12.1692 5H14.0891C14.0892 5 14.0891 5 14.0891 5C14.4856 4.99997 14.8775 5.08566 15.2378 5.25121C15.598 5.41678 15.9183 5.65829 16.1765 5.95921C16.4347 6.26012 16.6247 6.61331 16.7337 6.99455C16.8426 7.37581 16.8678 7.7761 16.8075 8.168L15.5525 16.32C15.4163 17.2056 14.9676 18.0131 14.2875 18.5964C13.6075 19.1797 12.7411 19.5002 11.8452 19.5C11.8452 19.5 11.8453 19.5 11.8452 19.5H4.99323C4.09748 19.5 3.23129 19.1793 2.55148 18.596C1.87169 18.0127 1.42313 17.2054 1.28696 16.3201C1.28695 16.3201 1.28697 16.3202 1.28696 16.3201L0.031959 8.16812C-0.0283098 7.77622 -0.0031374 7.37581 0.105786 6.99455C0.214708 6.6133 0.404787 6.26012 0.662991 5.95921C0.921194 5.65829 1.24141 5.41678 1.6017 5.25121C1.96196 5.08566 2.35384 4.99997 2.75032 5" fill="#43423D"/>
</svg>
