<svg width="61" height="60" viewBox="0 0 61 60" fill="none" xmlns="http://www.w3.org/2000/svg">
<g id="Graphic Icons" clip-path="url(#clip0_1069_6681)">
<path id="Vector" d="M27.694 53.8783C26.6113 48.2434 23.1571 43.5235 18.2009 40.9386C15.3415 39.4518 12.9701 37.4464 11.346 35.1284C9.7295 32.8256 8.8755 30.2484 8.8755 27.6864C8.8755 25.1244 9.6685 22.6844 11.224 20.3511C11.407 20.0766 11.468 19.7411 11.3917 19.4361C11.2926 19.0625 11.102 18.8414 10.797 18.7575C6.03138 16.4853 2.7755 9.50838 2.09687 0.099125C2.09687 0.061 2.09687 0.0305 2.09687 0H0.0305C0.007625 0.083875 0 0.16775 0 0.25925C0.343125 5.05538 1.30387 9.2415 2.867 12.6804C4.39962 16.0583 6.42025 18.5516 8.88313 20.0919C7.51063 22.3717 6.78625 24.9643 6.78625 27.6025C6.78625 33.6491 10.6826 39.3221 17.202 42.7763C21.5559 45.0256 24.6211 49.1965 25.6124 54.2138L26.5655 59.2005H28.731C28.731 59.1243 28.7157 59.048 28.6929 58.9718L27.7016 53.8706L27.694 53.8783Z" fill="#B7500B"/>
<path id="Vector_2" d="M60.9927 0H58.8425C58.8425 0.0305 58.8272 0.061 58.8272 0.0915C58.1486 9.29488 55.1367 16.0201 50.5694 18.5288H50.5541C50.5541 18.5364 50.5541 18.544 50.5541 18.544C50.4016 18.6508 50.0737 18.9024 50.0661 19.215C49.9746 19.5886 50.1042 19.8555 50.2339 20.0461C51.8656 22.2726 52.7272 24.888 52.7272 27.6101C52.7272 30.3323 51.8732 32.7494 50.2567 35.0521C48.6326 37.3701 46.2612 39.3755 43.4019 40.8624C40.9237 42.1586 38.8269 43.9505 37.1875 46.1846C35.5405 48.4264 34.4349 50.9884 33.9011 53.802L32.9099 58.9108C32.8946 59.0099 32.8946 59.109 32.9099 59.2081H35.0296L35.998 54.2214C36.9892 49.2041 40.0545 45.0332 44.4084 42.7839C50.9735 39.345 54.9004 33.6796 54.9004 27.6101C54.9004 21.5406 54.1455 22.2116 52.651 19.7869C54.9537 18.2161 56.8447 15.7304 58.2859 12.3906C59.7422 9.00513 60.6572 4.92575 61.0004 0.266875C61.0156 0.175375 61.0156 0.0915 61.0004 0L60.9927 0Z" fill="#B7500B"/>
<path id="Vector_3" d="M13.5948 15.5016L15.2342 15.8905H15.4858C15.7298 15.8905 15.8976 15.8066 16.0501 15.738L16.073 15.7227C20.1066 12.9777 25.3678 11.468 30.8807 11.468C36.3936 11.468 41.571 12.9473 45.4597 15.6465C45.7266 15.8219 46.0545 15.8905 46.2985 15.8142L47.4346 15.5855C49.5315 15.1204 51.2776 13.2751 52.6196 10.0879C53.71 7.503 54.4877 4.04125 54.8308 0.343125C54.8461 0.22875 54.8385 0.114375 54.8156 0H52.7035C52.6882 0.053375 52.673 0.114375 52.6653 0.16775C51.9791 7.4115 49.6306 12.8939 46.9542 13.4963L46.2298 13.5649C41.937 10.8123 36.4622 9.3025 30.8121 9.3025C25.162 9.3025 19.5728 10.8427 15.2495 13.6411L14.1438 13.42C11.4293 12.8176 9.02745 7.21325 8.42508 0.083875C8.42508 0.053375 8.41745 0.022875 8.40983 0H6.28245C6.2672 0.083875 6.25195 0.16775 6.25195 0.25925C6.5417 3.88875 7.31183 7.33525 8.42508 9.95825C9.75183 13.0769 11.5361 14.9984 13.5948 15.5016Z" fill="#B7500B"/>
<path id="Vector_4" d="M42.1199 38.4377C47.0151 35.9139 49.9431 31.865 49.9431 27.6102C49.9431 23.3555 49.4246 24.0799 48.4105 22.4252C47.4345 20.8316 46.0391 19.3905 44.2625 18.1552C40.6101 15.5932 35.8293 14.1826 30.7968 14.1826C25.7643 14.1826 20.9834 15.5932 17.331 18.1552C15.562 19.3981 14.1666 20.8316 13.183 22.4252C12.1689 24.0799 11.6504 25.826 11.6504 27.6102C11.6504 31.8192 14.5784 35.8376 19.4736 38.3615C24.3765 40.9235 28.0365 45.3155 29.7903 50.7292C29.958 51.1562 30.3774 51.4689 30.7815 51.4765C30.8425 51.4841 30.9035 51.4917 30.9645 51.4917C31.1551 51.4917 31.3229 51.4384 31.4678 51.3392C31.6431 51.2172 31.7575 51.0266 31.7956 50.7902C33.5494 45.3841 37.2094 40.9997 42.1123 38.4301L42.1199 38.4377ZM47.77 27.6865C47.77 28.5786 47.587 29.4479 47.1905 30.4086H14.403C14.0294 29.4936 13.8235 28.5252 13.8235 27.6865C13.8235 21.5865 21.5934 16.432 30.7968 16.432C40.0001 16.432 47.77 21.5865 47.77 27.6865ZM20.8156 36.6916C20.7089 36.6382 20.6098 36.5772 20.503 36.5239H20.4801C18.4671 35.4335 16.7363 34.0457 15.6001 32.5817H46.001C44.8801 34.0991 43.1874 35.4792 41.1134 36.5925C36.5308 38.9944 32.9699 42.784 30.7968 47.5649C28.7228 42.9136 25.322 39.1926 20.9529 36.7679L20.808 36.6916H20.8156Z" fill="#B7500B"/>
</g>
<defs>
<clipPath id="clip0_1069_6681">
<rect width="61" height="59.2081" fill="white"/>
</clipPath>
</defs>
</svg>
