<svg width="49" height="51" viewBox="0 0 49 51" fill="none" xmlns="http://www.w3.org/2000/svg">
<g id="Graphic Icons">
<g id="Vector">
<path d="M36.6751 36.0228C36.6002 35.1917 36.4282 34.3996 36.1627 33.6626C35.5322 31.9169 34.0582 29.6979 30.6225 29.0438C30.4251 29.0036 30.224 29.0438 30.0569 29.157C29.8892 29.2709 29.7766 29.4442 29.7407 29.644C29.6671 30.0543 29.9369 30.4473 30.3403 30.5197C32.5285 30.9324 34.0093 32.1509 34.7413 34.1416C35.1485 35.2474 35.2116 36.3216 35.216 36.8285C34.073 37.8179 33.5749 39.4033 33.7364 41.545C33.7679 41.9355 34.0965 42.2412 34.4839 42.2412H34.5414C34.9548 42.209 35.2605 41.8563 35.2376 41.4312C35.107 39.7517 35.4499 38.5698 36.2574 37.9188C37.5891 36.8377 39.8799 37.3662 40.3255 37.4832C40.3304 37.4844 40.3348 37.4856 40.3385 37.4863C40.5334 37.5413 40.7376 37.5178 40.9133 37.4207C41.0872 37.3241 41.2135 37.1657 41.2686 36.9733C41.3707 36.615 41.1906 36.2412 40.8608 36.0877L40.8558 36.0772L40.7525 36.0469C40.659 36.0197 38.5612 35.4163 36.6751 36.0228Z" fill="#B7500B"/>
<path d="M40.8273 23.6007L40.7586 23.5444H40.7574C39.9393 22.891 38.9709 22.4009 37.8125 22.0537C39.9963 20.7325 41.1213 18.3315 41.2265 16.9306C41.258 16.5166 40.9486 16.1533 40.5365 16.1212C40.3341 16.1057 40.1392 16.1694 39.9864 16.3012C39.8348 16.4324 39.7426 16.6156 39.7271 16.8167C39.6374 17.951 38.5742 20.071 36.5786 21.0197C34.5693 21.9695 32.0971 21.4819 29.4263 19.6082C29.081 19.3718 28.6219 19.451 28.3775 19.7926C28.1411 20.1379 28.2203 20.597 28.56 20.8402C30.6089 22.2715 32.5792 22.9968 34.4177 22.9968H34.4474C36.8143 23.1663 38.5637 23.7214 39.7945 24.6942C41.0124 25.657 41.719 27.032 41.9548 28.8971C42.0025 29.2715 42.323 29.5537 42.7011 29.5537C42.7277 29.5537 42.7661 29.5537 42.8125 29.5438C43.2141 29.4881 43.5012 29.115 43.4536 28.7016C43.1745 26.5172 42.2908 24.8006 40.8273 23.5995V23.6007Z" fill="#B7500B"/>
<path d="M12.4202 21.0178C10.414 20.0735 9.3558 17.9528 9.27164 16.8161C9.24008 16.4027 8.88551 16.0958 8.46224 16.1199C8.25989 16.1354 8.07734 16.2282 7.94739 16.3823C7.81929 16.5345 7.75679 16.7288 7.77226 16.9299C7.88365 18.3346 9.01236 20.7369 11.1856 22.0525C9.99442 22.4089 9.0037 22.9176 8.1714 23.5989C6.70667 24.8006 5.82424 26.5166 5.54702 28.7016C5.49813 29.1162 5.78526 29.4856 6.19986 29.5432L6.22957 29.5457C6.24565 29.5481 6.26979 29.5518 6.30011 29.5518C6.6782 29.5518 6.99875 29.2697 7.0464 28.8947C7.27845 27.0289 7.98452 25.6539 9.20357 24.6917C10.435 23.7202 12.1862 23.1651 14.5575 22.9962H14.5804C16.4263 22.9962 18.3973 22.2703 20.4356 20.8408C20.6021 20.727 20.7135 20.5549 20.7481 20.3575C20.7834 20.1577 20.737 19.9553 20.62 19.7919C20.5062 19.6255 20.3341 19.5141 20.1367 19.4794C19.9369 19.4442 19.7345 19.4906 19.5687 19.6088C16.9022 21.4801 14.4294 21.9671 12.4183 21.0184L12.4202 21.0178Z" fill="#B7500B"/>
<path d="M18.3793 29.0389C14.9406 29.6942 13.4672 31.9126 12.836 33.6589C12.5705 34.3953 12.3991 35.1874 12.3242 36.0184C10.4789 35.4219 8.48018 35.9745 8.24813 36.0426C8.0563 36.0976 7.89726 36.2233 7.80135 36.3978C7.70358 36.5747 7.68068 36.7802 7.73699 36.9764C7.79206 37.1682 7.91768 37.3272 8.09157 37.4231C8.26793 37.5209 8.47214 37.5438 8.66768 37.4881C8.67202 37.4869 8.67635 37.4863 8.6813 37.4844C9.12746 37.3681 11.4202 36.8402 12.7481 37.9213C13.5551 38.5716 13.8985 39.7536 13.7673 41.4386C13.745 41.8575 14.0507 42.2109 14.4641 42.2424H14.5216C14.909 42.2431 15.237 41.9374 15.2692 41.5457C15.4301 39.4052 14.9325 37.8198 13.7896 36.8309C13.7939 36.3328 13.8558 35.2765 14.2543 34.175C14.9808 32.1688 16.4647 30.9398 18.6634 30.5228C18.9233 30.4764 19.1281 30.2975 19.2215 30.0673L19.3608 30.1372L19.2642 29.6434C19.185 29.2375 18.7896 28.9671 18.3799 29.0395L18.3793 29.0389Z" fill="#B7500B"/>
<path d="M48.7846 27.4126C48.7846 25.1335 47.7673 23.0395 45.9864 21.6366C46.3849 20.6979 46.5953 19.6756 46.5953 18.6682C46.5953 17.1224 46.1349 15.6372 45.2636 14.3742C44.427 13.1614 43.2661 12.2307 41.8985 11.6738C41.8669 8.79937 40.0773 6.22697 37.3905 5.20036C36.94 3.79937 36.0817 2.59516 34.9022 1.71274C33.6869 0.803701 32.2469 0.322884 30.7382 0.322884C28.0823 0.322884 25.69 1.82969 24.5012 4.20531C23.3168 1.82907 20.9245 0.322266 18.2624 0.322266C16.7512 0.322266 15.3106 0.802464 14.0959 1.7115C12.9183 2.59269 12.0606 3.79504 11.6101 5.19541C8.92882 6.22202 7.13984 8.7938 7.10209 11.6688C5.73452 12.2257 4.57362 13.1564 3.73699 14.3693C2.8657 15.6329 2.40531 17.1174 2.40531 18.6632C2.40531 19.6707 2.61508 20.6929 3.01422 21.6323C1.23266 23.0364 0.215332 25.1304 0.215332 27.4083C0.215332 29.8018 1.36942 32.0327 3.3131 33.4169C3.01917 34.1484 2.86447 34.9411 2.86447 35.7214C2.86447 38.7647 5.086 41.3421 8.06558 41.8018C8.14355 43.2276 8.72461 44.5809 9.71471 45.6329C10.8799 46.8718 12.4579 47.5543 14.1578 47.5543C14.4455 47.5543 14.7265 47.5351 14.9957 47.4974C15.9616 49.2443 17.7809 50.3223 19.7853 50.3223C21.7896 50.3223 23.5198 49.2752 24.4988 47.6193C25.4715 49.2752 27.2735 50.3223 29.2135 50.3223C31.1535 50.3223 33.0433 49.2449 34.0043 47.4986C34.2859 47.537 34.5662 47.5568 34.841 47.5568C36.5408 47.5568 38.1194 46.8742 39.2846 45.6348C40.271 44.5828 40.8515 43.2294 40.9332 41.8043C42.3434 41.5871 43.633 40.8885 44.5823 39.8223C45.5835 38.6979 46.1355 37.2418 46.1355 35.7233C46.1355 34.9411 45.9808 34.149 45.6875 33.4194C47.6374 32.0364 48.7914 29.8062 48.7846 27.4126ZM44.4164 32.4702H44.4053L44.3478 32.5036C43.4616 33.0147 42.4505 33.2845 41.4245 33.2845C41.0087 33.2845 40.6702 33.623 40.6702 34.0388C40.6702 34.4547 41.0087 34.7932 41.4245 34.7932C42.4257 34.7932 43.4362 34.5822 44.3632 34.1812C44.5396 34.6775 44.6318 35.2096 44.6318 35.7338C44.6318 38.2437 42.6658 40.2833 40.1535 40.3773C39.9554 40.3866 39.7698 40.4726 39.6256 40.623C39.4901 40.7715 39.4202 40.9658 39.4301 41.175C39.5093 42.4516 39.0687 43.6713 38.1881 44.6088C37.3131 45.5407 36.125 46.0543 34.8428 46.0543C34.4907 46.0543 34.125 46.0104 33.7599 45.9244C33.3966 45.834 33.0297 46.0197 32.8886 46.3668C32.2741 47.8569 30.8354 48.8198 29.224 48.8198C27.0371 48.8198 25.258 47.0407 25.258 44.8538V14.4015C25.8509 12.2301 26.7135 10.8247 29.3311 10.0747C29.7302 9.95964 29.9616 9.54071 29.8465 9.14095C29.7314 8.74182 29.3125 8.51038 28.9134 8.62548C27.2896 9.08897 26.107 9.81793 25.2518 10.8916V7.38538C25.2518 4.31917 27.7147 1.82474 30.7413 1.82474C32.7791 1.82474 34.633 2.96707 35.5798 4.76905C34.6108 4.67004 33.6299 4.77462 32.698 5.0766C32.508 5.13972 32.3527 5.27338 32.2617 5.4516C32.1695 5.63229 32.1535 5.8365 32.216 6.02462C32.315 6.33464 32.6021 6.54256 32.9307 6.54256C33.0056 6.54256 33.0897 6.52771 33.1615 6.50234C34.2506 6.149 35.4486 6.14529 36.5359 6.49182L36.5724 6.50358H36.5786C37.659 6.85444 38.5897 7.51472 39.2716 8.41633C39.8923 9.23687 40.2673 10.2022 40.3651 11.2251C39.9257 11.1471 39.4808 11.1075 39.0396 11.1075C37.4616 11.1075 35.9523 11.5877 34.6776 12.4955C34.5142 12.61 34.4047 12.782 34.3707 12.9794C34.336 13.1793 34.3806 13.3798 34.4957 13.5426C34.6361 13.7474 34.8608 13.865 35.112 13.865C35.2605 13.865 35.414 13.8161 35.547 13.7251C36.5736 12.9986 37.7815 12.6143 39.0396 12.6143C39.6801 12.6143 40.3057 12.7121 40.8997 12.9052C43.4059 13.7134 45.0897 16.0277 45.0897 18.6645C45.0897 19.67 44.8428 20.6589 44.3756 21.524C44.1918 21.8693 44.3001 22.2919 44.6281 22.5067C46.2834 23.5939 47.2747 25.4176 47.284 27.3891V27.4163C47.284 29.4751 46.1869 31.4052 44.4171 32.4695L44.4164 32.4702ZM19.2766 11.7393C19.1621 12.1391 19.3936 12.558 19.7927 12.6725C22.594 13.4714 23.2252 15.0079 23.745 16.9343V41.0871C22.7178 40.0079 21.2803 39.3804 19.7791 39.3804C19.3632 39.3804 19.0247 39.7189 19.0247 40.1348C19.0247 40.5506 19.3632 40.8891 19.7791 40.8891C21.9554 40.8891 23.7283 42.6515 23.745 44.8247V44.8551C23.745 45.9108 23.3329 46.9039 22.5848 47.6509C21.8354 48.399 20.8385 48.8105 19.776 48.8105H19.7686C18.159 48.8105 16.7209 47.8476 16.1046 46.3594C15.9901 46.0735 15.7098 45.8934 15.4109 45.8934C15.3515 45.8934 15.2914 45.9002 15.232 45.9151C14.8911 46.0011 14.5266 46.045 14.1497 46.045C12.8676 46.045 11.6794 45.532 10.8044 44.5995C9.92635 43.6645 9.48513 42.4448 9.56249 41.1626C9.57239 40.9547 9.49999 40.753 9.36508 40.6119C9.22709 40.464 9.04021 40.378 8.83662 40.3681C6.32734 40.2777 4.36137 38.2387 4.36137 35.7251C4.36137 35.2041 4.45419 34.6725 4.63056 34.1725C5.55754 34.5735 6.56744 34.7845 7.56867 34.7845C7.98452 34.7845 8.32301 34.446 8.32301 34.0302C8.32301 33.6143 7.98452 33.2759 7.56867 33.2759C6.54268 33.2759 5.53154 33.0054 4.64541 32.4949C2.836 31.4504 1.71162 29.5042 1.71162 27.4176C1.71162 25.3309 2.70419 23.5958 4.36632 22.5091C4.69429 22.2969 4.80506 21.8637 4.62004 21.5252C4.15283 20.6465 3.90531 19.6577 3.90531 18.6657C3.90531 16.0364 5.58229 13.7263 8.07981 12.9114C8.09466 12.9077 8.1089 12.9033 8.12189 12.8971C8.70667 12.7096 9.32424 12.615 9.95729 12.615C11.2122 12.615 12.4189 12.9986 13.4474 13.7233C13.5699 13.8148 13.7252 13.865 13.8855 13.865C14.1268 13.865 14.3558 13.7462 14.4994 13.5463C14.6157 13.3835 14.6609 13.1843 14.6268 12.9844C14.5928 12.7845 14.4839 12.6106 14.3211 12.4955C13.0445 11.5871 11.5359 11.1069 9.95791 11.1069C9.51608 11.1069 9.07177 11.1465 8.63241 11.2245C8.73018 10.2016 9.10457 9.23625 9.72585 8.41571C10.4078 7.51472 11.3385 6.85382 12.4189 6.50296L12.4616 6.4912C13.5489 6.14467 14.7432 6.14714 15.8267 6.49863C15.8979 6.52709 15.9783 6.54194 16.0674 6.54194C16.3929 6.54194 16.6801 6.33464 16.7815 6.02585C16.9103 5.63353 16.6943 5.20717 16.2989 5.07536C15.6027 4.84764 14.8719 4.73192 14.1268 4.73192C13.896 4.73192 13.659 4.7443 13.4183 4.76905C14.3651 2.96892 16.2197 1.82783 18.2568 1.82783C21.284 1.82783 23.7463 4.32227 23.7463 7.38848V13.3687C22.9288 12.3619 21.7859 11.6719 20.2116 11.2226C19.8119 11.1082 19.3929 11.3396 19.2785 11.7387L19.2766 11.7393Z" fill="#B7500B"/>
<path d="M36.6751 36.0228C36.6002 35.1917 36.4282 34.3996 36.1627 33.6626C35.5322 31.9169 34.0582 29.6979 30.6225 29.0438C30.4251 29.0036 30.224 29.0438 30.0569 29.157C29.8892 29.2709 29.7766 29.4442 29.7407 29.644C29.6671 30.0543 29.9369 30.4473 30.3403 30.5197C32.5285 30.9324 34.0093 32.1509 34.7413 34.1416C35.1485 35.2474 35.2116 36.3216 35.216 36.8285C34.073 37.8179 33.5749 39.4033 33.7364 41.545C33.7679 41.9355 34.0965 42.2412 34.4839 42.2412H34.5414C34.9548 42.209 35.2605 41.8563 35.2376 41.4312C35.107 39.7517 35.4499 38.5698 36.2574 37.9188C37.5891 36.8377 39.8799 37.3662 40.3255 37.4832C40.3304 37.4844 40.3348 37.4856 40.3385 37.4863C40.5334 37.5413 40.7376 37.5178 40.9133 37.4207C41.0872 37.3241 41.2135 37.1657 41.2686 36.9733C41.3707 36.615 41.1906 36.2412 40.8608 36.0877L40.8558 36.0772L40.7525 36.0469C40.659 36.0197 38.5612 35.4163 36.6751 36.0228Z" stroke="#B7500B" stroke-width="0.1"/>
<path d="M40.8273 23.6007L40.7586 23.5444H40.7574C39.9393 22.891 38.9709 22.4009 37.8125 22.0537C39.9963 20.7325 41.1213 18.3315 41.2265 16.9306C41.258 16.5166 40.9486 16.1533 40.5365 16.1212C40.3341 16.1057 40.1392 16.1694 39.9864 16.3012C39.8348 16.4324 39.7426 16.6156 39.7271 16.8167C39.6374 17.951 38.5742 20.071 36.5786 21.0197C34.5693 21.9695 32.0971 21.4819 29.4263 19.6082C29.081 19.3718 28.6219 19.451 28.3775 19.7926C28.1411 20.1379 28.2203 20.597 28.56 20.8402C30.6089 22.2715 32.5792 22.9968 34.4177 22.9968H34.4474C36.8143 23.1663 38.5637 23.7214 39.7945 24.6942C41.0124 25.657 41.719 27.032 41.9548 28.8971C42.0025 29.2715 42.323 29.5537 42.7011 29.5537C42.7277 29.5537 42.7661 29.5537 42.8125 29.5438C43.2141 29.4881 43.5012 29.115 43.4536 28.7016C43.1745 26.5172 42.2908 24.8006 40.8273 23.5995V23.6007Z" stroke="#B7500B" stroke-width="0.1"/>
<path d="M12.4202 21.0178C10.414 20.0735 9.3558 17.9528 9.27164 16.8161C9.24008 16.4027 8.88551 16.0958 8.46224 16.1199C8.25989 16.1354 8.07734 16.2282 7.94739 16.3823C7.81929 16.5345 7.75679 16.7288 7.77226 16.9299C7.88365 18.3346 9.01236 20.7369 11.1856 22.0525C9.99442 22.4089 9.0037 22.9176 8.1714 23.5989C6.70667 24.8006 5.82424 26.5166 5.54702 28.7016C5.49813 29.1162 5.78526 29.4856 6.19986 29.5432L6.22957 29.5457C6.24565 29.5481 6.26979 29.5518 6.30011 29.5518C6.6782 29.5518 6.99875 29.2697 7.0464 28.8947C7.27845 27.0289 7.98452 25.6539 9.20357 24.6917C10.435 23.7202 12.1862 23.1651 14.5575 22.9962H14.5804C16.4263 22.9962 18.3973 22.2703 20.4356 20.8408C20.6021 20.727 20.7135 20.5549 20.7481 20.3575C20.7834 20.1577 20.737 19.9553 20.62 19.7919C20.5062 19.6255 20.3341 19.5141 20.1367 19.4794C19.9369 19.4442 19.7345 19.4906 19.5687 19.6088C16.9022 21.4801 14.4294 21.9671 12.4183 21.0184L12.4202 21.0178Z" stroke="#B7500B" stroke-width="0.1"/>
<path d="M18.3793 29.0389C14.9406 29.6942 13.4672 31.9126 12.836 33.6589C12.5705 34.3953 12.3991 35.1874 12.3242 36.0184C10.4789 35.4219 8.48018 35.9745 8.24813 36.0426C8.0563 36.0976 7.89726 36.2233 7.80135 36.3978C7.70358 36.5747 7.68068 36.7802 7.73699 36.9764C7.79206 37.1682 7.91768 37.3272 8.09157 37.4231C8.26793 37.5209 8.47214 37.5438 8.66768 37.4881C8.67202 37.4869 8.67635 37.4863 8.6813 37.4844C9.12746 37.3681 11.4202 36.8402 12.7481 37.9213C13.5551 38.5716 13.8985 39.7536 13.7673 41.4386C13.745 41.8575 14.0507 42.2109 14.4641 42.2424H14.5216C14.909 42.2431 15.237 41.9374 15.2692 41.5457C15.4301 39.4052 14.9325 37.8198 13.7896 36.8309C13.7939 36.3328 13.8558 35.2765 14.2543 34.175C14.9808 32.1688 16.4647 30.9398 18.6634 30.5228C18.9233 30.4764 19.1281 30.2975 19.2215 30.0673L19.3608 30.1372L19.2642 29.6434C19.185 29.2375 18.7896 28.9671 18.3799 29.0395L18.3793 29.0389Z" stroke="#B7500B" stroke-width="0.1"/>
<path d="M48.7846 27.4126C48.7846 25.1335 47.7673 23.0395 45.9864 21.6366C46.3849 20.6979 46.5953 19.6756 46.5953 18.6682C46.5953 17.1224 46.1349 15.6372 45.2636 14.3742C44.427 13.1614 43.2661 12.2307 41.8985 11.6738C41.8669 8.79937 40.0773 6.22697 37.3905 5.20036C36.94 3.79937 36.0817 2.59516 34.9022 1.71274C33.6869 0.803701 32.2469 0.322884 30.7382 0.322884C28.0823 0.322884 25.69 1.82969 24.5012 4.20531C23.3168 1.82907 20.9245 0.322266 18.2624 0.322266C16.7512 0.322266 15.3106 0.802464 14.0959 1.7115C12.9183 2.59269 12.0606 3.79504 11.6101 5.19541C8.92882 6.22202 7.13984 8.7938 7.10209 11.6688C5.73452 12.2257 4.57362 13.1564 3.73699 14.3693C2.8657 15.6329 2.40531 17.1174 2.40531 18.6632C2.40531 19.6707 2.61508 20.6929 3.01422 21.6323C1.23266 23.0364 0.215332 25.1304 0.215332 27.4083C0.215332 29.8018 1.36942 32.0327 3.3131 33.4169C3.01917 34.1484 2.86447 34.9411 2.86447 35.7214C2.86447 38.7647 5.086 41.3421 8.06558 41.8018C8.14355 43.2276 8.72461 44.5809 9.71471 45.6329C10.8799 46.8718 12.4579 47.5543 14.1578 47.5543C14.4455 47.5543 14.7265 47.5351 14.9957 47.4974C15.9616 49.2443 17.7809 50.3223 19.7853 50.3223C21.7896 50.3223 23.5198 49.2752 24.4988 47.6193C25.4715 49.2752 27.2735 50.3223 29.2135 50.3223C31.1535 50.3223 33.0433 49.2449 34.0043 47.4986C34.2859 47.537 34.5662 47.5568 34.841 47.5568C36.5408 47.5568 38.1194 46.8742 39.2846 45.6348C40.271 44.5828 40.8515 43.2294 40.9332 41.8043C42.3434 41.5871 43.633 40.8885 44.5823 39.8223C45.5835 38.6979 46.1355 37.2418 46.1355 35.7233C46.1355 34.9411 45.9808 34.149 45.6875 33.4194C47.6374 32.0364 48.7914 29.8062 48.7846 27.4126ZM44.4164 32.4702H44.4053L44.3478 32.5036C43.4616 33.0147 42.4505 33.2845 41.4245 33.2845C41.0087 33.2845 40.6702 33.623 40.6702 34.0388C40.6702 34.4547 41.0087 34.7932 41.4245 34.7932C42.4257 34.7932 43.4362 34.5822 44.3632 34.1812C44.5396 34.6775 44.6318 35.2096 44.6318 35.7338C44.6318 38.2437 42.6658 40.2833 40.1535 40.3773C39.9554 40.3866 39.7698 40.4726 39.6256 40.623C39.4901 40.7715 39.4202 40.9658 39.4301 41.175C39.5093 42.4516 39.0687 43.6713 38.1881 44.6088C37.3131 45.5407 36.125 46.0543 34.8428 46.0543C34.4907 46.0543 34.125 46.0104 33.7599 45.9244C33.3966 45.834 33.0297 46.0197 32.8886 46.3668C32.2741 47.8569 30.8354 48.8198 29.224 48.8198C27.0371 48.8198 25.258 47.0407 25.258 44.8538V14.4015C25.8509 12.2301 26.7135 10.8247 29.3311 10.0747C29.7302 9.95964 29.9616 9.54071 29.8465 9.14095C29.7314 8.74182 29.3125 8.51038 28.9134 8.62548C27.2896 9.08897 26.107 9.81793 25.2518 10.8916V7.38538C25.2518 4.31917 27.7147 1.82474 30.7413 1.82474C32.7791 1.82474 34.633 2.96707 35.5798 4.76905C34.6108 4.67004 33.6299 4.77462 32.698 5.0766C32.508 5.13972 32.3527 5.27338 32.2617 5.4516C32.1695 5.63229 32.1535 5.8365 32.216 6.02462C32.315 6.33464 32.6021 6.54256 32.9307 6.54256C33.0056 6.54256 33.0897 6.52771 33.1615 6.50234C34.2506 6.149 35.4486 6.14529 36.5359 6.49182L36.5724 6.50358H36.5786C37.659 6.85444 38.5897 7.51472 39.2716 8.41633C39.8923 9.23687 40.2673 10.2022 40.3651 11.2251C39.9257 11.1471 39.4808 11.1075 39.0396 11.1075C37.4616 11.1075 35.9523 11.5877 34.6776 12.4955C34.5142 12.61 34.4047 12.782 34.3707 12.9794C34.336 13.1793 34.3806 13.3798 34.4957 13.5426C34.6361 13.7474 34.8608 13.865 35.112 13.865C35.2605 13.865 35.414 13.8161 35.547 13.7251C36.5736 12.9986 37.7815 12.6143 39.0396 12.6143C39.6801 12.6143 40.3057 12.7121 40.8997 12.9052C43.4059 13.7134 45.0897 16.0277 45.0897 18.6645C45.0897 19.67 44.8428 20.6589 44.3756 21.524C44.1918 21.8693 44.3001 22.2919 44.6281 22.5067C46.2834 23.5939 47.2747 25.4176 47.284 27.3891V27.4163C47.284 29.4751 46.1869 31.4052 44.4171 32.4695L44.4164 32.4702ZM19.2766 11.7393C19.1621 12.1391 19.3936 12.558 19.7927 12.6725C22.594 13.4714 23.2252 15.0079 23.745 16.9343V41.0871C22.7178 40.0079 21.2803 39.3804 19.7791 39.3804C19.3632 39.3804 19.0247 39.7189 19.0247 40.1348C19.0247 40.5506 19.3632 40.8891 19.7791 40.8891C21.9554 40.8891 23.7283 42.6515 23.745 44.8247V44.8551C23.745 45.9108 23.3329 46.9039 22.5848 47.6509C21.8354 48.399 20.8385 48.8105 19.776 48.8105H19.7686C18.159 48.8105 16.7209 47.8476 16.1046 46.3594C15.9901 46.0735 15.7098 45.8934 15.4109 45.8934C15.3515 45.8934 15.2914 45.9002 15.232 45.9151C14.8911 46.0011 14.5266 46.045 14.1497 46.045C12.8676 46.045 11.6794 45.532 10.8044 44.5995C9.92635 43.6645 9.48513 42.4448 9.56249 41.1626C9.57239 40.9547 9.49999 40.753 9.36508 40.6119C9.22709 40.464 9.04021 40.378 8.83662 40.3681C6.32734 40.2777 4.36137 38.2387 4.36137 35.7251C4.36137 35.2041 4.45419 34.6725 4.63056 34.1725C5.55754 34.5735 6.56744 34.7845 7.56867 34.7845C7.98452 34.7845 8.32301 34.446 8.32301 34.0302C8.32301 33.6143 7.98452 33.2759 7.56867 33.2759C6.54268 33.2759 5.53154 33.0054 4.64541 32.4949C2.836 31.4504 1.71162 29.5042 1.71162 27.4176C1.71162 25.3309 2.70419 23.5958 4.36632 22.5091C4.69429 22.2969 4.80506 21.8637 4.62004 21.5252C4.15283 20.6465 3.90531 19.6577 3.90531 18.6657C3.90531 16.0364 5.58229 13.7263 8.07981 12.9114C8.09466 12.9077 8.1089 12.9033 8.12189 12.8971C8.70667 12.7096 9.32424 12.615 9.95729 12.615C11.2122 12.615 12.4189 12.9986 13.4474 13.7233C13.5699 13.8148 13.7252 13.865 13.8855 13.865C14.1268 13.865 14.3558 13.7462 14.4994 13.5463C14.6157 13.3835 14.6609 13.1843 14.6268 12.9844C14.5928 12.7845 14.4839 12.6106 14.3211 12.4955C13.0445 11.5871 11.5359 11.1069 9.95791 11.1069C9.51608 11.1069 9.07177 11.1465 8.63241 11.2245C8.73018 10.2016 9.10457 9.23625 9.72585 8.41571C10.4078 7.51472 11.3385 6.85382 12.4189 6.50296L12.4616 6.4912C13.5489 6.14467 14.7432 6.14714 15.8267 6.49863C15.8979 6.52709 15.9783 6.54194 16.0674 6.54194C16.3929 6.54194 16.6801 6.33464 16.7815 6.02585C16.9103 5.63353 16.6943 5.20717 16.2989 5.07536C15.6027 4.84764 14.8719 4.73192 14.1268 4.73192C13.896 4.73192 13.659 4.7443 13.4183 4.76905C14.3651 2.96892 16.2197 1.82783 18.2568 1.82783C21.284 1.82783 23.7463 4.32227 23.7463 7.38848V13.3687C22.9288 12.3619 21.7859 11.6719 20.2116 11.2226C19.8119 11.1082 19.3929 11.3396 19.2785 11.7387L19.2766 11.7393Z" stroke="#B7500B" stroke-width="0.1"/>
</g>
</g>
</svg>
