<svg width="51" height="50" viewBox="0 0 51 50" fill="none" xmlns="http://www.w3.org/2000/svg">
<g id="Graphic Icons" clip-path="url(#clip0_1075_5310)">
<path id="Vector" d="M25.4992 5.14375C26.0242 5.14375 26.4555 4.7125 26.4555 4.1875V0.95625C26.4555 0.43125 26.0242 0 25.4992 0C24.9742 0 24.543 0.43125 24.543 0.95625V4.1875C24.543 4.7125 24.9742 5.14375 25.4992 5.14375Z" fill="#B7500B"/>
<path id="Vector_2" d="M14.2633 7.44995C14.432 7.7437 14.7508 7.92495 15.0945 7.92495C15.4383 7.92495 15.4258 7.8812 15.5695 7.79995C16.0258 7.53745 16.182 6.94995 15.9195 6.4937L14.307 3.69995C14.182 3.4812 13.9758 3.3187 13.7258 3.2562C13.482 3.18745 13.2195 3.22495 13.0008 3.34995C12.5445 3.61245 12.3883 4.19995 12.6508 4.6562L14.2633 7.44995Z" fill="#B7500B"/>
<path id="Vector_3" d="M7.94999 13.7625L5.15624 12.15C4.93749 12.025 4.675 11.9875 4.43125 12.0562C4.1875 12.125 3.98124 12.2812 3.84999 12.5C3.58749 12.9562 3.74374 13.5437 4.2 13.8062L6.99375 15.4187C7.1375 15.5 7.30625 15.5437 7.46874 15.5437C7.8125 15.5437 8.12499 15.3625 8.29999 15.0687C8.56249 14.6125 8.40624 14.025 7.94999 13.7625Z" fill="#B7500B"/>
<path id="Vector_4" d="M5.6375 25C5.6375 24.475 5.20625 24.0437 4.68125 24.0437H1.45625C0.93125 24.0437 0.5 24.475 0.5 25C0.5 25.525 0.93125 25.9562 1.45625 25.9562H4.6875C5.2125 25.9562 5.64375 25.525 5.64375 25H5.6375Z" fill="#B7500B"/>
<path id="Vector_5" d="M7.71874 34.4813C7.47499 34.4125 7.2125 34.45 6.99375 34.575L4.2 36.1875C3.74374 36.45 3.58749 37.0375 3.84999 37.4938C4.01874 37.7875 4.3375 37.9688 4.68125 37.9688C5.025 37.9688 5.0125 37.925 5.15624 37.8438L7.94999 36.2313C8.40624 35.9688 8.56249 35.3813 8.29999 34.925C8.17499 34.7063 7.96249 34.5438 7.71874 34.4813Z" fill="#B7500B"/>
<path id="Vector_6" d="M15.5695 42.2C15.3508 42.075 15.0883 42.0375 14.8445 42.1063C14.6008 42.175 14.3945 42.3313 14.2633 42.55L12.6508 45.35C12.3883 45.8063 12.5445 46.3938 13.0008 46.6563C13.1445 46.7375 13.3133 46.7813 13.4758 46.7813C13.8195 46.7813 14.132 46.6 14.307 46.3063L15.9195 43.5125C16.182 43.0563 16.0258 42.4688 15.5695 42.2063V42.2Z" fill="#B7500B"/>
<path id="Vector_7" d="M25.4992 44.8625C24.9742 44.8625 24.543 45.2938 24.543 45.8188V49.05C24.543 49.575 24.9742 50.0063 25.4992 50.0063C26.0242 50.0063 26.4555 49.575 26.4555 49.05V45.8188C26.4555 45.2938 26.0242 44.8625 25.4992 44.8625Z" fill="#B7500B"/>
<path id="Vector_8" d="M36.7367 42.55C36.6117 42.3313 36.3992 42.1688 36.1555 42.1063C35.9117 42.0375 35.6492 42.075 35.4305 42.2C34.9742 42.4625 34.818 43.05 35.0805 43.5063L36.693 46.3C36.8617 46.5938 37.1805 46.775 37.5242 46.775C37.868 46.775 37.8555 46.7313 37.9992 46.65C38.4555 46.3875 38.6117 45.8 38.3492 45.3438L36.7367 42.55Z" fill="#B7500B"/>
<path id="Vector_9" d="M46.7996 36.1938L44.0059 34.5813C43.7871 34.4563 43.5246 34.4188 43.2809 34.4875C43.0371 34.5563 42.8309 34.7125 42.6996 34.9313C42.4371 35.3875 42.5934 35.975 43.0496 36.2375L45.8434 37.85C45.9871 37.9313 46.1559 37.975 46.3184 37.975C46.6621 37.975 46.9746 37.7938 47.1496 37.5C47.4121 37.0438 47.2559 36.4563 46.7996 36.1938Z" fill="#B7500B"/>
<path id="Vector_10" d="M49.543 24.0437H46.3117C45.7867 24.0437 45.3555 24.475 45.3555 25C45.3555 25.525 45.7867 25.9562 46.3117 25.9562H49.543C50.068 25.9562 50.4992 25.525 50.4992 25C50.4992 24.475 50.068 24.0437 49.543 24.0437Z" fill="#B7500B"/>
<path id="Vector_11" d="M43.525 15.55C43.6937 15.55 43.8562 15.5062 44 15.425L46.7937 13.8125C47.25 13.55 47.4062 12.9625 47.1437 12.5062C47.0187 12.2875 46.8062 12.125 46.5625 12.0625C46.3187 11.9937 46.0562 12.0312 45.8375 12.1562L43.0437 13.7687C42.5875 14.0312 42.4312 14.6187 42.6937 15.075C42.8625 15.3687 43.1812 15.55 43.525 15.55Z" fill="#B7500B"/>
<path id="Vector_12" d="M35.4305 7.79997C35.5742 7.88122 35.743 7.92497 35.9055 7.92497C36.2492 7.92497 36.5617 7.74372 36.7367 7.44997L38.3492 4.64997C38.6117 4.19372 38.4555 3.60622 37.9992 3.34372C37.7805 3.21872 37.518 3.18122 37.2742 3.24997C37.0305 3.31872 36.8242 3.47497 36.693 3.69372L35.0805 6.49372C34.818 6.94997 34.9742 7.53747 35.4305 7.79997Z" fill="#B7500B"/>
<path id="Vector_13" d="M36.0067 27.0063C35.0754 25.825 35.0754 24.1813 36.0067 23L40.4067 17.425C40.6504 17.1188 40.6817 16.6938 40.4817 16.3563C40.2817 16.0125 39.8942 15.825 39.5192 15.8875L32.4942 16.9063C31.0067 17.125 29.5817 16.3 29.0254 14.9063L26.3942 8.31252C26.2504 7.94377 25.9004 7.71252 25.5067 7.71252C25.1129 7.71252 24.7629 7.95002 24.6192 8.31252L21.9879 14.9063C21.4317 16.3 20.0067 17.125 18.5192 16.9063L11.5004 15.8875C11.1192 15.825 10.7254 16.0125 10.5317 16.3563C10.3379 16.7 10.3629 17.1188 10.6067 17.425L15.0067 23C15.9379 24.1813 15.9379 25.825 15.0067 27.0063L10.6067 32.5813C10.3629 32.8875 10.3317 33.3125 10.5317 33.65C10.7317 33.9938 11.1192 34.1813 11.5004 34.1188L18.5254 33.1C20.0129 32.8875 21.4379 33.7063 21.9942 35.1L24.6254 41.6938C24.7692 42.0625 25.1192 42.2938 25.5129 42.2938C25.9067 42.2938 26.2567 42.0563 26.4004 41.6938L29.0317 35.1C29.5879 33.7063 31.0129 32.8813 32.5004 33.1L39.5254 34.1188C39.9067 34.1813 40.2942 33.9938 40.4942 33.65C40.6879 33.3063 40.6629 32.8875 40.4192 32.5813L36.0192 27.0063H36.0067ZM16.5004 21.8125L13.5879 18.1188L18.2442 18.7938C20.6067 19.1375 22.8754 17.8313 23.7629 15.6063L25.5067 11.2375L27.2504 15.6063C28.1379 17.825 30.4067 19.1375 32.7692 18.7938L37.4254 18.1188L34.5129 21.8125C33.0317 23.6875 33.0317 26.3063 34.5129 28.1875L37.4254 31.8813L32.7692 31.2063C30.4067 30.8625 28.1379 32.1688 27.2504 34.3938L25.5067 38.7625L23.7629 34.3938C22.9754 32.425 21.1067 31.15 18.9942 31.15C16.8817 31.15 18.4942 31.1688 18.2442 31.2063L13.5879 31.8813L16.5004 28.1875C17.9817 26.3125 17.9817 23.6938 16.5004 21.8125Z" fill="#B7500B"/>
</g>
<defs>
<clipPath id="clip0_1075_5310">
<rect width="50" height="50" fill="white" transform="translate(0.5)"/>
</clipPath>
</defs>
</svg>
