<svg width="45" height="51" viewBox="0 0 45 51" fill="none" xmlns="http://www.w3.org/2000/svg">
<g id="Graphic Icons" clip-path="url(#clip0_859_5229)">
<path id="Vector" d="M20.3127 45.3973H19.4377C19.0314 45.3973 18.7002 45.7285 18.7002 46.1348C18.7002 46.541 19.0314 46.8723 19.4377 46.8723H20.3127C20.7189 46.8723 21.0502 46.541 21.0502 46.1348C21.0502 45.7285 20.7189 45.3973 20.3127 45.3973Z" fill="#B7500B"/>
<path id="Vector_2" d="M25.8869 37.941H25.0119C24.6057 37.941 24.2744 38.2723 24.2744 38.6785C24.2744 39.0848 24.6057 39.416 25.0119 39.416H25.8869C26.2932 39.416 26.6244 39.0848 26.6244 38.6785C26.6244 38.2723 26.2932 37.941 25.8869 37.941Z" fill="#B7500B"/>
<path id="Vector_3" d="M33.85 39.7535C33.85 39.3472 33.5187 39.016 33.1125 39.016H32.2375C31.8312 39.016 31.5 39.3472 31.5 39.7535C31.5 40.1597 31.8312 40.491 32.2375 40.491H33.1125C33.5187 40.491 33.85 40.1597 33.85 39.7535Z" fill="#B7500B"/>
<path id="Vector_4" d="M19.3744 41.2285C19.3744 40.8223 19.0432 40.491 18.6369 40.491H17.7619C17.3557 40.491 17.0244 40.8223 17.0244 41.2285C17.0244 41.6348 17.3557 41.966 17.7619 41.966H18.6369C19.0432 41.966 19.3744 41.6348 19.3744 41.2285Z" fill="#B7500B"/>
<path id="Vector_5" d="M26.7619 42.1035H25.8869C25.4807 42.1035 25.1494 42.4348 25.1494 42.841C25.1494 43.2473 25.4807 43.5785 25.8869 43.5785H26.7619C27.1682 43.5785 27.4994 43.2473 27.4994 42.841C27.4994 42.4348 27.1682 42.1035 26.7619 42.1035Z" fill="#B7500B"/>
<path id="Vector_6" d="M12.2873 37.941H11.4123C11.0061 37.941 10.6748 38.2723 10.6748 38.6785C10.6748 39.0848 11.0061 39.416 11.4123 39.416H12.2873C12.6936 39.416 13.0248 39.0848 13.0248 38.6785C13.0248 38.2723 12.6936 37.941 12.2873 37.941Z" fill="#B7500B"/>
<path id="Vector_7" d="M41.3123 20.9412H39.6186L39.6061 20.8912C39.4311 20.0662 39.2123 19.2225 38.9936 18.4037C37.7998 13.8787 36.4498 8.75372 41.7623 1.49122C41.9373 1.24747 41.9498 0.916223 41.7873 0.659973C41.6811 0.497473 41.5186 0.384973 41.3248 0.341223C41.1311 0.297473 40.9373 0.334973 40.7686 0.441223C37.9686 2.24747 35.8936 6.35997 34.6436 9.49122C33.2311 13.035 32.0936 17.2975 31.5936 20.885V20.9412H25.7998V20.885C25.5623 17.01 26.7811 13.3975 29.6186 9.51622C29.7936 9.27247 29.8061 8.94122 29.6436 8.68497C29.4248 8.34122 28.9686 8.24747 28.6248 8.46622C25.8248 10.2725 23.7498 14.385 22.4998 17.5162C22.0748 18.5787 21.6686 19.7225 21.2998 20.9037L21.2873 20.9475H16.0436L16.0311 20.8975C15.8561 20.0787 15.6373 19.2287 15.4186 18.41C14.2248 13.885 12.8748 8.75997 18.1873 1.49747C18.3623 1.25372 18.3748 0.922473 18.2123 0.666223C18.1061 0.503723 17.9436 0.384973 17.7498 0.347473C17.5561 0.303723 17.3623 0.341223 17.1936 0.447473C14.3936 2.25372 12.3186 6.36622 11.0686 9.49747C9.6623 13.0287 8.51855 17.285 8.01855 20.8787L8.0373 20.9475H3.69355C2.78105 20.9475 1.9248 21.3037 1.2748 21.9537C0.624805 22.6037 0.268555 23.46 0.268555 24.3725V46.91C0.268555 47.7912 0.612305 48.635 1.23105 49.2787L1.28105 49.3287C1.9248 49.9725 2.7873 50.3287 3.6998 50.3287H41.3186C42.2311 50.3287 43.0873 49.9725 43.7373 49.3225C44.3873 48.6725 44.7436 47.8162 44.7436 46.9037V24.3662C44.7436 23.4537 44.3873 22.5975 43.7373 21.9475C43.0873 21.2975 42.2311 20.9412 41.3186 20.9412H41.3123ZM32.9623 21.8162C32.9623 21.785 32.9748 21.7475 32.9748 21.7162C32.9748 21.71 32.9748 21.7037 32.9748 21.7037C33.2936 18.9412 34.2623 14.4225 36.0123 10.0287C36.2123 9.52247 36.4248 9.01622 36.6436 8.52872L36.8873 7.98497L36.7623 8.57247C35.9123 12.51 36.7936 15.8412 37.5686 18.7787L37.5811 18.8287C37.8498 19.8475 38.1061 20.8162 38.2748 21.7725L38.2873 21.8412C38.4123 22.5662 38.4748 23.2225 38.4748 23.835C38.4748 24.4475 38.1998 25.26 37.6936 25.785L37.6436 25.835C37.1061 26.3662 36.3998 26.66 35.6436 26.66C34.8873 26.66 34.1811 26.3662 33.6498 25.835C33.1186 25.3037 32.8248 24.5912 32.8248 23.8412C32.8248 23.0912 32.8686 22.5975 32.9561 21.8225L32.9623 21.8162ZM22.5186 21.9725C22.5373 21.9225 22.5561 21.8725 22.5623 21.8162C22.9623 20.51 23.3998 19.2475 23.8748 18.0475C24.0748 17.5412 24.2873 17.035 24.5061 16.5475L24.7498 16.0037L24.6248 16.5912C23.7748 20.5287 24.6561 23.86 25.4311 26.7975C25.8998 28.5725 26.3373 30.235 26.3373 31.8537C26.3373 33.4725 26.0686 33.26 25.5748 33.785L25.4748 33.8912C24.9436 34.4037 24.2498 34.6787 23.5123 34.6787C22.7748 34.6787 22.0498 34.385 21.5186 33.8537C20.9873 33.3225 20.6936 32.61 20.6936 31.86C20.6936 29.5287 21.4061 25.6475 22.5123 21.9787L22.5186 21.9725ZM9.40605 21.8162C9.40605 21.7787 9.41855 21.7475 9.41855 21.7162C9.41855 21.71 9.41855 21.7037 9.41855 21.7037C9.7373 18.9412 10.7061 14.4225 12.4561 10.0287C12.6561 9.52247 12.8686 9.01622 13.0873 8.52872L13.3311 7.98497L13.2061 8.57247C12.3561 12.51 13.2373 15.8412 14.0123 18.7787L14.0248 18.8287C14.2936 19.8475 14.5498 20.8162 14.7186 21.7662L14.7311 21.835C14.8561 22.56 14.9186 23.2162 14.9186 23.8287C14.9186 24.4412 14.6623 25.1975 14.1936 25.7162H14.1998L14.0936 25.8225C13.5623 26.3537 12.8498 26.6475 12.0998 26.6475C11.3498 26.6475 10.6373 26.3537 10.1061 25.8225L10.0686 25.7912C9.55606 25.26 9.28105 24.5662 9.28105 23.8287C9.28105 23.0912 9.32481 22.585 9.4123 21.81L9.40605 21.8162ZM1.74355 24.36C1.74355 23.8412 1.9498 23.3475 2.31855 22.985C2.6873 22.6162 3.1748 22.4162 3.69355 22.4162H7.86855V22.485C7.8248 22.985 7.7998 23.4412 7.7998 23.835C7.7998 24.9537 8.23105 26.0162 9.0123 26.8225L9.05606 26.8725C9.86856 27.6787 10.9436 28.1287 12.0936 28.1287C13.2436 28.1287 14.3186 27.685 15.1311 26.8725C15.9436 26.06 16.3873 24.9787 16.3873 23.835V23.81C16.3873 23.385 16.3623 22.935 16.3061 22.485V22.4162C16.2998 22.4162 20.8498 22.4162 20.8498 22.4162L20.8248 22.4975C20.0123 25.3912 19.4436 28.335 19.2686 30.5725V30.6662C19.2623 30.6662 18.9811 30.535 18.9811 30.535C18.4436 30.285 17.9623 30.1412 17.5061 30.0975C16.3123 29.9725 15.2248 30.4787 14.1748 30.9662C13.3998 31.3287 12.5998 31.6975 11.8998 31.6975C11.1998 31.6975 11.8311 31.6975 11.7998 31.6975C10.9873 31.6537 10.0623 31.0537 9.1623 30.4787L9.14355 30.4662C8.26855 29.9037 7.36855 29.3225 6.43105 29.1162C4.71855 28.7412 3.14355 29.635 1.83105 30.5537L1.73105 30.6225V24.3725L1.74355 24.36ZM43.2561 46.8975C43.2561 47.4162 43.0498 47.91 42.6811 48.2725C42.3123 48.6412 41.8248 48.8412 41.3061 48.8412H3.69355C3.1748 48.8412 2.6873 48.635 2.31855 48.2662L2.28105 48.235C1.93105 47.8662 1.74355 47.3912 1.74355 46.8912V32.4287L1.76855 32.41C3.3623 31.21 4.79355 30.2412 6.1373 30.535C6.81855 30.685 7.5998 31.185 8.3498 31.6725H8.3623C9.43106 32.3725 10.5311 33.085 11.7436 33.1475C12.8248 33.2037 13.8311 32.735 14.8061 32.285C15.6811 31.8787 16.5811 31.4662 17.3686 31.5475C17.6623 31.5787 17.9811 31.6787 18.3811 31.86C18.6186 31.9662 18.8873 32.11 19.2248 32.3037L19.2498 32.3225V32.3537C19.3623 33.31 19.7998 34.21 20.4873 34.8912C21.2998 35.7037 22.3811 36.1475 23.5248 36.1475C24.6686 36.1475 25.7061 35.7162 26.5123 34.935L26.5623 34.8912C27.0998 34.3537 27.4873 33.685 27.6811 32.9475L27.5248 33.0162L27.8873 32.61L27.8623 32.7225C29.0311 32.1912 30.0811 31.76 31.0561 31.76C32.0311 31.76 33.4498 32.4162 34.6248 33.0475H34.6311C35.7186 33.635 36.7436 34.1912 37.8373 34.3287C38.9623 34.4725 40.1311 34.1475 41.4123 33.3537C41.9436 33.0162 42.4998 32.6037 43.1561 32.0537L43.2561 31.9662V46.91V46.8975ZM43.2561 29.9975L43.2373 30.0162C42.3498 30.81 41.4811 31.5725 40.6311 32.1037C39.7936 32.6287 39.0436 32.8912 38.3561 32.8912C38.2436 32.8912 38.1311 32.885 38.0248 32.8725C37.2123 32.7725 36.2998 32.2787 35.3311 31.76H35.3248C33.9873 31.035 32.5998 30.2912 31.0623 30.2912C29.5248 30.2912 28.8186 30.71 27.8811 31.1162L27.7998 31.1537V31.0662C27.6811 29.5537 27.2873 28.0475 26.8686 26.46V26.435C26.5498 25.2475 26.1936 23.9037 25.9811 22.4975L25.9686 22.4225H31.4311V22.4912C31.3873 22.9912 31.3623 23.4475 31.3623 23.8412C31.3623 24.9912 31.8061 26.0662 32.6186 26.8787C33.4311 27.6912 34.5123 28.135 35.6561 28.135C36.7998 28.135 37.8811 27.685 38.6936 26.8725C39.5061 26.06 39.9498 24.9787 39.9498 23.835V23.7787C39.9498 23.36 39.9248 22.9287 39.8686 22.485V22.4162C39.8623 22.4162 41.3061 22.4162 41.3061 22.4162C41.8248 22.4162 42.3123 22.6162 42.6811 22.9912C43.0498 23.36 43.2561 23.8475 43.2561 24.3662V30.0037V29.9975Z" fill="#B7500B"/>
<path id="Vector_8" d="M6.38105 37.941H5.50605C5.0998 37.941 4.76855 38.2723 4.76855 38.6785C4.76855 39.0848 5.0998 39.416 5.50605 39.416H6.38105C6.7873 39.416 7.11855 39.0848 7.11855 38.6785C7.11855 38.2723 6.7873 37.941 6.38105 37.941Z" fill="#B7500B"/>
<path id="Vector_9" d="M8.1877 42.1035H7.3127C6.90645 42.1035 6.5752 42.4348 6.5752 42.841C6.5752 43.2473 6.90645 43.5785 7.3127 43.5785H8.1877C8.59395 43.5785 8.9252 43.2473 8.9252 42.841C8.9252 42.4348 8.59395 42.1035 8.1877 42.1035Z" fill="#B7500B"/>
<path id="Vector_10" d="M33.9875 43.516H33.1125C32.7062 43.516 32.375 43.8472 32.375 44.2535C32.375 44.6597 32.7062 44.991 33.1125 44.991H33.9875C34.3937 44.991 34.725 44.6597 34.725 44.2535C34.725 43.8472 34.3937 43.516 33.9875 43.516Z" fill="#B7500B"/>
<path id="Vector_11" d="M12.2873 44.4598H11.4123C11.0061 44.4598 10.6748 44.791 10.6748 45.1973C10.6748 45.6035 11.0061 45.9348 11.4123 45.9348H12.2873C12.6936 45.9348 13.0248 45.6035 13.0248 45.1973C13.0248 44.791 12.6936 44.4598 12.2873 44.4598Z" fill="#B7500B"/>
<path id="Vector_12" d="M38.6252 40.491H39.5002C39.9064 40.491 40.2377 40.1597 40.2377 39.7535C40.2377 39.3472 39.9064 39.016 39.5002 39.016H38.6252C38.2189 39.016 37.8877 39.3472 37.8877 39.7535C37.8877 40.1597 38.2189 40.491 38.6252 40.491Z" fill="#B7500B"/>
<path id="Vector_13" d="M39.4934 44.4598H38.6184C38.2121 44.4598 37.8809 44.791 37.8809 45.1973C37.8809 45.6035 38.2121 45.9348 38.6184 45.9348H39.4934C39.8996 45.9348 40.2309 45.6035 40.2309 45.1973C40.2309 44.791 39.8996 44.4598 39.4934 44.4598Z" fill="#B7500B"/>
</g>
<defs>
<clipPath id="clip0_859_5229">
<rect width="44.4625" height="50" fill="white" transform="translate(0.268555 0.322266)"/>
</clipPath>
</defs>
</svg>
