<svg width="47" height="51" viewBox="0 0 47 51" fill="none" xmlns="http://www.w3.org/2000/svg">
<g id="Graphic Icons" clip-path="url(#clip0_738_20521)">
<path id="Vector" d="M10.1267 30.6773V30.6785L10.3248 30.5598C12.498 29.2623 13.9711 28.8404 15.2705 28.4679L15.298 28.4598C16.8186 28.0173 18.1317 27.6354 19.828 26.1804C20.5342 25.5785 24.0886 22.321 24.6811 17.321C24.9173 15.311 24.5511 13.9385 24.1973 12.611C23.8705 11.3823 23.5317 10.1117 23.6123 8.14354C23.7005 5.90854 24.3011 3.68292 25.3986 1.52854L25.4273 1.47292L23.8767 0.693542L23.8486 0.749167C22.6473 3.12729 21.9848 5.59229 21.8805 8.07417C21.7923 10.2717 22.1742 11.736 22.5111 13.0279L22.5305 13.101C22.8617 14.3698 23.1473 15.466 22.9505 17.1217C22.4486 21.3998 19.3173 24.3285 18.6948 24.8717C17.2786 26.0885 16.2398 26.3873 14.8011 26.8004L14.7867 26.8048C13.4492 27.1892 11.7848 27.6679 9.4336 29.0698C7.78735 30.0504 4.72297 31.8748 2.71672 34.9742C-0.629526 40.1667 0.550474 46.3873 1.55172 49.6335L1.56985 49.6929L3.22422 49.1817L3.2061 49.1223C2.29235 46.1654 1.20422 40.5167 4.17985 35.9098C5.88422 33.2685 8.4761 31.6623 10.1273 30.6779L10.1267 30.6773Z" fill="#B7500B"/>
<path id="Vector_2" d="M45.2998 17.0354L45.3173 17.0435L45.2579 16.896C44.4348 14.8554 42.5079 10.076 37.9829 7.99538C36.6104 7.366 35.2598 7.10163 34.1748 6.88975L34.1354 6.88225C32.5448 6.56725 31.3954 6.33975 30.6842 5.331C29.9698 4.32288 29.8779 2.80913 30.4123 0.832876L30.4286 0.772876L28.7567 0.322876L28.7404 0.382876C28.0686 2.87725 28.2473 4.87975 29.2723 6.336C30.3836 7.90975 32.0511 8.23725 33.8167 8.58413L33.8373 8.58788C34.9436 8.80413 36.0879 9.0285 37.2479 9.56413C41.1542 11.3691 42.8329 15.541 43.6398 17.546C46.5567 24.7654 43.7192 34.5991 37.0398 40.4198C29.7617 46.7679 18.2211 47.3904 8.97607 41.9329C8.79669 41.8223 8.57794 41.7847 8.35982 41.8285C7.75544 41.9541 5.71294 42.5248 4.79419 44.6054C3.94857 46.5004 4.45794 48.781 6.06294 50.2798L6.10857 50.3223L7.29544 49.0579L7.24982 49.0154C6.18482 48.0216 5.83544 46.5316 6.37982 45.3079C6.85044 44.2441 7.83982 43.7866 8.40607 43.606C12.7973 46.126 17.6086 47.4373 22.4192 47.4373C22.9667 47.4373 23.5142 47.4204 24.0611 47.386C29.4286 47.051 34.3086 45.0923 38.1748 41.7204C45.3354 35.4729 48.3804 24.891 45.3004 17.036L45.2998 17.0354Z" fill="#B7500B"/>
<path id="Vector_3" d="M22.32 25.6835C21.7219 26.1973 21.06 26.7266 20.3538 27.2566C18.4719 28.666 17.005 29.4841 15.8263 30.1416L15.8188 30.146C14.2594 31.0141 13.0275 31.6998 11.8763 33.1854C11.2094 34.0473 9.43875 36.336 9.97563 38.7273C10.9106 42.8798 17.7406 44.3873 22.1031 44.3873C22.5288 44.3873 22.875 44.3773 23.1919 44.3548C29.46 43.9835 35.3725 40.3835 38.6206 34.9591C43.6944 26.476 40.0381 17.7123 39.6044 16.741C39.4869 16.4804 39.2375 16.291 38.955 16.2466C37.96 16.0798 36.9463 16.0279 35.9419 16.0929C28.8763 16.5985 24.2663 22.8404 22.6 25.5254C22.4888 25.5623 22.3938 25.616 22.3188 25.6835H22.32ZM33.6044 25.691C35.6163 24.1604 37.3831 21.9829 38.7219 19.386C39.6213 22.4335 40.5494 28.2079 37.2525 33.8779V33.8723L37.14 34.0604C34.1856 39.001 28.8044 42.2791 23.0975 42.616C20.6888 42.7585 17.9506 42.3866 15.7731 41.6223C13.415 40.7948 11.9563 39.626 11.6663 38.331C11.3006 36.7248 12.7144 34.9098 13.2463 34.2266C14.1825 33.0241 15.2219 32.446 16.66 31.646C17.8769 30.9654 19.3906 30.1191 21.3856 28.6348C21.98 28.191 22.5163 27.7698 23.0231 27.3466C24.335 27.8898 25.6888 28.1573 27.0406 28.141C29.27 28.1091 31.5394 27.2623 33.6044 25.6916V25.691ZM24.3625 25.986C25.2344 24.6498 26.6681 22.7391 28.615 21.0941C30.9656 19.1079 33.4706 18.006 36.0594 17.8185H36.0713C36.5438 17.7891 37.0431 17.7923 37.5569 17.8273C36.375 20.3679 34.7775 22.5079 32.9338 24.0204C31.0675 25.551 29.0238 26.3766 27.0231 26.4079C26.1306 26.4079 25.2356 26.266 24.3619 25.986H24.3625Z" fill="#B7500B"/>
</g>
<defs>
<clipPath id="clip0_738_20521">
<rect width="45.9925" height="50" fill="white" transform="translate(0.503662 0.322266)"/>
</clipPath>
</defs>
</svg>
