<svg width="49" height="50" viewBox="0 0 49 50" fill="none" xmlns="http://www.w3.org/2000/svg">
<g id="Graphic Icons" clip-path="url(#clip0_1075_5261)">
<path id="Vector" d="M10.1648 25.9312L10.0961 25.9937L10.1586 25.925L9.56484 25.3812L8.97109 25.925C8.88359 26.0062 6.82734 27.9125 4.82734 30.7875C2.24609 34.5125 0.933594 38.0687 0.933594 41.3625C0.933594 44.6562 1.83359 46.0125 3.46484 47.6C5.05859 49.15 7.22734 50 9.57109 50C14.3336 50 18.2086 46.125 18.2086 41.3625C18.2086 33.7187 10.9898 26.7062 10.1711 25.9312H10.1648ZM16.4711 41.3625C16.4711 45.1687 13.3773 48.2625 9.57109 48.2625C5.76484 48.2625 2.67109 45.1687 2.67109 41.3625C2.67109 37.5562 3.65234 35.8375 5.68984 32.6625C7.13984 30.4125 8.71484 28.6625 9.57109 27.7875C10.4211 28.6687 12.0023 30.4125 13.4523 32.6625C15.4586 35.7812 16.4711 38.7062 16.4711 41.3625Z" fill="#B7500B"/>
<path id="Vector_2" d="M6.8082 42.3187L6.6082 42.0125L5.1582 42.9687L5.3582 43.275C6.2707 44.6625 7.72695 45.5937 9.35195 45.8437L9.7207 45.9L9.97695 44.1812L9.6082 44.125C8.46445 43.9562 7.4457 43.3 6.80195 42.325L6.8082 42.3187Z" fill="#B7500B"/>
<path id="Vector_3" d="M40.0203 14.6375L39.4266 14.0938L38.8328 14.6375C38.5016 14.9437 30.7891 22.1688 30.7891 30.075C30.7891 33.125 31.6891 34.7375 33.3203 36.3187C34.9078 37.8625 37.0766 38.7125 39.4203 38.7125C44.1828 38.7125 48.0578 34.8375 48.0578 30.075C48.0578 22.1563 40.3391 14.9375 40.0141 14.6375H40.0203ZM46.3266 30.075C46.3266 33.8813 43.2328 36.975 39.4266 36.975C35.6203 36.975 32.5266 33.8813 32.5266 30.075C32.5266 26.2688 33.5078 24.55 35.5453 21.375C36.9953 19.125 38.5703 17.375 39.4266 16.5C40.2766 17.3812 41.8578 19.125 43.3078 21.375C45.3141 24.4937 46.3266 27.4188 46.3266 30.075Z" fill="#B7500B"/>
<path id="Vector_4" d="M36.6715 31.0375L36.4715 30.7312L35.0215 31.6875L35.2215 31.9937C36.1277 33.3812 37.584 34.3125 39.2152 34.5625L39.584 34.6187L39.8402 32.9L39.4715 32.8437C38.3277 32.675 37.309 32.0187 36.6652 31.0437L36.6715 31.0375Z" fill="#B7500B"/>
<path id="Vector_5" d="M20.3836 0.54375L19.7898 0L19.1961 0.54375C18.8648 0.85 11.1523 8.075 11.1523 15.9812C11.1523 20 12.0273 20.7 13.6836 22.2875C15.2523 23.7938 17.4211 24.6187 19.7836 24.6187C24.5461 24.6187 28.4211 20.7437 28.4211 15.9812C28.4211 11.2188 27.1086 9.13125 24.5211 5.40625C22.5211 2.53125 20.4648 0.61875 20.3773 0.54375H20.3836ZM26.6961 15.9812C26.6961 19.7875 23.6023 22.8813 19.7961 22.8813C15.9898 22.8813 12.8961 19.7875 12.8961 15.9812C12.8961 12.175 13.8773 10.4563 15.9148 7.28125C17.3648 5.03125 18.9398 3.28125 19.7961 2.40625C20.6461 3.2875 22.2273 5.03125 23.6773 7.28125C25.6836 10.4 26.6961 13.325 26.6961 15.9812Z" fill="#B7500B"/>
<path id="Vector_6" d="M17.1328 17.0875L16.8391 16.6375L15.3828 17.5937L15.5828 17.9C16.4953 19.2875 17.9516 20.2187 19.5766 20.4687L19.9453 20.525L20.2016 18.8062L19.8328 18.75C18.7453 18.5875 17.7703 17.9875 17.1266 17.0937L17.1328 17.0875Z" fill="#B7500B"/>
</g>
<defs>
<clipPath id="clip0_1075_5261">
<rect width="47.1312" height="50" fill="white" transform="translate(0.933594)"/>
</clipPath>
</defs>
</svg>
