<svg width="51" height="44" viewBox="0 0 51 44" fill="none" xmlns="http://www.w3.org/2000/svg">
<g id="Graphic Icons" clip-path="url(#clip0_738_20625)">
<path id="Vector" d="M42.8313 21.3498C40.2596 19.3671 37.6347 17.7901 35.0278 16.6623C31.8036 15.268 28.5979 14.5605 25.4999 14.5605C22.4019 14.5605 19.1978 15.2701 15.9726 16.6704C13.3689 17.801 10.7429 19.3829 8.16907 21.3721C3.65555 24.8611 0.846835 28.4001 0.67717 28.616C0.440618 28.9515 0.440618 29.4355 0.67717 29.771C0.798437 29.9249 3.64794 33.5216 8.16689 37.0144C10.7407 39.0036 13.3667 40.5855 15.9709 41.7161C19.1962 43.1164 22.4019 43.826 25.4999 43.826C28.5979 43.826 31.8025 43.1158 35.0272 41.7161C37.6309 40.5855 40.2569 39.0036 42.8307 37.0144C47.3448 33.526 50.1535 29.9864 50.3226 29.771C50.5603 29.4333 50.5592 28.9466 50.3188 28.6111C50.2949 28.5769 47.5471 24.9867 42.8313 21.3498ZM48.2605 29.3975C46.8554 30.981 43.9237 34.0382 40.0731 36.7229C35.0816 40.2033 30.1787 41.9679 25.4999 41.9679C20.8211 41.9679 15.9182 40.2033 10.9267 36.7229C7.07658 34.0382 4.14442 30.981 2.73925 29.3975L2.56088 29.1962L2.73925 28.995C4.14116 27.4131 7.06951 24.3581 10.9256 21.669C15.9176 18.1887 20.8211 16.4241 25.4999 16.4241C30.1787 16.4241 35.0816 18.1887 40.0731 21.669C43.9232 24.3532 46.8554 27.411 48.2605 28.9945L48.4389 29.1957L48.2605 29.3969V29.3975Z" fill="#B7500B"/>
<path id="Vector_2" d="M25.5 21.1448C23.346 21.1448 21.3236 21.9812 19.8042 23.5C18.2854 25.0188 17.4485 27.0418 17.4485 29.1958C17.4485 31.3497 18.2848 33.3727 19.8042 34.8915C21.323 36.4103 23.346 37.2472 25.5 37.2472C27.6539 37.2472 29.6763 36.4109 31.1957 34.8915C32.7145 33.3727 33.5514 31.3497 33.5514 29.1958C33.5514 27.0418 32.7151 25.0194 31.1957 23.5C29.6769 21.9812 27.6539 21.1448 25.5 21.1448ZM25.5 35.3863C23.8272 35.3863 22.2567 34.7365 21.0772 33.557C19.8977 32.3775 19.2485 30.807 19.2485 29.1343C19.2485 27.4616 19.8983 25.8911 21.0778 24.7116C22.2573 23.5321 23.8278 22.8823 25.5005 22.8823C27.1732 22.8823 28.7437 23.5321 29.9232 24.7116C31.1027 25.8911 31.7525 27.4616 31.7525 29.1343C31.7525 32.5814 28.9482 35.3863 25.5005 35.3863H25.5Z" fill="#B7500B"/>
<path id="Vector_3" d="M25.5001 11.2325C26.0548 11.2325 26.3985 10.7664 26.3985 10.3341V1.22062C26.3985 0.788844 26.0548 0.322266 25.5001 0.322266H25.4968C25.2576 0.322266 25.0357 0.41308 24.8698 0.578394C24.6996 0.748059 24.6023 0.981892 24.6023 1.22062V10.3341C24.6023 10.8888 25.0683 11.2325 25.5006 11.2325H25.5001Z" fill="#B7500B"/>
<path id="Vector_4" d="M5.15157 10.0628L10.2714 15.1826C10.4868 15.398 10.7342 15.4747 10.8805 15.4747C11.067 15.4747 11.3449 15.3708 11.4607 15.2158L11.4738 15.1984L11.489 15.1832C11.8153 14.8569 11.8115 14.281 11.4814 13.896L6.36152 8.77616C6.03633 8.45314 5.46752 8.4526 5.14396 8.77616C4.81768 9.10298 4.82149 9.67832 5.15157 10.0633V10.0628Z" fill="#B7500B"/>
<path id="Vector_5" d="M40.1216 15.4105C40.3636 15.4105 40.5806 15.3137 40.7018 15.1516L40.7149 15.1342L40.7301 15.119L45.8581 9.99099C46.1844 9.66471 46.1806 9.08938 45.851 8.70437C45.5231 8.38516 44.9532 8.39168 44.5709 8.71905L39.4511 13.8389C39.1248 14.1652 39.1286 14.7411 39.4587 15.1261C39.6436 15.3093 39.8785 15.4099 40.1216 15.4099V15.4105Z" fill="#B7500B"/>
</g>
<defs>
<clipPath id="clip0_738_20625">
<rect width="50" height="43.5038" fill="white" transform="translate(0.5 0.322266)"/>
</clipPath>
</defs>
</svg>
