<svg width="62" height="54" viewBox="0 0 62 54" fill="none" xmlns="http://www.w3.org/2000/svg">
<g id="Graphic Icons" clip-path="url(#clip0_750_21989)">
<path id="Vector" d="M56.3791 0.572266H56.3705C56.3705 0.572266 56.3691 0.572266 56.3678 0.572266H5.62094C2.79749 0.572266 0.5 2.86975 0.5 5.69321V40.6345C0.5 42.8461 2.29927 44.6454 4.51085 44.6454H41.5772C41.6103 44.6454 41.6426 44.6553 41.6697 44.6738L53.8701 52.9519C54.0201 53.0484 54.1985 53.1032 54.3697 53.1032C54.5144 53.1032 54.6551 53.0669 54.7886 52.9955C55.0806 52.8449 55.2617 52.5449 55.2617 52.2112V44.8106C55.2617 44.7194 55.3357 44.6454 55.4269 44.6454H57.4885C59.7001 44.6454 61.4993 42.8461 61.4993 40.6345V5.69321C61.4993 2.86975 59.2018 0.572266 56.3784 0.572266H56.3791ZM59.7047 40.6345C59.7047 41.8623 58.7056 42.8613 57.4779 42.8613H54.3591C53.8675 42.8613 53.4671 43.2618 53.4671 43.7534V50.213C53.4671 50.2745 53.4334 50.3306 53.3792 50.3591C53.3547 50.3716 53.3283 50.3782 53.3019 50.3782C53.2695 50.3782 53.2371 50.369 53.2094 50.3498L42.3939 43.0126C42.24 42.9129 42.0708 42.8613 41.8944 42.8613H4.51085C3.28315 42.8613 2.28407 41.8623 2.28407 40.6345V5.69321C2.28407 3.85297 3.78071 2.35634 5.62094 2.35634H56.3678C58.2081 2.35634 59.7047 3.85297 59.7047 5.69321V40.6345Z" fill="#B7500B"/>
<path id="Vector_2" d="M53.812 9.60495C53.7994 9.59636 53.7882 9.58645 53.7789 9.57587L52.0675 8.42085C51.568 8.08122 50.9898 7.90546 50.3971 7.90546C50.2035 7.90546 50.0079 7.92396 49.813 7.96228C49.0234 8.1169 48.3395 8.56821 47.8882 9.23294L34.2929 29.3936C34.2044 29.5271 34.1502 29.689 34.1409 29.8495L33.8132 36.0019C33.7954 36.3158 33.9454 36.6158 34.2037 36.7856C34.3603 36.8867 34.5288 36.9382 34.7052 36.9382C34.8354 36.9382 34.9682 36.9098 35.0799 36.8583L40.6614 34.2476C40.8015 34.1775 40.931 34.0665 41.0314 33.9298L54.6234 13.7737C55.5478 12.3967 55.1837 10.5267 53.812 9.60495ZM38.2324 33.4262L35.9382 34.494C35.9158 34.5046 35.892 34.5092 35.8688 34.5092C35.8365 34.5092 35.8041 34.5 35.7763 34.4808C35.7281 34.4485 35.701 34.393 35.7037 34.3348L35.8378 31.8668C35.8279 31.8358 35.8272 31.8014 35.8378 31.7684C35.8589 31.699 35.923 31.6521 35.9957 31.6521H36.0076C36.0525 31.6521 36.0961 31.6713 36.1265 31.7043C36.1285 31.7063 36.1298 31.7076 36.1312 31.7096L38.2549 33.1395C38.3044 33.1725 38.3322 33.23 38.3276 33.2895C38.3229 33.3489 38.2866 33.4011 38.2324 33.4262ZM50.2035 17.172L40.1493 32.0684C40.1176 32.1159 40.0654 32.1411 40.0125 32.1411C39.9808 32.1411 39.9484 32.1318 39.92 32.1126L36.41 29.7445C36.3737 29.72 36.3486 29.6823 36.34 29.6387C36.3314 29.5951 36.3406 29.5509 36.3651 29.5145L46.4193 14.6182C46.4702 14.5422 46.5733 14.5224 46.6486 14.5739L50.1586 16.9421C50.1949 16.9666 50.22 17.0042 50.2286 17.0478C50.2372 17.0914 50.228 17.1357 50.2035 17.172ZM53.1538 12.7846L51.3777 15.4171C51.3533 15.4534 51.3156 15.4785 51.272 15.4871C51.2614 15.4891 51.2508 15.4904 51.2403 15.4904C51.2072 15.4904 51.1755 15.4805 51.1478 15.462L47.6378 13.0938C47.5624 13.0429 47.542 12.9398 47.5935 12.8645L49.3696 10.232C49.5527 9.96044 49.8302 9.77609 50.1507 9.71398C50.4711 9.65186 50.7969 9.7186 51.0685 9.90163L52.8235 11.0857C53.095 11.2688 53.2794 11.5463 53.3415 11.8668C53.4036 12.1872 53.3369 12.513 53.1538 12.7846Z" fill="#B7500B"/>
<path id="Vector_3" d="M7.73539 13.9858H37.3483C37.8399 13.9858 38.2403 13.5854 38.2403 13.0938C38.2403 12.6022 37.8399 12.2018 37.3483 12.2018H7.73539C7.24378 12.2018 6.84335 12.6022 6.84335 13.0938C6.84335 13.5854 7.24378 13.9858 7.73539 13.9858Z" fill="#B7500B"/>
<path id="Vector_4" d="M33.1194 18.5451H7.73539C7.24378 18.5451 6.84335 18.9455 6.84335 19.4372C6.84335 19.9288 7.24378 20.3292 7.73539 20.3292H33.1194C33.611 20.3292 34.0114 19.9288 34.0114 19.4372C34.0114 18.9455 33.611 18.5451 33.1194 18.5451Z" fill="#B7500B"/>
<path id="Vector_5" d="M28.8905 24.8885H7.73539C7.24378 24.8885 6.84335 25.2889 6.84335 25.7805C6.84335 26.2721 7.24378 26.6726 7.73539 26.6726H28.8905C29.3821 26.6726 29.7825 26.2721 29.7825 25.7805C29.7825 25.2889 29.3821 24.8885 28.8905 24.8885Z" fill="#B7500B"/>
<path id="Vector_6" d="M27.8121 31.2318H7.73539C7.24378 31.2318 6.84335 31.6323 6.84335 32.1239C6.84335 32.6155 7.24378 33.0159 7.73539 33.0159H27.8121C28.3037 33.0159 28.7042 32.6155 28.7042 32.1239C28.7042 31.6323 28.3037 31.2318 27.8121 31.2318Z" fill="#B7500B"/>
</g>
<defs>
<clipPath id="clip0_750_21989">
<rect width="61" height="52.531" fill="white" transform="translate(0.5 0.572266)"/>
</clipPath>
</defs>
</svg>
