<svg width="61" height="41" viewBox="0 0 61 41" fill="none" xmlns="http://www.w3.org/2000/svg">
<g id="Graphic Icons" clip-path="url(#clip0_1069_6780)">
<path id="Vector" d="M56.7689 15.9262L56.5589 15.8243C56.5214 13.5348 55.9091 11.207 54.7529 9.2339C53.602 7.26544 51.9492 5.61191 49.9723 4.45336C48.0644 3.33006 45.8753 2.70405 43.6402 2.64275C41.6541 2.58988 39.6634 2.98755 37.8842 3.79363L37.7831 3.83961L37.708 3.75762C35.5242 1.37003 32.4148 0 29.1782 0C25.9417 0 24.6981 0.66969 22.8714 1.85276C21.0577 3.03199 19.6195 4.69702 18.713 6.66931L18.6333 6.84172L18.4816 6.72755C16.4679 5.21347 14.0681 4.41352 11.5395 4.41352H11.5242C8.45464 4.41352 5.56287 5.61114 3.37986 7.78648C1.20069 9.97332 0 12.8712 0 15.9454C0 19.0195 0.954729 21.3964 2.91936 23.6215L3.00977 23.7242L2.91782 23.8261C1.59913 25.2873 0.872742 27.1853 0.872742 29.1713C0.872742 33.5864 4.46485 37.1785 8.8799 37.1785C12.3632 37.1785 12.7325 36.7571 13.4681 35.9181C13.6689 35.6889 13.8972 35.4292 14.2175 35.1411L14.334 35.0369L14.4359 35.1549C15.9139 36.8689 17.7744 38.2735 19.8164 39.2152C21.9151 40.1883 24.2353 40.7032 26.5255 40.7032C30.8456 40.7032 35.0422 38.911 38.039 35.7855L38.124 35.6966L38.229 35.7602C39.7492 36.6828 41.497 37.1708 43.2831 37.1708C47.2139 37.1708 50.852 34.7212 52.3362 31.0754L52.3768 30.9758L52.5262 30.982C52.6902 30.9889 52.8457 30.9958 52.9844 30.9958C54.7031 30.9958 56.3528 30.4456 57.755 29.4043C57.7964 29.3698 57.8354 29.3369 57.873 29.3047C57.958 29.2326 58.0393 29.1652 58.1151 29.1055C58.8745 28.4794 58.9725 28.399 59.3311 27.8611L59.3373 27.8519C60.4238 26.4481 60.9985 24.7663 60.9985 22.9878C60.9985 20.0003 59.3802 17.3054 56.7673 15.927L56.7689 15.9262ZM57.3075 27.2864C56.1474 28.4465 54.6119 29.0863 52.9852 29.0863H52.9392C52.5814 29.0863 52.2481 29.0556 51.9216 28.9913L51.0704 28.8265L50.8259 29.6579C49.8413 32.9619 46.7434 35.2698 43.2923 35.2698C40.4411 35.2698 39.9845 34.8783 39.1554 34.1672C38.9868 34.0224 38.7953 33.8584 38.5639 33.6829L37.8444 33.1351L37.2567 33.8285C34.6093 36.9502 30.7651 38.757 26.688 38.8014V38.8251H26.5347C22.0569 38.8251 17.8081 36.659 15.1699 33.0309L14.4366 32.0133L13.6513 32.9903C12.4889 34.4438 10.7495 35.2775 8.88067 35.2775C5.51766 35.2775 2.78143 32.5413 2.78143 29.1782C2.78143 26.219 3.43503 25.7087 4.51849 24.8628C4.66637 24.7471 4.81962 24.6276 4.98283 24.4935L5.82186 23.8L5.02191 23.053C3.03889 21.2255 1.90103 18.6341 1.90103 15.9454C1.90103 10.6346 6.22183 6.31378 11.5326 6.31378C15.8772 6.31378 16.4725 7.00569 17.5529 8.26155C17.7828 8.52897 18.0433 8.83163 18.369 9.15575L19.49 10.2767L19.9451 8.75271C21.1849 4.65871 24.8896 1.90793 29.1645 1.90793C33.4393 1.90793 35.02 3.37527 36.764 5.61421L37.2521 6.24712L37.957 5.86477C39.5837 4.99279 41.3691 4.55144 43.2632 4.55144C49.5501 4.55144 54.6648 9.66606 54.6648 15.953V17.1139L55.2494 17.343C57.5757 18.2625 59.0783 20.4838 59.0783 23.0024C59.0783 24.6245 58.45 26.1463 57.309 27.2864H57.3075Z" fill="#B7500B"/>
</g>
<defs>
<clipPath id="clip0_1069_6780">
<rect width="61" height="40.7024" fill="white"/>
</clipPath>
</defs>
</svg>
