<svg width="45" height="51" viewBox="0 0 45 51" fill="none" xmlns="http://www.w3.org/2000/svg">
<g id="Graphic Icons">
<g id="Vector">
<path d="M41.0621 30.9216L41.0121 30.911V19.7291L41.0621 19.7185C41.954 19.5316 42.7653 19.0935 43.4084 18.4504C44.289 17.5698 44.7753 16.3985 44.7765 15.1529C44.7765 13.9066 44.2909 12.7348 43.4096 11.8535C42.5284 10.9723 41.3565 10.4873 40.1103 10.4873C38.864 10.4873 37.6921 10.9723 36.8109 11.8535C36.754 11.9104 36.6946 11.9741 36.629 12.0466L36.5953 12.0848L26.9121 6.49414L26.9284 6.44602C27.0846 5.97227 27.1646 5.48102 27.1653 4.98789C27.1653 3.74164 26.6803 2.56977 25.799 1.68852C24.9178 0.807266 23.7459 0.322266 22.4996 0.322266C21.2534 0.322266 20.0815 0.807891 19.2003 1.68852C18.319 2.56977 17.834 3.74164 17.834 4.98789C17.834 5.48102 17.9134 5.97164 18.069 6.44602L18.0853 6.49414L8.40276 12.0841L8.36901 12.046C8.30464 11.9735 8.24526 11.911 8.18839 11.8535C7.30714 10.9723 6.13526 10.4873 4.88901 10.4873C3.64276 10.4873 2.47089 10.9723 1.59026 11.8535C0.709639 12.7348 0.223389 13.9066 0.223389 15.1529C0.223389 16.3991 0.709014 17.571 1.59026 18.4523C2.23339 19.0954 3.04589 19.5341 3.93839 19.7198L3.98839 19.7304V30.9116L3.93839 30.9223C3.04589 31.1085 2.23401 31.5466 1.59026 32.1898C0.709014 33.071 0.223389 34.2429 0.223389 35.4891C0.223389 36.7354 0.709014 37.9073 1.59026 38.7885C2.47151 39.6698 3.64339 40.1548 4.88901 40.1548C6.13464 40.1535 7.30589 39.6673 8.18651 38.7866C8.24339 38.7298 8.30276 38.6666 8.36776 38.5935L8.40151 38.5554L18.0853 44.1491L18.069 44.1973C17.9128 44.6716 17.8334 45.1629 17.8334 45.6566C17.8334 46.9029 18.3184 48.0748 19.1996 48.956C20.0809 49.8373 21.2528 50.3223 22.499 50.3223C23.7446 50.321 24.9159 49.8348 25.7965 48.9541C26.6771 48.0729 27.1634 46.9023 27.1646 45.6566C27.1646 45.1635 27.0853 44.6729 26.9296 44.1991L26.914 44.151L36.5978 38.5604L36.6315 38.5985C36.6953 38.6704 36.754 38.7323 36.8103 38.7885C37.6915 39.6698 38.8634 40.1548 40.1096 40.1548C41.3546 40.1535 42.5259 39.6673 43.4071 38.7866C44.2878 37.906 44.774 36.7348 44.7753 35.4891C44.7753 34.2429 44.2896 33.071 43.4084 32.1898C42.7646 31.5466 41.9528 31.1079 41.0603 30.9223L41.0621 30.9216ZM38.0865 13.126C38.6271 12.5854 39.3459 12.2873 40.1109 12.2873L40.1721 12.2904C40.9134 12.3066 41.6078 12.6029 42.134 13.1285C42.6746 13.6685 42.9728 14.3866 42.974 15.1504C42.974 15.9154 42.6765 16.6341 42.1353 17.1748C41.5946 17.7154 40.8753 18.0135 40.1109 18.0135C39.3465 18.0135 38.6271 17.716 38.0865 17.1748C37.5459 16.6341 37.2478 15.9148 37.2478 15.1504C37.2478 14.386 37.5453 13.6666 38.0865 13.126ZM20.4753 2.96102C21.0165 2.42039 21.7353 2.12227 22.4996 2.12227C23.264 2.12289 23.9828 2.42102 24.5234 2.96164C25.064 3.50227 25.3621 4.22102 25.3628 4.98539C25.3628 5.75039 25.0653 6.46914 24.524 7.00977C23.9834 7.55039 23.264 7.84852 22.4996 7.84852C21.7353 7.84852 21.0159 7.55039 20.4753 7.00977C19.9346 6.46914 19.6365 5.74977 19.6365 4.98539C19.6365 4.22102 19.934 3.50164 20.4753 2.96102ZM2.86464 17.1754C2.32401 16.6348 2.02589 15.9154 2.02589 15.151C2.02589 14.3866 2.32339 13.6673 2.86464 13.1266C3.40526 12.586 4.12401 12.2879 4.88901 12.2879L4.95151 12.291C5.69214 12.3073 6.38589 12.6035 6.91151 13.1291C7.45214 13.6691 7.75026 14.3873 7.75151 15.151C7.75151 15.916 7.45401 16.6348 6.91276 17.1754C6.37214 17.716 5.65276 18.0141 4.88839 18.0141C4.12401 18.0141 3.40464 17.7166 2.86401 17.1754H2.86464ZM7.38776 36.8835L7.37651 36.901C7.37151 36.9091 7.36589 36.9173 7.36151 36.9254C7.35776 36.9316 7.35526 36.9379 7.35214 36.9441L7.34526 36.9585C7.22276 37.1623 7.07839 37.3473 6.91401 37.5116C6.37339 38.0523 5.65401 38.3504 4.88964 38.3504C4.12526 38.3504 3.40589 38.0529 2.86526 37.5116C2.32464 36.971 2.02651 36.2523 2.02651 35.4873C2.02651 34.7223 2.32401 34.0035 2.86526 33.4629C3.39839 32.9298 4.10776 32.6323 4.86214 32.6248H4.87839C4.88214 32.626 4.88589 32.626 4.88964 32.626L4.95214 32.6273C5.69276 32.6441 6.38714 32.9398 6.91214 33.4654C7.45276 34.0054 7.75089 34.7235 7.75214 35.4873C7.75214 35.9741 7.62589 36.4573 7.38776 36.8841V36.8835ZM24.5246 47.6785C23.984 48.2191 23.2646 48.5173 22.5003 48.5173C21.7359 48.5173 21.0165 48.2191 20.4759 47.6785C19.9353 47.1379 19.6371 46.4185 19.6371 45.6541C19.6371 44.8898 19.9346 44.1704 20.4759 43.6298C21.0171 43.0891 21.7359 42.791 22.5003 42.791C23.2646 42.7916 23.9834 43.0898 24.524 43.6304C25.0646 44.171 25.3628 44.8898 25.3634 45.6541C25.3634 46.4191 25.0659 47.1379 24.5246 47.6785ZM35.4453 35.4891C35.4453 35.9829 35.5246 36.4741 35.6809 36.9491L35.6965 36.9973L26.0128 42.5879L25.979 42.5498C25.9146 42.4779 25.8559 42.4148 25.7984 42.3579C24.9171 41.4766 23.7453 40.9916 22.499 40.9916C21.2528 40.9916 20.0809 41.4766 19.1996 42.3579C19.1421 42.4154 19.0834 42.4779 19.0196 42.5491L18.9859 42.5873L9.30151 36.9948L9.31776 36.9466C9.47401 36.4729 9.55339 35.9829 9.55401 35.4898C9.55401 34.2435 9.06901 33.0723 8.18776 32.1904C7.54401 31.5466 6.73214 31.1085 5.83964 30.9229L5.78964 30.9123V19.7304L5.83964 19.7198C6.73151 19.5329 7.54276 19.0948 8.18589 18.4516C9.06651 17.571 9.55276 16.3998 9.55401 15.1541C9.55401 14.661 9.47526 14.171 9.31901 13.6973L9.30276 13.6491L18.9859 8.05914L19.0196 8.09727C19.084 8.16914 19.1428 8.23164 19.1996 8.28852C20.0809 9.16977 21.2528 9.65477 22.499 9.65477C23.7446 9.65352 24.9159 9.16727 25.7965 8.28664C25.8534 8.22977 25.9128 8.16664 25.9778 8.09352L26.0115 8.05539L35.6953 13.646L35.6796 13.6941C35.5234 14.1685 35.444 14.6598 35.444 15.1535C35.444 16.3998 35.929 17.5716 36.8103 18.4529C37.454 19.096 38.2659 19.5348 39.1584 19.7204L39.2084 19.731V30.9123L39.1584 30.9229C38.2659 31.1085 37.454 31.5473 36.8103 32.1904C35.929 33.0716 35.444 34.2435 35.444 35.4898L35.4453 35.4891ZM42.1353 37.511C41.5946 38.0516 40.8753 38.3498 40.1109 38.3498C39.3465 38.3498 38.6271 38.0523 38.0865 37.511C37.5459 36.9704 37.2478 36.2516 37.2478 35.4866C37.2478 34.7216 37.5453 34.0029 38.0865 33.4623C38.6196 32.9291 39.329 32.6316 40.0834 32.6241H40.0996C40.1034 32.6254 40.1071 32.6254 40.1109 32.6254H40.1621C40.9071 32.6398 41.6053 32.9366 42.1334 33.4648C42.674 34.0048 42.9721 34.7229 42.9734 35.4866C42.9734 36.2516 42.6753 36.9704 42.1346 37.511H42.1353Z" fill="#B7500B"/>
<path d="M37.7153 28.0898C38.3084 27.1535 38.3803 25.996 37.9084 24.9929C37.579 24.2935 37.009 23.7354 36.3021 23.4216C35.7496 23.176 35.1396 23.091 34.539 23.1766L34.4934 23.1829L31.7859 17.4348L31.8203 17.4035C32.034 17.2085 32.2196 16.9879 32.3721 16.7473C32.9653 15.811 33.0371 14.6529 32.5646 13.6498C32.2353 12.9504 31.6646 12.3923 30.9584 12.0785C30.2521 11.7641 29.4553 11.7148 28.7159 11.9391C27.9759 12.1635 27.3409 12.6466 26.9271 13.2998C26.8228 13.4648 26.7328 13.641 26.6596 13.8235L26.6421 13.8666L20.3146 13.3373L20.3046 13.2923C20.2521 13.051 20.174 12.8198 20.0728 12.6048C19.7434 11.9054 19.1728 11.3473 18.4665 11.0335C17.7603 10.7198 16.9634 10.6698 16.224 10.8941C15.484 11.1185 14.849 11.601 14.4353 12.2541C14.0215 12.9073 13.8565 13.6879 13.9703 14.4523C14.0521 15.0035 14.2784 15.5273 14.6234 15.9673L14.6521 16.0035L11.029 21.2198L10.9853 21.206C10.3609 21.0073 9.70026 21.0023 9.07526 21.1916C8.33526 21.4154 7.70026 21.8979 7.28651 22.551C6.87276 23.2041 6.70714 23.9841 6.82089 24.7485C6.93464 25.5129 7.31901 26.2123 7.90464 26.7166C8.48964 27.2204 9.23651 27.4979 10.0084 27.4979H10.0109C10.1584 27.4979 10.3096 27.4866 10.4621 27.4648L10.5078 27.4585L13.2128 33.2016L13.1784 33.2329C12.9646 33.4273 12.7778 33.6491 12.6234 33.8929C12.2096 34.546 12.044 35.3266 12.1578 36.0916C12.2715 36.8566 12.6565 37.5554 13.2421 38.0604C13.8271 38.5641 14.574 38.8416 15.3459 38.8416H15.349C16.4571 38.8391 17.4728 38.2785 18.0665 37.3423C18.1709 37.1779 18.2609 37.001 18.3346 36.8166L18.3521 36.7735L18.3984 36.7773L24.6715 37.3023L24.6815 37.3473C24.7709 37.7554 24.9346 38.136 25.1678 38.4779C25.7703 39.3604 26.7665 39.886 27.8346 39.886H27.8421C28.3134 39.8854 28.7871 39.7785 29.2134 39.5773C30.1815 39.1198 30.859 38.2154 31.0246 37.1573C31.1628 36.2773 30.9259 35.3698 30.3753 34.6666L30.3465 34.6304L33.9653 29.4198L34.0096 29.4341C34.3271 29.536 34.6578 29.5873 34.9909 29.5873H34.9965C36.1046 29.5854 37.1203 29.0254 37.7134 28.0891L37.7153 28.0898ZM28.2359 15.0754C28.2671 14.9641 28.2765 14.8498 28.2646 14.7354L28.2634 14.7254L28.2659 14.7154C28.3165 14.4866 28.424 14.2729 28.5765 14.096C28.8453 13.7841 29.2353 13.6048 29.6471 13.6035H29.6515C29.9215 13.6035 30.1846 13.6804 30.4121 13.8248C30.6396 13.9691 30.8209 14.1748 30.9365 14.4185C31.1128 14.7923 31.1171 15.2235 30.949 15.601C30.814 15.9041 30.5753 16.1516 30.2778 16.2979C30.2665 16.3029 30.2578 16.3066 30.249 16.311C30.1859 16.3404 30.1234 16.3641 30.0621 16.3823C29.9278 16.4229 29.789 16.4429 29.6515 16.4429C29.3846 16.4429 29.1209 16.3679 28.8909 16.2216C28.5421 16.0004 28.3078 15.6391 28.2471 15.2304C28.2409 15.1873 28.2365 15.1429 28.234 15.0948V15.0848L28.2365 15.0748L28.2359 15.0754ZM16.0821 13.0504C16.3503 12.7398 16.739 12.5604 17.1496 12.5579H17.1578C17.4271 12.5579 17.6903 12.6348 17.9184 12.7798C18.1459 12.9241 18.3271 13.1291 18.4428 13.3735C18.619 13.7479 18.6234 14.1785 18.4553 14.5566C18.2871 14.9341 17.964 15.2191 17.5678 15.3391C17.4346 15.3791 17.2965 15.3991 17.159 15.3991C16.9178 15.3991 16.6778 15.3385 16.4653 15.2198L16.4534 15.211C16.4221 15.1823 16.3946 15.1598 16.3678 15.1404C16.3346 15.1166 16.2984 15.0948 16.2521 15.0716L16.2403 15.0635C15.9759 14.8398 15.8028 14.5285 15.7521 14.1873C15.6915 13.7785 15.8121 13.3641 16.0821 13.0516V13.0504ZM11.2059 25.0379C11.0709 25.251 10.8803 25.4248 10.6559 25.5404C10.6303 25.551 10.6096 25.561 10.589 25.571C10.5234 25.6004 10.4703 25.621 10.4184 25.6366C10.284 25.6773 10.1459 25.6973 10.0071 25.6973C9.81026 25.6973 9.61339 25.656 9.43026 25.5748C9.11901 25.4366 8.86776 25.191 8.72276 24.8829C8.51464 24.441 8.54651 23.931 8.80776 23.5185C9.05901 23.1216 9.48339 22.8779 9.95089 22.8598L9.99464 22.8585C9.99776 22.8585 10.0015 22.8585 10.0046 22.8585H10.0671V22.8598C10.3853 22.8735 10.6903 22.9941 10.9328 23.2023C11.1909 23.4248 11.3609 23.7323 11.4109 24.0691C11.4609 24.406 11.3884 24.7498 11.2059 25.0379ZM16.6453 36.1948C16.4778 36.5723 16.1546 36.8573 15.7596 36.9766C15.6246 37.0173 15.4859 37.0379 15.3484 37.0379C15.0821 37.0379 14.819 36.9629 14.589 36.8179C14.2403 36.5966 14.0053 36.236 13.944 35.8279C13.8834 35.4198 14.0028 35.006 14.2721 34.6929C14.5415 34.3798 14.9328 34.2004 15.3459 34.1991C15.6165 34.1991 15.8796 34.2754 16.1071 34.4198C16.3353 34.5641 16.5171 34.7698 16.6321 35.0135C16.8084 35.3873 16.8128 35.8179 16.6453 36.1954V36.1948ZM29.1365 37.2416C28.9684 37.6191 28.6446 37.9048 28.249 38.0235C28.1146 38.0641 27.9765 38.0841 27.839 38.0841C27.5721 38.0841 27.3078 38.0085 27.0771 37.8623C26.7278 37.6404 26.4934 37.2785 26.4334 36.8698C26.3734 36.4604 26.494 36.0466 26.7646 35.7341C26.9584 35.5098 27.2153 35.3541 27.4978 35.2841L27.324 35.2404L27.8409 35.2423C28.0053 35.2429 28.1665 35.2716 28.3203 35.3266C28.6721 35.4523 28.9653 35.7185 29.124 36.0579C29.3003 36.4316 29.3046 36.8629 29.1365 37.241V37.2416ZM32.8271 23.981C32.6128 24.1754 32.4259 24.3979 32.2715 24.6423C31.8578 25.2954 31.6928 26.076 31.8065 26.8404C31.8884 27.3923 32.1146 27.916 32.4603 28.356L32.489 28.3923L32.4628 28.4304L28.8721 33.5998L28.8278 33.5854C28.2771 33.4079 27.6884 33.3804 27.1259 33.5073C26.0865 33.7416 25.2309 34.4723 24.8365 35.4629L24.8196 35.506L24.7734 35.5023L18.5046 34.9779L18.4946 34.9329C18.4421 34.6916 18.3646 34.4604 18.2634 34.2454C17.934 33.546 17.3634 32.9879 16.6571 32.6735C16.1034 32.4273 15.4928 32.3429 14.8915 32.4285L14.8459 32.4348L12.1409 26.6916L12.1753 26.6604C12.3915 26.4641 12.579 26.2416 12.7321 25.9998C13.3253 25.0629 13.3971 23.9054 12.9246 22.9023C12.8215 22.6829 12.6921 22.4741 12.5415 22.2829L12.5128 22.2466L16.1328 17.0329L16.1771 17.0473C16.4953 17.1491 16.8253 17.2004 17.159 17.2004H17.164C18.2728 17.1991 19.2884 16.6391 19.8821 15.7023C19.9859 15.5385 20.0759 15.3623 20.1496 15.1779L20.1671 15.1348L26.494 15.6635L26.504 15.7085C26.6521 16.3885 27.024 17.0129 27.5503 17.466C28.1346 17.9685 28.8809 18.2454 29.6515 18.2454H29.6565C29.8021 18.2454 29.9546 18.2341 30.109 18.2116L30.1546 18.2048L30.1746 18.2466L32.8621 23.9491L32.8278 23.9804L32.8271 23.981ZM36.2909 26.9448C36.1234 27.3223 35.8003 27.6073 35.4053 27.7266C35.2696 27.7679 35.1309 27.7879 34.9928 27.7879C34.7653 27.7879 34.5403 27.7329 34.3334 27.6241L34.3184 27.6129C34.2803 27.5748 34.2446 27.5441 34.2084 27.5185C34.1628 27.486 34.1128 27.4573 34.059 27.4329L34.0434 27.4223C33.799 27.2023 33.6384 26.9023 33.5896 26.5773C33.529 26.1685 33.6484 25.7554 33.9178 25.4423C34.1728 25.146 34.5371 24.9691 34.9259 24.9504V24.9491L34.9915 24.9466H34.9959C35.2646 24.9466 35.5271 25.0229 35.754 25.1673C35.9821 25.3123 36.1634 25.5185 36.2784 25.7635C36.454 26.1366 36.459 26.5673 36.2915 26.9448H36.2909Z" fill="#B7500B"/>
<path d="M29.6571 18.3085C29.6571 18.3085 29.6571 18.3085 29.6565 18.3085H29.6571Z" fill="#B7500B"/>
</g>
</g>
</svg>
