<svg width="62" height="53" viewBox="0 0 62 53" fill="none" xmlns="http://www.w3.org/2000/svg">
<g id="Graphic Icons">
<g id="Vector">
<path d="M60.0611 19.3557C59.1397 18.4342 57.9276 17.931 56.6447 17.931H43.1915V5.41342C43.1915 4.13048 42.6812 2.91842 41.7597 1.99697C40.8383 1.07552 39.6191 0.572266 38.3362 0.572266H5.34116C4.05822 0.572266 2.84615 1.08261 1.9247 1.99697C1.00325 2.91842 0.5 4.13048 0.5 5.41342V32.4615C0.5 33.4964 1.08122 34.4178 2.05229 34.9353C3.02336 35.4527 4.11492 35.4243 4.97967 34.8502C5.04346 34.8077 5.10016 34.7652 5.14978 34.7155L10.5367 29.4562C10.6572 29.3428 10.8132 29.2719 10.9833 29.2719H18.8014V41.8036C18.8014 43.0866 19.3118 44.2915 20.2332 45.213C21.1547 46.1273 22.3738 46.6377 23.6568 46.6377H51.0096C51.1727 46.6377 51.3357 46.7015 51.4562 46.822L56.8431 52.0813C56.8927 52.131 56.9495 52.1806 57.0132 52.216C57.878 52.7901 58.9767 52.8185 59.9477 52.3011C60.9188 51.7836 61.4929 50.8551 61.5 49.8202V22.7721C61.5 21.4892 60.9897 20.2771 60.0753 19.3557H60.0611ZM10.2603 26.9754C9.9555 26.9754 9.67197 27.0959 9.45224 27.3014L3.87393 32.7451C3.75343 32.8655 3.5904 32.9293 3.42738 32.9293C3.26435 32.9293 3.25726 32.9152 3.17929 32.8797C2.94539 32.7805 2.78945 32.5466 2.78945 32.2914V5.40633C2.78945 3.95328 3.8881 2.85463 5.34116 2.85463H38.3149C38.3149 2.85463 38.322 2.85463 38.3291 2.85463C39.768 2.85463 40.895 3.97454 40.895 5.40633V17.9239H23.6568C22.3738 17.9239 21.1547 18.4342 20.2332 19.3486C19.3118 20.27 18.8014 21.4821 18.8014 22.765V26.9683H10.2603V26.9754ZM59.1893 49.6572C59.1893 49.9124 59.0334 50.1463 58.7994 50.2455C58.7215 50.281 58.6364 50.2951 58.5514 50.2951C58.3883 50.2951 58.2253 50.2313 58.1048 50.1108L52.5265 44.6672C52.3068 44.4546 52.0232 44.3341 51.7185 44.3341H23.6497C22.1895 44.3341 21.0838 43.2425 21.0838 41.7965V22.765C21.0838 21.3332 22.2108 20.2133 23.6497 20.2133C25.0885 20.2133 23.6568 20.2133 23.6638 20.2133H56.6376C58.0906 20.2133 59.1893 21.312 59.1893 22.765V49.6572Z" fill="#B7500B"/>
<path d="M29.391 30.569C29.391 30.569 29.391 30.569 29.3839 30.569H29.3768C28.9232 30.569 28.4908 30.7462 28.1648 31.0652C27.8387 31.3912 27.6544 31.8236 27.6544 32.2772C27.6544 32.7309 27.8387 33.1774 28.1577 33.5035C28.4766 33.8224 28.9232 34.0067 29.3839 34.0067C29.8446 34.0067 30.277 33.8224 30.596 33.4964C30.922 33.1703 31.0992 32.738 31.0921 32.2772C31.0921 31.8165 30.9149 31.3912 30.5889 31.0652C30.2699 30.7462 29.8376 30.5619 29.3839 30.5619L29.391 30.569Z" fill="#B7500B"/>
<path d="M40.1578 30.569H40.1436C39.69 30.569 39.2505 30.7533 38.9316 31.0652C38.6055 31.3912 38.4212 31.8236 38.4212 32.2772C38.4212 32.7309 38.6055 33.1774 38.9245 33.5035C39.2434 33.8224 39.69 34.0067 40.1436 34.0067H40.1507C40.6043 34.0067 41.0438 33.8224 41.3628 33.4964C41.6888 33.1703 41.866 32.738 41.8589 32.2772C41.8589 31.8165 41.6817 31.3912 41.3557 31.0652C41.0367 30.7462 40.6043 30.5619 40.1507 30.5619L40.1578 30.569Z" fill="#B7500B"/>
<path d="M52.1296 31.0723C51.8106 30.7533 51.3782 30.569 50.9246 30.569H50.9104C50.4568 30.569 50.0244 30.7462 49.6984 31.0652C49.3723 31.3912 49.1951 31.8236 49.188 32.2772C49.188 32.7309 49.3723 33.1774 49.6913 33.5035C50.0102 33.8224 50.4568 34.0067 50.9104 34.0067H50.9175C51.3711 34.0067 51.8106 33.8224 52.1296 33.4964C52.4556 33.1703 52.6328 32.738 52.6257 32.2772C52.6257 31.8165 52.4485 31.3912 52.1225 31.0652L52.1296 31.0723Z" fill="#B7500B"/>
</g>
</g>
</svg>
