<svg width="20" height="20" viewBox="0 0 20 20" fill="none" xmlns="http://www.w3.org/2000/svg">
<g id="Icons" clip-path="url(#clip0_847_5135)">
<path id="Vector (Stroke)" fill-rule="evenodd" clip-rule="evenodd" d="M10.025 4.26025C9.76257 4.26025 9.51087 4.36451 9.32528 4.5501C9.1397 4.73568 9.03544 4.98738 9.03544 5.24984V6.83317C9.03544 7.16109 8.76961 7.42692 8.44169 7.42692C8.11377 7.42692 7.84794 7.16109 7.84794 6.83317V5.24984C7.84794 4.67244 8.07731 4.11869 8.48559 3.71041C8.89388 3.30212 9.44763 3.07275 10.025 3.07275H15.5667C16.1441 3.07275 16.6978 3.30212 17.1061 3.71041C17.5144 4.11869 17.7438 4.67244 17.7438 5.24984V14.7498C17.7438 15.3272 17.5144 15.881 17.1061 16.2893C16.6978 16.6975 16.1441 16.9269 15.5667 16.9269H10.025C9.44763 16.9269 8.89388 16.6975 8.48559 16.2893C8.07731 15.881 7.84794 15.3272 7.84794 14.7498V13.1665C7.84794 12.8386 8.11377 12.5728 8.44169 12.5728C8.76961 12.5728 9.03544 12.8386 9.03544 13.1665V14.7498C9.03544 15.0123 9.1397 15.264 9.32528 15.4496C9.51087 15.6352 9.76257 15.7394 10.025 15.7394H15.5667C15.8291 15.7394 16.0809 15.6352 16.2664 15.4496C16.452 15.264 16.5563 15.0123 16.5563 14.7498V5.24984C16.5563 4.98738 16.452 4.73568 16.2664 4.5501C16.0809 4.36451 15.8291 4.26025 15.5667 4.26025H10.025ZM5.69487 7.20499C5.92674 7.43687 5.92674 7.81281 5.69487 8.04468L4.33346 9.40609H12.4C12.7279 9.40609 12.9938 9.67192 12.9938 9.99984C12.9938 10.3278 12.7279 10.5936 12.4 10.5936H4.33346L5.69487 11.955C5.92674 12.1869 5.92674 12.5628 5.69487 12.7947C5.463 13.0266 5.08705 13.0266 4.85518 12.7947L2.48018 10.4197C2.24831 10.1878 2.24831 9.81187 2.48018 9.57999L4.85518 7.20499C5.08705 6.97312 5.463 6.97312 5.69487 7.20499Z" fill="#43423D"/>
</g>
<defs>
<clipPath id="clip0_847_5135">
<rect width="19" height="19" fill="white" transform="translate(0.525024 0.5)"/>
</clipPath>
</defs>
</svg>
