<svg width="213" height="201" viewBox="0 0 213 201" fill="none" xmlns="http://www.w3.org/2000/svg">
<g id="MBG" clip-path="url(#clip0_931_7013)">
<g id="Vector">
<path d="M43.7487 48.1617L50.5188 59.9138L37.2417 57.1148L35.597 59.3755L48.3718 68.6635L49.8968 66.5703L41.1471 60.2068L52.7436 62.6529L53.7962 61.1996L47.8813 50.9428L56.6311 57.3062L58.1562 55.207L45.3814 45.919L43.7487 48.1617Z" fill="#B7500B"/>
<path d="M67.0076 37.8451C66.0507 36.631 64.9083 35.7698 63.5866 35.2495C62.2649 34.7291 60.9073 34.5856 59.5138 34.8069C58.1203 35.0341 56.8404 35.6083 55.6742 36.5293C54.5199 37.4444 53.6766 38.5508 53.1384 39.8606C52.6001 41.1703 52.4267 42.5279 52.624 43.9334C52.8214 45.3448 53.4015 46.6546 54.3584 47.8627C55.3153 49.0768 56.4636 49.938 57.7973 50.4583C59.131 50.9786 60.4886 51.1282 61.8881 50.9009C63.2816 50.6736 64.5555 50.1055 65.7098 49.1904C66.876 48.2694 67.7253 47.151 68.2635 45.8472C68.8018 44.5374 68.9692 43.1798 68.7599 41.7684C68.5506 40.357 67.9645 39.0472 67.0076 37.8391V37.8451ZM66.0566 45.1355C65.7098 46.0207 65.1296 46.7862 64.3103 47.4321C63.4909 48.084 62.6118 48.4727 61.6728 48.6043C60.7338 48.7359 59.8128 48.6043 58.8978 48.1916C57.9827 47.785 57.1693 47.1211 56.4397 46.2061C55.716 45.291 55.2615 44.3461 55.0761 43.3712C54.8907 42.3964 54.9744 41.4694 55.3273 40.5962C55.6742 39.723 56.2603 38.9575 57.0796 38.3056C57.899 37.6537 58.7781 37.259 59.7111 37.1214C60.6441 36.9838 61.5651 37.1154 62.4742 37.5161C63.3833 37.9168 64.1966 38.5747 64.9203 39.4897C65.644 40.4048 66.0985 41.3497 66.2899 42.3366C66.4753 43.3174 66.3975 44.2504 66.0566 45.1295V45.1355Z" fill="#B7500B"/>
<path d="M76.4391 24.6756L81.2715 35.4109L69.3281 27.8693L66.9657 28.9338L73.4547 43.3593L75.8171 42.2947L70.9787 31.5414L82.9281 39.101L85.2905 38.0364L78.8015 23.611L76.4391 24.6756Z" fill="#B7500B"/>
<path d="M89.9614 34.7949L88.9208 30.0702L94.2496 28.898L93.795 26.8346L88.4663 28.0068L87.4735 23.4795L93.4661 22.1577L93.0116 20.0944L84.4891 21.9723L87.8861 37.4204L96.4086 35.5425L95.9541 33.4792L89.9614 34.7949Z" fill="#B7500B"/>
<path d="M103.801 26.9662L99.9013 19.3349L97.0127 19.4305L102.581 29.3286L102.76 35.0521L105.35 34.9684L105.17 29.2448L110.074 19.0179L107.216 19.1076L103.801 26.9662Z" fill="#B7500B"/>
<path d="M129.404 31.8405C129.021 30.9733 128.435 30.3573 127.652 29.9984C128.513 29.9266 129.26 29.6575 129.882 29.197C130.504 28.7305 130.929 28.0607 131.162 27.1815C131.354 26.4459 131.336 25.7342 131.109 25.0404C130.881 24.3467 130.439 23.7247 129.787 23.1804C129.135 22.6362 128.28 22.2235 127.239 21.9544L121.414 20.4353L117.425 35.7159L123.537 37.3128C124.548 37.5759 125.481 37.6298 126.336 37.4683C127.191 37.3068 127.903 36.9719 128.471 36.4516C129.039 35.9312 129.422 35.2853 129.625 34.5078C129.865 33.5988 129.787 32.7136 129.404 31.8405ZM127.191 33.5868C127 34.3224 126.611 34.8308 126.019 35.1119C125.427 35.399 124.709 35.4289 123.86 35.2076L120.475 34.3224L121.719 29.5499L125.02 30.4111C125.869 30.6324 126.497 31.0331 126.892 31.6072C127.293 32.1814 127.395 32.8392 127.197 33.5868H127.191ZM125.349 28.3119L122.251 27.5045L123.393 23.1266L126.491 23.934C127.311 24.1493 127.903 24.5081 128.262 25.0165C128.621 25.5249 128.71 26.1229 128.531 26.8107C128.345 27.5164 127.975 27.9949 127.418 28.2461C126.856 28.4973 126.168 28.5212 125.349 28.3059V28.3119Z" fill="#B7500B"/>
<path d="M129.619 38.8977L132.024 40.1357L134.512 37.7853L140.397 40.8055L139.93 44.1966L142.352 45.4405L144.547 28.7843L141.88 27.4148L129.619 38.8977ZM140.713 38.5927L136.126 36.2363L141.784 30.8895L140.713 38.5927Z" fill="#B7500B"/>
<path d="M155.306 50.3806C154.451 50.7394 153.614 50.8351 152.794 50.6676C151.975 50.5002 151.21 50.0995 150.486 49.4775C149.696 48.7897 149.152 48.0003 148.847 47.1032C148.542 46.2061 148.506 45.2731 148.734 44.3102C148.961 43.3413 149.457 42.4203 150.223 41.5411C150.988 40.662 151.832 40.04 152.759 39.6811C153.686 39.3223 154.607 39.2326 155.534 39.412C156.461 39.5974 157.316 40.028 158.105 40.7158C158.823 41.3438 159.325 42.0495 159.606 42.833C159.888 43.6164 159.906 44.4597 159.672 45.3568L162.023 47.4022C162.573 45.8711 162.621 44.364 162.172 42.8808C161.724 41.3976 160.868 40.1058 159.6 38.9993C158.494 38.0364 157.244 37.4085 155.863 37.1154C154.481 36.8224 153.111 36.9061 151.766 37.3606C150.42 37.8152 149.236 38.6226 148.225 39.7888C147.209 40.955 146.575 42.2349 146.311 43.6344C146.048 45.0338 146.156 46.3974 146.628 47.7192C147.101 49.0469 147.896 50.1952 149.021 51.17C150.289 52.2705 151.688 52.9463 153.213 53.1915C154.738 53.4307 156.221 53.1795 157.663 52.42L155.312 50.3746L155.306 50.3806Z" fill="#B7500B"/>
<path d="M173.87 55.4941L164.439 54.7345L170.282 50.5181L168.763 48.4189L155.958 57.665L157.477 59.7643L163.207 55.6256L161.054 64.7223L163.033 67.4674L165.348 57.1926L175.778 58.1315L173.87 55.4941Z" fill="#B7500B"/>
<path d="M46.8826 154.133C47.8096 155.156 48.8741 155.88 50.0882 156.304C51.3023 156.729 52.5283 156.855 53.7604 156.687C54.9924 156.52 56.1287 156.083 57.1454 155.383L58.6466 154.026L52.8034 147.573L51.2724 148.96L55.2555 153.356C54.1252 154.116 52.9709 154.432 51.7987 154.313C50.6265 154.187 49.5679 153.607 48.617 152.561C47.9172 151.783 47.4627 150.94 47.2653 150.013C47.068 149.086 47.1338 148.165 47.4687 147.238C47.8036 146.311 48.3957 145.467 49.233 144.702C50.0703 143.936 50.9734 143.44 51.9243 143.201C52.8752 142.962 53.7962 142.991 54.6933 143.284C55.5904 143.578 56.3919 144.11 57.0916 144.881C57.7315 145.587 58.1502 146.347 58.3356 147.154C58.527 147.961 58.4672 148.781 58.1562 149.618L60.2494 151.927C60.9731 150.473 61.2063 148.984 60.9372 147.453C60.668 145.922 59.9743 144.54 58.8439 143.296C57.8571 142.208 56.6969 141.436 55.3572 140.982C54.0175 140.527 52.6539 140.45 51.2604 140.737C49.8669 141.03 48.599 141.688 47.4507 142.728C46.3024 143.763 45.519 144.965 45.0943 146.323C44.6697 147.68 44.6099 149.044 44.9209 150.419C45.2319 151.789 45.8898 153.027 46.8826 154.127V154.133Z" fill="#B7500B"/>
<path d="M58.7781 161.789C58.7363 162.835 58.9815 163.798 59.5078 164.683C60.0401 165.569 60.7757 166.322 61.7206 166.956C62.6656 167.59 63.6524 167.979 64.6751 168.134C65.6978 168.29 66.6966 168.152 67.6595 167.722C68.6224 167.291 69.4596 166.537 70.1773 165.467L75.7394 157.13L73.5863 155.688L68.0004 164.061C67.3365 165.06 66.571 165.634 65.7157 165.79C64.8545 165.945 63.9514 165.706 63.0065 165.078C62.0735 164.456 61.5113 163.72 61.3259 162.865C61.1405 162.01 61.3797 161.089 62.0436 160.09L67.6355 151.717L65.4825 150.282L59.9205 158.619C59.2028 159.689 58.826 160.748 58.7841 161.795L58.7781 161.789Z" fill="#B7500B"/>
<path d="M74.3638 173.798L76.5468 171.16L82.7547 173.445L82.7069 176.866L85.2666 177.811L85.4221 161.011L82.6052 159.977L71.828 172.865L74.3638 173.798ZM82.9222 163.439L82.7966 171.214L77.9582 169.432L82.9281 163.439H82.9222Z" fill="#B7500B"/>
<path d="M93.9326 172.967L95.8943 173.218L98.7052 179.946L101.773 180.335L98.7231 173.349C99.991 173.206 100.978 172.751 101.678 171.998C102.377 171.244 102.79 170.347 102.922 169.324C103.029 168.451 102.922 167.638 102.605 166.878C102.288 166.119 101.731 165.479 100.948 164.947C100.17 164.42 99.1777 164.079 97.9755 163.93L92.563 163.242L90.5715 178.911L93.1432 179.24L93.9386 172.973L93.9326 172.967ZM94.8596 165.664L97.7004 166.023C98.6753 166.149 99.375 166.472 99.7996 166.986C100.224 167.506 100.38 168.17 100.278 168.983C100.176 169.797 99.8475 170.413 99.2973 170.832C98.747 171.25 97.9935 171.4 97.0306 171.274L94.1898 170.915L94.8596 165.664Z" fill="#B7500B"/>
<path d="M110.308 176.974L116.892 176.34L118.334 179.444L121.049 179.181L113.896 163.978L110.912 164.265L106.797 180.556L109.488 180.299L110.308 176.98V176.974ZM112.7 167.243L115.959 174.3L110.822 174.797L112.694 167.243H112.7Z" fill="#B7500B"/>
<path d="M128.944 177.039L125.038 165.909L136.3 174.456L138.746 173.601L133.507 158.673L131.061 159.534L134.96 170.64L123.704 162.112L121.264 162.973L126.497 177.895L128.944 177.039Z" fill="#B7500B"/>
<path d="M139.954 157.309L147.173 168.936L149.374 167.566L142.155 155.946L145.731 153.727L144.613 151.933L135.253 157.746L136.366 159.54L139.954 157.309Z" fill="#B7500B"/>
<path d="M163.309 156.358L161.885 154.797L157.352 158.93L154.092 155.354L158.123 151.681L156.694 150.12L152.669 153.793L149.541 150.372L154.074 146.233L152.651 144.672L146.204 150.557L156.861 162.237L163.309 156.358Z" fill="#B7500B"/>
<path d="M172.303 145.402L170.629 144.11L166.891 148.978L163.051 146.036L166.371 141.706L164.696 140.42L161.377 144.744L157.699 141.921L161.431 137.053L159.756 135.767L154.445 142.692L166.993 152.321L172.303 145.402Z" fill="#B7500B"/>
<path d="M40.7225 111.569C39.024 111.569 37.6783 111.174 36.6795 110.385C35.6808 109.595 35.0289 108.447 34.7238 106.928H29.9513C30.1606 109.506 31.1474 111.641 32.9057 113.339C34.664 115.038 37.164 115.887 40.4055 115.887C43.2523 115.887 45.4831 115.253 47.0859 113.979C48.6947 112.705 49.8191 110.827 50.471 108.345C50.9136 106.671 51.2006 104.655 51.3442 102.329C51.4099 101.21 51.4518 100.026 51.4518 98.7523C51.4518 98.1064 51.4398 97.4784 51.4159 96.8684C51.2425 92.1437 50.3813 88.5672 48.8383 86.1391C47.0979 83.3999 44.1614 82.0244 40.0407 82.0244C36.6137 82.0244 33.9284 83.0172 31.9727 85.0027C30.017 86.9883 29.0422 89.6438 29.0422 92.981C29.0422 95.2536 29.5027 97.1854 30.4297 98.7763C31.3507 100.367 32.6186 101.563 34.2274 102.365C35.8362 103.166 37.6185 103.567 39.5921 103.567C41.1351 103.567 42.5705 103.286 43.8862 102.724C45.202 102.161 46.2247 101.366 46.9543 100.337C46.9543 104.428 46.452 107.323 45.4532 109.021C44.4544 110.72 42.8755 111.569 40.7284 111.569H40.7225ZM44.7893 97.5024C43.7427 98.6387 42.3133 99.2069 40.4952 99.2069C38.3123 99.2069 36.6855 98.6088 35.609 97.4127C34.5325 96.2165 33.9942 94.6915 33.9942 92.8434C33.9942 90.9057 34.5444 89.3387 35.6508 88.1366C36.7573 86.9405 38.2644 86.3424 40.1722 86.3424C42.0801 86.3424 43.5872 86.9285 44.6936 88.0948C45.8001 89.261 46.3503 90.8877 46.3503 92.981C46.3503 94.8589 45.83 96.3661 44.7833 97.5024H44.7893Z" fill="#B7500B"/>
<path d="M68.9513 115.839C73.2873 115.839 76.3374 114.344 78.1077 111.36C79.878 108.375 80.7691 104.231 80.7691 98.9258C80.7691 93.6209 79.884 89.5839 78.1077 86.6295C76.3374 83.675 73.2813 82.1978 68.9513 82.1978C64.6213 82.1978 61.5652 83.675 59.7949 86.6295C58.0246 89.5839 57.1335 93.6807 57.1335 98.9258C57.1335 104.171 58.0186 108.375 59.7949 111.36C61.5652 114.344 64.6213 115.839 68.9513 115.839ZM62.7015 92.7059C63.0184 91.0073 63.6644 89.6198 64.6332 88.5493C65.6021 87.4728 67.0435 86.9345 68.9513 86.9345C70.8591 86.9345 72.3005 87.4728 73.2693 88.5493C74.2382 89.6258 74.8841 91.0133 75.2011 92.7059C75.5181 94.4044 75.6796 96.4797 75.6796 98.9318C75.6796 101.384 75.53 103.615 75.225 105.343C74.92 107.071 74.2801 108.465 73.2933 109.524C72.3065 110.582 70.8591 111.114 68.9513 111.114C67.0435 111.114 65.5961 110.582 64.6093 109.524C63.6225 108.465 62.9826 107.071 62.6776 105.343C62.3725 103.615 62.223 101.48 62.223 98.9318C62.223 96.384 62.3845 94.4044 62.7015 92.7059Z" fill="#B7500B"/>
<path d="M123.788 108.614C125.164 106.252 125.857 103.465 125.857 100.253C125.857 97.0419 125.17 94.2309 123.788 91.8207C122.407 89.4105 120.457 87.5625 117.927 86.2766C115.397 84.9908 112.449 84.3449 109.088 84.3449H98.771V115.935H109.088C112.449 115.935 115.397 115.307 117.927 114.051C120.457 112.795 122.413 110.983 123.788 108.62V108.614ZM109.088 111.706H103.95V88.5732H109.088C112.784 88.5732 115.619 89.6019 117.586 91.6652C119.554 93.7286 120.541 96.5873 120.541 100.253C120.541 103.92 119.554 106.707 117.586 108.71C115.619 110.708 112.784 111.712 109.088 111.712V111.706Z" fill="#B7500B"/>
<path d="M150.037 109.476L152.31 115.929H157.764L157.615 115.504L146.443 84.291H140.444L129.129 115.929H134.535L136.808 109.476H150.037ZM143.447 90.5708L148.584 105.253H138.267L143.447 90.5708Z" fill="#B7500B"/>
<path d="M175.629 115.929V104.476L186.083 84.3389H180.353L173.039 99.8408L165.719 84.3389H159.947L170.443 104.476V115.929H175.629Z" fill="#B7500B"/>
<path d="M201.824 71.1515C189.336 30.1539 151.234 0.322266 106.151 0.322266C61.0688 0.322266 22.9658 30.1539 10.4841 71.1515H0V73.5438H212.308V71.1515H201.824ZM106.151 4.50874C131.742 4.50874 155.803 14.4726 173.9 32.5701C184.893 43.5626 192.877 56.75 197.458 71.1455H193.475C181.28 34.6095 146.796 8.27059 106.151 8.27059C65.5064 8.27059 31.0278 34.6095 18.8272 71.1515H14.8441C19.4253 56.756 27.4095 43.5626 38.402 32.5761C56.4995 14.4726 80.5598 4.50874 106.151 4.50874ZM62.5759 71.1515C72.0014 57.1208 88.0177 47.8687 106.151 47.8687C124.285 47.8687 140.301 57.1208 149.726 71.1515H62.5759ZM106.151 45.4704C86.5823 45.4704 69.4058 55.7213 59.6992 71.1455H21.3331C25.705 58.4067 32.9536 46.7264 42.7559 36.924C59.6872 19.9927 82.2045 10.6629 106.151 10.6629C130.098 10.6629 152.615 19.9867 169.546 36.924C179.349 46.7264 186.597 58.4067 190.969 71.1455H152.603C142.896 55.7213 125.72 45.4704 106.151 45.4704Z" fill="#B7500B"/>
<path d="M0 127.161V129.553H10.5021C23.0077 170.521 61.0987 200.322 106.157 200.322C151.216 200.322 189.307 170.521 201.812 129.553H212.314V127.161H0ZM38.402 168.074C27.4274 157.1 19.4492 143.93 14.862 129.559H18.8451C31.0637 166.065 65.5363 192.374 106.151 192.374C146.766 192.374 181.239 166.065 193.457 129.559H197.44C192.853 143.93 184.875 157.1 173.9 168.074C155.803 186.172 131.742 196.136 106.151 196.136C80.5598 196.136 56.4995 186.172 38.402 168.074ZM149.69 129.553C140.259 143.554 124.267 152.776 106.157 152.776C88.0476 152.776 72.0493 143.548 62.6237 129.553H149.696H149.69ZM106.151 155.168C125.696 155.168 142.849 144.941 152.567 129.553H190.951C186.579 142.274 179.337 153.93 169.546 163.715C152.615 180.646 130.098 189.976 106.151 189.976C82.2045 189.976 59.6872 180.652 42.7559 163.715C32.9655 153.924 25.7289 142.268 21.351 129.553H59.7351C69.4477 144.941 86.6063 155.168 106.151 155.168Z" fill="#B7500B"/>
</g>
</g>
<defs>
<clipPath id="clip0_931_7013">
<rect width="212.308" height="200" fill="white" transform="translate(0 0.322266)"/>
</clipPath>
</defs>
</svg>
