<svg width="51" height="51" viewBox="0 0 51 51" fill="none" xmlns="http://www.w3.org/2000/svg">
<g id="Graphic Icons">
<g id="Vector">
<path d="M25.5003 13.9273C19.2897 13.9273 14.2372 18.9798 14.2372 25.1904C14.2372 31.401 19.2897 36.4623 25.5003 36.4623C31.711 36.4623 36.7635 31.4098 36.7635 25.1991C36.7635 18.9885 31.711 13.9273 25.5003 13.9273ZM25.5003 34.111C20.5866 34.111 16.5885 30.1129 16.5885 25.1991C16.5885 20.2854 20.5866 16.2873 25.5003 16.2873C30.4141 16.2873 34.4122 20.2854 34.4122 25.1991C34.4122 30.1129 30.4141 34.111 25.5003 34.111Z" fill="#B7500B"/>
<path d="M25.5003 9.96164C26.1485 9.96164 26.676 9.43414 26.676 8.78602V1.49789C26.676 0.849766 26.1485 0.322266 25.5003 0.322266C24.8522 0.322266 24.3247 0.849766 24.3247 1.49789V8.78602C24.3247 9.43414 24.8522 9.96164 25.5003 9.96164Z" fill="#B7500B"/>
<path d="M25.5003 40.6829C24.8522 40.6829 24.3247 41.2104 24.3247 41.8585V49.1466C24.3247 49.7948 24.8522 50.3223 25.5003 50.3223C26.1485 50.3223 26.676 49.7948 26.676 49.1466V41.8585C26.676 41.2104 26.1485 40.6829 25.5003 40.6829Z" fill="#B7500B"/>
<path d="M10.5522 25.7348C10.5522 25.0866 10.0247 24.5591 9.37659 24.5591H2.08847C1.44034 24.5591 0.912842 25.0866 0.912842 25.7348C0.912842 26.3829 1.44034 26.9104 2.08847 26.9104H9.37659C10.0247 26.9104 10.5522 26.3829 10.5522 25.7348Z" fill="#B7500B"/>
<path d="M48.9116 24.5598H41.6235C40.9753 24.5598 40.4478 25.0873 40.4478 25.7354C40.4478 26.3835 40.9753 26.911 41.6235 26.911H48.9116C49.5597 26.911 50.0872 26.3835 50.0872 25.7354C50.0872 25.0873 49.5597 24.5598 48.9116 24.5598Z" fill="#B7500B"/>
<path d="M37.7191 14.6854C38.026 14.6854 38.3303 14.5585 38.5547 14.3366L43.7035 9.18789C43.926 8.96539 44.0485 8.66914 44.0478 8.35414C44.0478 8.04039 43.9253 7.74664 43.7041 7.52664C43.4816 7.30414 43.1853 7.18164 42.871 7.18164C42.556 7.18164 42.2622 7.30414 42.0416 7.52539L36.891 12.676C36.6685 12.8985 36.546 13.1948 36.5466 13.5098C36.5466 13.8235 36.6691 14.1173 36.8903 14.3373C37.1153 14.5623 37.4097 14.686 37.7191 14.686V14.6854Z" fill="#B7500B"/>
<path d="M14.0991 35.9654C13.786 35.9654 13.4922 36.0866 13.2722 36.3066L8.12222 41.4566C7.89972 41.6791 7.77722 41.9754 7.77784 42.2904C7.77784 42.6041 7.90034 42.8979 8.12159 43.1179C8.34659 43.3429 8.64034 43.4666 8.95034 43.4666C9.26034 43.4666 9.55409 43.3429 9.77847 43.1191L14.9285 37.9691C15.151 37.7466 15.2735 37.4504 15.2728 37.1354C15.2728 36.8216 15.1503 36.5279 14.9291 36.3079C14.7072 36.0873 14.4128 35.966 14.0991 35.966V35.9654Z" fill="#B7500B"/>
<path d="M12.4391 14.3366C12.6716 14.5616 12.9678 14.6854 13.2747 14.6854C13.5816 14.6854 13.8785 14.5616 14.1028 14.3379C14.3253 14.1154 14.4478 13.8191 14.4472 13.5041C14.4472 13.1904 14.3247 12.8966 14.1035 12.6766L8.95284 7.52602C8.73097 7.30414 8.43534 7.18164 8.12034 7.18164C7.80534 7.18164 7.51159 7.30414 7.29097 7.52539C7.06784 7.74852 6.94534 8.04477 6.94597 8.35977C6.94597 8.67352 7.06847 8.96727 7.28972 9.18727L12.4397 14.3373L12.4391 14.3366Z" fill="#B7500B"/>
<path d="M37.7278 36.3066C37.506 36.0848 37.2103 35.9623 36.8953 35.9623C36.5803 35.9623 36.2866 36.0848 36.066 36.306C35.8428 36.5291 35.7203 36.8254 35.721 37.1404C35.721 37.4541 35.8435 37.7479 36.0647 37.9679L41.2153 43.1185C41.4397 43.3429 41.7335 43.466 42.0435 43.466C42.3535 43.466 42.6472 43.3423 42.8716 43.1185C43.096 42.8948 43.2166 42.5998 43.216 42.2848C43.216 41.971 43.0935 41.6773 42.8722 41.4573L37.7278 36.3066Z" fill="#B7500B"/>
</g>
</g>
</svg>
