<svg width="146" height="57" viewBox="0 0 146 57" fill="none" xmlns="http://www.w3.org/2000/svg">
<g id="neHPyO">
<path id="Vector" d="M33.8977 3.8237C33.7285 3.11163 33.3442 2.51375 32.8721 1.98229C32.4272 1.48198 31.857 1.10207 31.1552 1.13321C29.2483 1.21625 27.5857 1.95323 26.1529 3.17599C23.5379 5.40353 21.7353 8.22274 20.3025 11.2952C19.3292 13.3837 18.6859 15.5842 18.1449 17.8138C17.6248 19.9625 17.276 22.1423 17.0003 24.3345C16.8458 25.5532 16.6954 26.7738 16.6828 27.9966C16.6724 29.1363 16.5889 30.274 16.639 31.4199C16.7121 33.1056 16.639 34.7955 16.8165 36.4812C17.0233 38.4347 17.2635 40.3799 17.6729 42.3023C17.7752 42.7798 17.9924 43.2199 18.0572 43.716C18.1073 44.096 18.0384 44.3388 17.7397 44.561C16.9606 45.1443 16.0959 45.5907 15.1581 45.792C12.6141 46.338 10.256 45.9457 8.21956 44.2184C6.83687 43.0455 5.51056 41.8207 4.61243 40.2242C3.96286 39.072 3.52842 37.8659 3.53677 36.4999C3.5493 34.262 3.62658 32.0282 3.73519 29.7944C3.75608 29.3854 3.72684 28.9723 3.7707 28.5675C4.0297 26.1261 4.03387 23.6702 4.24274 21.2268C4.37015 19.7341 4.47249 18.2394 4.62079 16.7489C4.79415 15.0133 5.04479 13.2861 5.18682 11.5485C5.35391 9.51193 5.60455 7.48368 5.76747 5.44505C5.88443 3.99393 5.83639 2.56149 5.71943 1.12283C5.69645 0.848797 5.59829 0.67649 5.31632 0.58307C4.83592 0.423218 4.67718 0.466814 4.40983 0.977509C3.58063 2.55734 3.01043 4.23682 2.50497 5.94122C2.10812 7.28231 1.92641 8.67323 1.5776 10.0579C1.24968 9.66763 0.888339 9.40605 0.414212 9.58667C-0.0870687 9.77558 0.0236307 10.251 0.0194534 10.6496C-0.0390293 14.3884 0.0549608 18.1252 0.2137 21.86C0.224143 22.1049 0.255473 22.3478 0.282626 22.5928C0.357818 23.2965 0.470606 23.9982 0.504024 24.7041C0.579216 26.3379 0.861187 27.953 0.928024 29.5889C0.990684 31.1106 1.21208 32.6261 1.36247 34.1436C1.54627 35.9871 1.70083 37.8347 1.92014 39.6741C2.21047 42.1113 2.37756 44.5547 2.48826 47.0044C2.51332 47.5504 2.4799 48.1005 2.54465 48.6403C2.69504 49.8651 2.71592 51.0858 2.5551 52.3086C2.53421 52.4664 2.54048 52.6408 2.58852 52.7923C2.7389 53.2822 3.13783 53.3757 3.53468 53.0539C3.90229 52.7549 3.92944 52.3646 3.90646 51.9432C3.79159 49.9856 3.67253 48.0258 3.57228 46.0661C3.50335 44.7333 3.61405 43.3943 3.43651 42.0615C3.37803 41.6234 3.36759 41.1563 3.49082 40.6809C3.59525 40.7494 3.65582 40.7681 3.6788 40.8076C4.58319 42.4165 5.95754 43.6164 7.35277 44.7499C9.18871 46.2425 11.3588 46.9546 13.7566 46.9297C14.8406 46.9172 15.8871 46.8155 16.8332 46.2197C17.1779 46.0017 17.5559 45.8273 17.934 45.6716C18.571 45.4101 18.6462 45.4308 18.9344 46.0661C19.4462 47.1954 21.6393 50.982 23.3311 52.7529C23.9368 53.3881 24.7368 54.1458 24.7368 54.1458C25.2339 54.6171 25.6599 55.0012 25.967 55.2731L26.98 56.2011C27.0552 56.2592 27.5356 56.6163 27.7444 56.4668C27.8113 56.4191 27.8259 56.3381 27.8322 56.309C27.9178 55.8523 26.744 54.8413 26.0171 54.1791C25.4782 53.6891 24.6156 52.8733 23.8637 51.9993C23.5379 51.6194 23.2705 51.2727 23.2287 51.2166C22.9342 50.8326 22.6711 50.4547 22.3954 50.0395C21.3051 48.3891 21.3698 48.5531 20.0226 45.9374C19.8138 45.5305 19.6446 45.19 19.5318 44.9596C19.7198 44.7354 20.0101 44.3866 20.361 43.961C23.7238 39.8734 25.4051 37.8306 26.9069 35.2688C28.1914 33.0786 28.9851 31.1293 30.1005 28.5488C31.1114 26.2071 32.3395 22.9582 33.2502 18.5653C33.4173 17.764 34.0689 14.5192 34.2256 10.853C34.2444 10.4274 34.2506 9.98318 34.2632 9.09673C34.3133 5.67134 34.1253 4.76828 33.9018 3.82785L33.8977 3.8237ZM3.29449 21.6607C3.21929 23.8072 3.01251 25.9497 2.86213 28.0942C2.85586 28.1751 2.84333 28.2582 2.84542 28.3391C2.88928 29.8941 2.62193 31.4365 2.63238 32.9935C2.32117 31.258 2.17496 29.5038 2.09768 27.7433C2.00369 25.6507 1.85957 23.5581 1.79273 21.4634C1.7614 20.5189 1.91388 19.566 1.8909 18.6214C1.85957 17.3426 1.91596 16.0555 2.02249 14.7995C2.12274 13.6183 2.24806 12.8169 2.50706 11.2537C2.75979 9.73614 2.97701 8.42411 3.41981 6.73217C3.68298 5.72531 4.08191 4.36969 4.68554 2.78778C4.90903 3.04728 4.932 3.2009 4.92365 3.37113C4.82548 5.46374 4.68136 7.55427 4.45787 9.63857C4.26572 11.4509 3.98166 13.257 3.86678 15.0756C3.72684 17.2762 3.37177 19.456 3.29657 21.6627L3.29449 21.6607ZM33.2731 14.0023C32.7008 16.9419 32.2998 18.3806 31.9218 20.0538C31.197 23.2613 30.1046 25.7774 28.5611 29.6948C28.0139 31.0857 27.7967 31.5735 27.6358 31.9265C27.3434 32.5659 26.2991 34.428 24.8642 36.8486C23.6486 38.9018 22.2408 40.4318 19.8284 42.9645C19.5443 43.2614 19.3062 43.5064 19.1391 43.6745C19.0702 43.4192 18.9783 43.0704 18.8801 42.6552C18.7945 42.2981 18.5543 41.2539 18.3329 39.7675C18.0781 38.0506 17.9632 36.7054 17.9214 35.5408C17.8629 33.88 17.7042 32.2254 17.7502 30.5563C17.8379 27.3904 18.1407 24.2494 18.6337 21.123C18.9574 19.0719 19.4608 17.0644 20.0435 15.0735C20.5594 13.3152 21.3113 11.6606 22.1197 10.0143C22.9238 8.38051 23.9598 6.92524 25.0835 5.51564C26.1758 4.14548 27.5314 3.06389 29.1668 2.43693C30.2091 2.03834 31.3537 1.86811 32.3917 2.61547C33.1332 3.149 33.3525 4.01884 33.4737 4.58559C34.3091 8.50092 33.5092 12.7858 33.2731 13.9961V14.0023Z" fill="#43423D"/>
<path id="Vector_2" d="M45.0068 43.5956C45.4684 42.8939 45.9154 42.184 46.3457 41.4657C47.484 39.5682 48.5743 37.6417 49.698 35.7359C49.9089 35.3788 50.0677 35.0072 50.2327 34.6315C50.4102 34.2308 50.7151 34.1 51.0765 34.2433C51.3877 34.3678 51.5297 34.6813 51.4023 35.0591C51.2624 35.4723 51.0828 35.8708 50.924 36.2777C50.3831 37.6707 50.1366 39.1094 50.2201 40.6041C50.2389 40.9363 50.2974 41.256 50.4206 41.5612C50.7131 42.2711 51.1955 42.4497 51.8597 42.02C52.338 41.7106 52.7704 41.3183 53.1881 40.9259C54.1468 40.027 55.164 39.1862 56.1791 38.362C57.4428 37.3365 58.7461 36.3172 60.2917 35.6861C60.8034 35.4764 61.2295 35.4681 61.6765 35.794C62.113 36.1137 62.1861 36.5103 62.0942 37.021C61.9417 37.8472 61.5595 38.5634 61.1334 39.2672C60.9037 39.6471 60.7178 40.0332 60.747 40.4941C60.7784 41.0027 60.8535 41.0774 61.336 40.9487C61.5992 40.8782 61.854 40.7744 62.1088 40.6726C63.2033 40.2367 64.2915 39.7966 65.4611 39.5744C67.4287 39.2028 69.1393 39.7613 70.7079 40.9155C71.7021 41.6463 72.289 42.6448 72.6253 43.797C72.9887 45.0364 72.7381 46.1844 71.9444 47.1913C71.5392 47.704 71.0609 48.1607 70.6035 48.632C70.4948 48.7441 70.3319 48.8687 70.1815 48.6922C70.075 48.5656 70.169 48.4369 70.263 48.3331C70.8248 47.7186 71.2092 47.0044 71.4974 46.2259C72.1386 44.4987 71.4347 42.5576 69.8954 41.4594C68.7445 40.6373 67.4433 40.2325 66.0355 40.2803C65.1792 40.3093 64.3813 40.6602 63.6001 40.9903C62.8691 41.2996 62.1464 41.6276 61.3757 41.8331C61.1919 41.8829 61.0123 41.9597 60.8243 41.9847C59.7257 42.1217 59.2578 41.5591 59.6379 40.5169C59.9178 39.7488 60.2562 38.9994 60.5695 38.2437C60.6113 38.142 60.6509 38.0403 60.6844 37.9365C60.7992 37.5773 61.0666 37.1351 60.7867 36.8569C60.4964 36.5705 60.1371 36.9774 59.8301 37.1081C58.3952 37.7226 57.2757 38.7918 56.0956 39.7654C55.1243 40.5668 54.197 41.4179 53.2487 42.2462C52.5365 42.8711 51.7094 43.1638 50.7569 43.1368C50.2348 43.1223 49.888 42.9043 49.6583 42.431C49.1361 41.3556 49.0881 40.2263 49.2238 39.072C49.2468 38.8852 49.322 38.7025 49.2405 38.3994C49.0881 38.607 48.8479 38.9496 48.5931 39.398C48.3194 39.8775 48.1565 40.2491 48.0855 40.4111C47.4631 41.804 47.0892 41.9639 46.1368 43.8385C46.1368 43.8385 45.9258 44.3451 45.2387 45.3042C44.9859 45.6571 44.7604 46.0412 44.282 46.1533C43.856 46.2529 43.6555 46.145 43.5886 45.7152C43.5448 45.4433 43.5761 45.1713 43.6534 44.9056C44.0586 43.5022 44.1379 42.0469 44.1567 40.6124C44.1776 39.0201 44.1275 37.3843 43.1542 35.9788C42.9557 36.0265 42.9745 36.1864 42.9892 36.3047C43.1625 37.6313 42.5819 38.7544 42.0117 39.8754C41.4143 41.0525 40.6102 42.0802 39.6786 43.0123C39.428 43.2635 39.2129 43.55 38.981 43.8178C38.2291 44.6855 37.2704 45.1692 36.1321 45.273C35.1901 45.3602 34.4737 45.0052 34.0831 44.1022C34.01 43.934 33.9578 43.7347 33.6695 43.5894C33.139 44.4904 32.4142 45.2606 31.7333 46.0661C31.2696 46.6162 30.7433 47.0958 30.1689 47.513C29.3919 48.0756 28.5168 48.0071 27.6521 47.7123C27.32 47.5982 27.1195 47.3366 27.0046 47.0127C26.6537 46.037 26.4198 45.0779 26.5033 43.9901C26.6558 42.0241 26.9983 40.0997 27.3576 38.169C27.5643 37.0604 27.9278 36.0058 28.3998 34.9886C29.1016 33.4793 29.8243 31.9763 30.8039 30.6165C31.207 30.056 31.6602 29.5453 32.243 29.1695C33.068 28.6381 33.9515 28.9391 34.2878 29.8671C34.4361 30.2781 34.528 30.7058 34.5384 31.148C34.6011 33.5042 34.3964 35.8439 33.8429 38.1275C33.6027 39.1177 33.022 40.0291 32.4581 40.901C32.2012 41.2996 31.7459 41.3764 31.4576 41.1688C31.1715 40.9633 31.1151 40.6456 31.3323 40.2138C31.466 39.946 31.6477 39.7031 31.8064 39.4478C32.6398 38.0984 33.0743 36.612 33.2852 35.0571C33.4627 33.7575 33.563 32.4538 33.4815 31.1397C33.469 30.9487 33.4753 30.7514 33.4252 30.5708C33.2977 30.112 33.0429 30.0041 32.6294 30.247C32.0257 30.5999 31.5683 31.1189 31.2091 31.7023C30.5637 32.7486 29.9642 33.8239 29.4546 34.9429C29.1705 35.5657 29.041 36.2341 28.8551 36.8881C28.475 38.2292 28.2641 39.6056 27.9132 40.9487C27.4996 42.5327 27.5999 44.1437 27.6625 45.7526C27.675 46.0515 27.7816 46.3422 27.934 46.6058C28.1951 47.0584 28.5418 47.1871 29.0389 46.992C29.6572 46.7511 30.217 46.4252 30.6514 45.8979C31.5704 44.7789 32.527 43.6953 33.2184 42.404C33.5651 41.7563 33.7385 41.0941 33.8053 40.3841C33.9995 38.3351 34.8016 36.4853 35.7039 34.6709C35.7645 34.5505 35.8543 34.4426 35.9441 34.3408C36.1613 34.0959 36.414 33.9672 36.744 34.1374C37.0761 34.3076 37.2579 34.5817 37.1597 34.9408C36.7545 36.4397 36.3764 37.951 35.7081 39.3627C35.3217 40.1785 35.0125 41.0235 34.7765 41.8892C34.6136 42.485 34.7118 43.0849 35.0084 43.6372C35.2653 44.1188 35.5472 44.26 36.0903 44.1645C36.3869 44.1126 36.6772 44.0233 36.9362 43.8593C39.6055 42.1694 41.4101 39.8713 41.997 36.722C42.1265 36.0328 42.0451 35.3539 41.8425 34.7C41.6336 34.0232 41.0425 33.689 40.4535 33.3776C40.2614 33.2759 40.0421 33.2198 39.8562 33.1077C39.5596 32.925 39.3319 32.6842 39.4927 32.2981C39.6306 31.9638 40.1005 31.8164 40.4869 32.0365C41.3955 32.5493 42.2414 33.143 42.9787 33.8945C44.5076 35.4536 45.1384 37.3386 45.1175 39.4727C45.105 40.8325 45.2178 42.2006 45.0089 43.5956H45.0068Z" fill="#43423D"/>
<path id="Vector_3" d="M98.8003 32.8274C98.7126 33.1367 98.4933 33.2115 98.3095 33.3173C97.9085 33.5436 97.8291 33.8467 97.967 34.2827C98.4536 35.8168 98.9257 37.351 99.6275 38.8104C100.16 39.9169 100.768 40.9715 101.463 41.995C101.305 41.038 101.156 40.0913 101.027 39.1384C100.799 37.4548 100.874 35.7691 100.933 34.0834C100.945 33.7367 101.064 33.4253 101.409 33.2862C101.71 33.1637 101.942 33.3858 102.146 33.5498C102.723 34.0086 103.013 34.6647 103.289 35.3186C103.968 36.9275 104.596 38.5634 105.72 39.9377C107.09 41.6109 108.763 42.8503 110.921 43.3174C111.804 43.5084 112.721 43.5063 113.611 43.3361C114.524 43.1596 115.428 42.9167 116.291 42.5555C116.819 42.3355 116.832 42.3147 116.567 41.7874C115.533 39.728 116.452 37.789 117.688 36.3836C117.901 36.1407 118.181 35.9538 118.492 35.8231C119.507 35.3975 120.272 35.7691 120.596 36.8133C120.901 37.7911 120.625 38.7066 120.32 39.6118C120.04 40.438 119.706 41.2497 119.111 41.9203C119.025 42.0158 118.933 42.1237 118.948 42.3272C119.685 42.4434 120.428 42.4766 121.139 42.3168C123.896 41.6877 126.592 40.874 129.14 39.6118C130.636 38.8706 132.131 38.1253 133.719 37.5814C135.306 37.0375 136.902 36.9939 138.481 37.5067C139.876 37.9593 141.008 38.8333 141.796 40.0705C142.163 40.6498 142.706 41.1169 142.961 41.748C143.314 42.6199 143.888 43.3527 144.354 44.152C144.713 44.7685 145.066 45.383 145.645 45.8314C145.71 45.8813 145.762 45.9456 145.814 46.01C145.935 46.1594 146.086 46.3297 145.942 46.5186C145.802 46.7034 145.578 46.6016 145.405 46.558C144.977 46.4501 144.718 46.1242 144.486 45.7795C143.433 44.2163 142.36 42.6655 141.344 41.0753C140.676 40.0311 139.83 39.2235 138.719 38.6672C137.706 38.1606 136.655 38.0278 135.534 38.142C133.934 38.306 132.534 39.0097 131.156 39.728C128.219 41.2601 125.138 42.3645 121.901 43.0538C120.681 43.3133 119.464 43.4191 118.246 43.0558C117.878 42.9458 117.55 43.0226 117.21 43.1659C116.122 43.6226 115.004 43.9942 113.83 44.181C112.362 44.4135 110.95 44.2371 109.551 43.7368C107.671 43.0662 106.286 41.7936 105.027 40.3134C104.126 39.2568 103.475 38.0797 102.934 36.8175C102.66 36.1801 102.318 35.5719 101.923 34.9781C101.787 36.9752 101.616 38.9474 102.272 40.8823C102.56 41.7313 102.756 42.6136 102.882 43.5063C102.932 43.853 102.942 44.1686 102.568 44.3429C102.217 44.507 101.979 44.289 101.787 44.0585C101.215 43.3631 100.601 42.6967 100.183 41.8891C99.5063 40.5812 98.7878 39.2941 98.1111 37.7641C98.1445 38.4139 98.1069 38.8914 98.2072 39.3377C98.3638 40.027 98.251 40.6913 98.18 41.366C98.0505 42.624 96.7388 43.6288 95.3311 43.2531C94.3933 43.0039 93.9024 42.186 93.6685 41.2684C93.3865 40.1681 93.374 39.0533 93.6455 37.9468C94.034 36.3607 94.6293 34.8806 95.943 33.7969C96.1832 33.5997 96.2856 33.39 96.0997 33.0911C96.0182 32.9582 95.9723 32.788 95.9577 32.6302C95.9305 32.3499 95.9556 32.0614 96.273 31.9451C96.5508 31.8455 96.8182 31.9077 97.0291 32.1257C97.1043 32.2025 97.1816 32.2918 97.2192 32.3894C97.3383 32.7049 97.568 32.7464 97.873 32.7298C98.1654 32.7132 98.4745 32.6509 98.7941 32.8212L98.8003 32.8274ZM96.5195 34.7269C96.1477 34.8723 95.9765 35.1255 95.8115 35.3726C94.9906 36.5995 94.4747 37.9323 94.458 39.4208C94.4476 40.3404 94.694 41.1999 95.2308 41.9556C95.7196 42.6427 96.3399 42.6365 96.8412 41.9618C97.1064 41.6047 97.2631 41.2144 97.2714 40.7515C97.2861 39.8505 97.2213 38.9578 97.1336 38.0631C97.025 36.9524 96.8871 35.8521 96.5195 34.7269ZM119.677 37.9655C119.702 37.1911 119.654 37.0375 119.397 36.913C119.037 36.7386 118.764 36.9545 118.494 37.1351C118.338 37.241 118.198 37.378 118.064 37.5129C117.402 38.1689 117.275 39.0409 117.101 39.8941C116.991 40.4338 117.193 40.9155 117.371 41.3971C117.477 41.6898 117.705 41.748 117.956 41.5549C118.127 41.422 118.311 41.2829 118.43 41.1065C119.119 40.1017 119.528 38.9869 119.677 37.9655Z" fill="#43423D"/>
<path id="Vector_4" d="M92.7642 10.5769C92.3695 10.7721 92.1084 11.0689 91.8557 11.3803C90.1618 13.4688 88.3488 15.441 86.0951 16.9461C84.821 17.7973 83.4864 18.5612 82.1663 19.3439C80.9883 20.0414 79.7832 20.6933 78.6114 21.4012C77.5922 22.0178 76.4789 22.3956 75.3552 22.7527C75.0607 22.8461 74.7641 22.871 74.4759 22.7153C74.1479 22.5388 73.9976 22.2586 74.0644 21.8994C74.1312 21.5444 74.4174 21.3721 74.737 21.4427C76.0152 21.7167 77.0428 21.0877 78.0558 20.5189C80.038 19.4061 82.0285 18.31 83.9772 17.1371C86.4962 15.6195 88.6182 13.6826 90.5419 11.4883C91.7847 10.0704 93.088 8.70231 94.2806 7.23874C94.4916 6.97924 94.7631 6.73012 95.1244 6.96886C95.4482 7.18476 95.4503 7.53975 95.3124 7.85531C95.1265 8.27881 94.903 8.68986 94.6649 9.08845C92.781 12.2689 91.3043 15.6424 89.9341 19.0595C89.0819 21.1874 88.4261 23.3879 87.8183 25.6009C87.3254 27.3904 86.8241 29.1779 86.4377 30.9923C85.8696 33.6599 85.3202 36.3214 85.2805 39.0741C85.2576 40.6976 85.3453 42.2774 85.832 43.8261C86.1181 44.7395 86.6674 45.5139 87.4173 46.0661C88.4825 46.8487 89.6793 46.7366 90.8594 46.255C91.2896 46.0785 91.7241 45.9083 92.1585 45.7422C92.3403 45.6717 92.5366 45.6509 92.7246 45.7153C92.8917 45.7713 92.9272 45.9104 92.8123 46.0287C92.7016 46.145 92.5596 46.2426 92.4113 46.3111C91.2353 46.8467 90.0573 47.3532 88.7101 47.2577C87.764 47.1913 86.9661 46.8799 86.3061 46.1824C85.0257 44.8288 84.4576 43.1971 84.2467 41.3868C83.8895 38.3289 84.4158 35.3581 85.0216 32.3874C85.4518 30.274 85.9656 28.1835 86.5672 26.1137C86.9327 24.8577 87.2564 23.5768 87.7619 22.3727C89.1321 19.1072 90.1827 15.7088 91.8766 12.5761C92.2212 11.9367 92.4718 11.2475 92.7642 10.5811V10.5769Z" fill="#43423D"/>
<path id="Vector_5" d="M58.5789 21.5859C59.0426 21.6171 59.4582 21.8475 59.7089 22.3146C59.8112 22.5056 59.8634 22.7174 60.0681 22.8398C60.2122 22.925 60.3522 23.0371 60.2352 23.2281C60.1454 23.3734 59.9721 23.4834 59.8175 23.4315C59.2034 23.2239 58.558 23.062 58.0672 22.6073C57.8521 22.408 57.8312 22.1195 57.9544 21.8517C58.0609 21.6192 58.2949 21.6067 58.581 21.5859H58.5789Z" fill="#43423D"/>
<path id="Vector_6" d="M141.217 27.0457C141.185 27.1039 141.158 27.1807 141.106 27.2367C140.997 27.3551 140.834 27.4423 140.772 27.5793C140.663 27.8139 140.682 28.1834 140.302 28.1149C139.821 28.0298 139.333 27.8741 139.055 27.4319C138.85 27.1039 139.161 26.5662 139.573 26.5143C140.137 26.4416 140.613 26.7696 141.135 26.8963C141.169 26.9046 141.183 26.9814 141.217 27.0457Z" fill="#43423D"/>
</g>
</svg>
