<svg width="146" height="57" viewBox="0 0 146 57" fill="none" xmlns="http://www.w3.org/2000/svg">
<g id="neHPyO">
<path id="Vector" d="M33.8977 3.89603C33.7285 3.18396 33.3442 2.58607 32.8721 2.05462C32.4272 1.5543 31.857 1.1744 31.1552 1.20554C29.2483 1.28858 27.5857 2.02555 26.1529 3.24832C23.5379 5.47586 21.7353 8.29506 20.3025 11.3675C19.3292 13.456 18.6859 15.6565 18.1449 17.8862C17.6248 20.0348 17.276 22.2146 17.0003 24.4069C16.8458 25.6255 16.6954 26.8462 16.6828 28.0689C16.6724 29.2086 16.5889 30.3463 16.639 31.4922C16.7121 33.178 16.639 34.8678 16.8165 36.5535C17.0233 38.507 17.2635 40.4522 17.6729 42.3746C17.7752 42.8521 17.9924 43.2922 18.0572 43.7884C18.1073 44.1683 18.0384 44.4112 17.7397 44.6333C16.9606 45.2167 16.0959 45.663 15.1581 45.8644C12.6141 46.4104 10.256 46.018 8.21956 44.2908C6.83687 43.1178 5.51056 41.893 4.61243 40.2965C3.96286 39.1444 3.52842 37.9382 3.53677 36.5722C3.5493 34.3343 3.62658 32.1005 3.73519 29.8667C3.75608 29.4578 3.72684 29.0446 3.7707 28.6398C4.0297 26.1985 4.03387 23.7426 4.24274 21.2991C4.37015 19.8065 4.47249 18.3117 4.62079 16.8212C4.79415 15.0856 5.04479 13.3584 5.18682 11.6208C5.35391 9.58426 5.60455 7.55601 5.76747 5.51738C5.88443 4.06626 5.83639 2.63382 5.71943 1.19516C5.69645 0.921124 5.59829 0.748816 5.31632 0.655397C4.83592 0.495545 4.67718 0.539141 4.40983 1.04984C3.58063 2.62967 3.01043 4.30915 2.50497 6.01354C2.10812 7.35464 1.92641 8.74555 1.5776 10.1302C1.24968 9.73996 0.888339 9.47838 0.414212 9.65899C-0.0870687 9.84791 0.0236307 10.3233 0.0194534 10.7219C-0.0390293 14.4608 0.0549608 18.1976 0.2137 21.9323C0.224143 22.1772 0.255473 22.4201 0.282626 22.6651C0.357818 23.3689 0.470606 24.0706 0.504024 24.7764C0.579216 26.4102 0.861187 28.0253 0.928024 29.6612C0.990684 31.1829 1.21208 32.6984 1.36247 34.216C1.54627 36.0594 1.70083 37.9071 1.92014 39.7464C2.21047 42.1836 2.37756 44.6271 2.48826 47.0767C2.51332 47.6227 2.4799 48.1729 2.54465 48.7126C2.69504 49.9375 2.71592 51.1582 2.5551 52.3809C2.53421 52.5387 2.54048 52.7131 2.58852 52.8646C2.7389 53.3546 3.13783 53.448 3.53468 53.1262C3.90229 52.8273 3.92944 52.437 3.90646 52.0155C3.79159 50.0579 3.67253 48.0981 3.57228 46.1384C3.50335 44.8056 3.61405 43.4666 3.43651 42.1338C3.37803 41.6958 3.36759 41.2287 3.49082 40.7533C3.59525 40.8218 3.65582 40.8405 3.6788 40.8799C4.58319 42.4888 5.95754 43.6887 7.35277 44.8222C9.18871 46.3149 11.3588 47.0269 13.7566 47.002C14.8406 46.9896 15.8871 46.8878 16.8332 46.292C17.1779 46.074 17.5559 45.8997 17.934 45.744C18.571 45.4824 18.6462 45.5031 18.9344 46.1384C19.4462 47.2677 21.6393 51.0544 23.3311 52.8252C23.9368 53.4604 24.7368 54.2182 24.7368 54.2182C25.2339 54.6894 25.6599 55.0735 25.967 55.3454L26.98 56.2734C27.0552 56.3315 27.5356 56.6886 27.7444 56.5391C27.8113 56.4914 27.8259 56.4104 27.8322 56.3814C27.9178 55.9246 26.744 54.9136 26.0171 54.2514C25.4782 53.7615 24.6156 52.9456 23.8637 52.0716C23.5379 51.6917 23.2705 51.345 23.2287 51.2889C22.9342 50.9049 22.6711 50.5271 22.3954 50.1119C21.3051 48.4614 21.3698 48.6254 20.0226 46.0097C19.8138 45.6028 19.6446 45.2623 19.5318 45.0319C19.7198 44.8077 20.0101 44.4589 20.361 44.0333C23.7238 39.9457 25.4051 37.9029 26.9069 35.3411C28.1914 33.151 28.9851 31.2016 30.1005 28.6211C31.1114 26.2794 32.3395 23.0305 33.2502 18.6377C33.4173 17.8363 34.0689 14.5916 34.2256 10.9254C34.2444 10.4998 34.2506 10.0555 34.2632 9.16906C34.3133 5.74366 34.1253 4.84061 33.9018 3.90018L33.8977 3.89603ZM3.29449 21.733C3.21929 23.8796 3.01251 26.022 2.86213 28.1665C2.85586 28.2475 2.84333 28.3305 2.84542 28.4115C2.88928 29.9664 2.62193 31.5089 2.63238 33.0658C2.32117 31.3303 2.17496 29.5761 2.09768 27.8157C2.00369 25.723 1.85957 23.6304 1.79273 21.5358C1.7614 20.5912 1.91388 19.6383 1.8909 18.6937C1.85957 17.4149 1.91596 16.1278 2.02249 14.8718C2.12274 13.6906 2.24806 12.8892 2.50706 11.326C2.75979 9.80846 2.97701 8.49643 3.41981 6.8045C3.68298 5.79764 4.08191 4.44201 4.68554 2.8601C4.90903 3.1196 4.932 3.27323 4.92365 3.44346C4.82548 5.53606 4.68136 7.62659 4.45787 9.71089C4.26572 11.5232 3.98166 13.3294 3.86678 15.1479C3.72684 17.3485 3.37177 19.5283 3.29657 21.7351L3.29449 21.733ZM33.2731 14.0746C32.7008 17.0142 32.2998 18.4529 31.9218 20.1262C31.197 23.3336 30.1046 25.8497 28.5611 29.7671C28.0139 31.158 27.7967 31.6459 27.6358 31.9988C27.3434 32.6382 26.2991 34.5004 24.8642 36.921C23.6486 38.9741 22.2408 40.5041 19.8284 43.0369C19.5443 43.3337 19.3062 43.5787 19.1391 43.7468C19.0702 43.4915 18.9783 43.1427 18.8801 42.7275C18.7945 42.3705 18.5543 41.3262 18.3329 39.8398C18.0781 38.123 17.9632 36.7777 17.9214 35.6131C17.8629 33.9523 17.7042 32.2977 17.7502 30.6286C17.8379 27.4627 18.1407 24.3218 18.6337 21.1953C18.9574 19.1442 19.4608 17.1367 20.0435 15.1459C20.5594 13.3875 21.3113 11.7329 22.1197 10.0866C22.9238 8.45284 23.9598 6.99756 25.0835 5.58796C26.1758 4.21781 27.5314 3.13621 29.1668 2.50926C30.2091 2.11067 31.3537 1.94044 32.3917 2.6878C33.1332 3.22133 33.3525 4.09117 33.4737 4.65792C34.3091 8.57325 33.5092 12.8581 33.2731 14.0684V14.0746Z" fill="white"/>
<path id="Vector_2" d="M45.0068 43.6679C45.4684 42.9662 45.9154 42.2562 46.3457 41.5379C47.484 39.6404 48.5743 37.7139 49.698 35.8082C49.9089 35.4511 50.0677 35.0795 50.2327 34.7037C50.4102 34.3031 50.7151 34.1723 51.0765 34.3155C51.3877 34.4401 51.5297 34.7535 51.4023 35.1314C51.2624 35.5445 51.0828 35.9431 50.924 36.35C50.3831 37.743 50.1366 39.1816 50.2201 40.6764C50.2389 41.0085 50.2974 41.3282 50.4206 41.6334C50.7131 42.3434 51.1955 42.5219 51.8597 42.0922C52.338 41.7829 52.7704 41.3905 53.1881 40.9981C54.1468 40.0992 55.164 39.2585 56.1791 38.4343C57.4428 37.4087 58.7461 36.3894 60.2917 35.7583C60.8034 35.5487 61.2295 35.5403 61.6765 35.8663C62.113 36.186 62.1861 36.5825 62.0942 37.0932C61.9417 37.9194 61.5595 38.6357 61.1334 39.3394C60.9037 39.7193 60.7178 40.1055 60.747 40.5663C60.7784 41.075 60.8535 41.1497 61.336 41.021C61.5992 40.9504 61.854 40.8466 62.1088 40.7449C63.2033 40.3089 64.2915 39.8688 65.4611 39.6467C67.4287 39.2751 69.1393 39.8335 70.7079 40.9878C71.7021 41.7185 72.289 42.7171 72.6253 43.8692C72.9887 45.1086 72.7381 46.2566 71.9444 47.2635C71.5392 47.7763 71.0609 48.233 70.6035 48.7042C70.4948 48.8163 70.3319 48.9409 70.1815 48.7644C70.075 48.6378 70.169 48.5091 70.263 48.4053C70.8248 47.7908 71.2092 47.0767 71.4974 46.2982C72.1386 44.5709 71.4347 42.6299 69.8954 41.5317C68.7445 40.7096 67.4433 40.3048 66.0355 40.3525C65.1792 40.3816 64.3813 40.7324 63.6001 41.0625C62.8691 41.3718 62.1464 41.6998 61.3757 41.9054C61.1919 41.9552 61.0123 42.032 60.8243 42.0569C59.7257 42.1939 59.2578 41.6313 59.6379 40.5892C59.9178 39.8211 60.2562 39.0716 60.5695 38.316C60.6113 38.2142 60.6509 38.1125 60.6844 38.0087C60.7992 37.6496 61.0666 37.2074 60.7867 36.9292C60.4964 36.6427 60.1371 37.0496 59.8301 37.1804C58.3952 37.7949 57.2757 38.864 56.0956 39.8377C55.1243 40.639 54.197 41.4902 53.2487 42.3185C52.5365 42.9434 51.7094 43.2361 50.7569 43.2091C50.2348 43.1945 49.888 42.9766 49.6583 42.5032C49.1361 41.4279 49.0881 40.2985 49.2238 39.1443C49.2468 38.9574 49.322 38.7748 49.2405 38.4717C49.0881 38.6793 48.8479 39.0218 48.5931 39.4702C48.3194 39.9498 48.1565 40.3214 48.0855 40.4833C47.4631 41.8763 47.0892 42.0361 46.1368 43.9108C46.1368 43.9108 45.9258 44.4173 45.2387 45.3764C44.9859 45.7293 44.7604 46.1134 44.282 46.2255C43.856 46.3252 43.6555 46.2172 43.5886 45.7875C43.5448 45.5155 43.5761 45.2436 43.6534 44.9778C44.0586 43.5745 44.1379 42.1192 44.1567 40.6847C44.1776 39.0924 44.1275 37.4565 43.1542 36.051C42.9557 36.0988 42.9745 36.2586 42.9892 36.377C43.1625 37.7035 42.5819 38.8267 42.0117 39.9477C41.4143 41.1248 40.6102 42.1524 39.6786 43.0845C39.428 43.3357 39.2129 43.6222 38.981 43.89C38.2291 44.7578 37.2704 45.2415 36.1321 45.3453C35.1901 45.4325 34.4737 45.0775 34.0831 44.1744C34.01 44.0063 33.9578 43.807 33.6695 43.6616C33.139 44.5626 32.4142 45.3328 31.7333 46.1383C31.2696 46.6885 30.7433 47.168 30.1689 47.5853C29.3919 48.1479 28.5168 48.0794 27.6521 47.7846C27.32 47.6704 27.1195 47.4088 27.0046 47.085C26.6537 46.1092 26.4198 45.1501 26.5033 44.0623C26.6558 42.0963 26.9983 40.1719 27.3576 38.2412C27.5643 37.1326 27.9278 36.078 28.3998 35.0608C29.1016 33.5515 29.8243 32.0485 30.8039 30.6887C31.207 30.1282 31.6602 29.6175 32.243 29.2418C33.068 28.7103 33.9515 29.0113 34.2878 29.9393C34.4361 30.3504 34.528 30.778 34.5384 31.2202C34.6011 33.5765 34.3964 35.9161 33.8429 38.1997C33.6027 39.19 33.022 40.1013 32.4581 40.9732C32.2012 41.3718 31.7459 41.4486 31.4576 41.241C31.1715 41.0355 31.1151 40.7179 31.3323 40.2861C31.466 40.0183 31.6477 39.7754 31.8064 39.52C32.6398 38.1706 33.0743 36.6842 33.2852 35.1293C33.4627 33.8297 33.563 32.526 33.4815 31.2119C33.469 31.0209 33.4753 30.8237 33.4252 30.6431C33.2977 30.1843 33.0429 30.0763 32.6294 30.3192C32.0257 30.6721 31.5683 31.1911 31.2091 31.7745C30.5637 32.8208 29.9642 33.8962 29.4546 35.0151C29.1705 35.6379 29.041 36.3064 28.8551 36.9603C28.475 38.3014 28.2641 39.6778 27.9132 41.021C27.4996 42.605 27.5999 44.2159 27.6625 45.8248C27.675 46.1238 27.7816 46.4144 27.934 46.6781C28.1951 47.1306 28.5418 47.2593 29.0389 47.0642C29.6572 46.8234 30.217 46.4975 30.6514 45.9702C31.5704 44.8512 32.527 43.7675 33.2184 42.4763C33.5651 41.8285 33.7385 41.1663 33.8053 40.4563C33.9995 38.4073 34.8016 36.5576 35.7039 34.7432C35.7645 34.6228 35.8543 34.5148 35.9441 34.4131C36.1613 34.1681 36.414 34.0394 36.744 34.2096C37.0761 34.3799 37.2579 34.6539 37.1597 35.013C36.7545 36.5119 36.3764 38.0232 35.7081 39.4349C35.3217 40.2508 35.0125 41.0957 34.7765 41.9614C34.6136 42.5572 34.7118 43.1572 35.0084 43.7094C35.2653 44.191 35.5472 44.3322 36.0903 44.2367C36.3869 44.1848 36.6772 44.0955 36.9362 43.9315C39.6055 42.2417 41.4101 39.9435 41.997 36.7943C42.1265 36.105 42.0451 35.4262 41.8425 34.7722C41.6336 34.0955 41.0425 33.7612 40.4535 33.4498C40.2614 33.3481 40.0421 33.292 39.8562 33.1799C39.5596 32.9973 39.3319 32.7564 39.4927 32.3703C39.6306 32.0361 40.1005 31.8887 40.4869 32.1087C41.3955 32.6215 42.2414 33.2152 42.9787 33.9667C44.5076 35.5258 45.1384 37.4108 45.1175 39.5449C45.105 40.9047 45.2178 42.2728 45.0089 43.6679H45.0068Z" fill="white"/>
<path id="Vector_3" d="M98.8003 32.8997C98.7126 33.209 98.4933 33.2837 98.3095 33.3896C97.9085 33.6159 97.8291 33.919 97.967 34.355C98.4536 35.8891 98.9257 37.4233 99.6275 38.8827C100.16 39.9892 100.768 41.0438 101.463 42.0673C101.305 41.1102 101.156 40.1636 101.027 39.2107C100.799 37.5271 100.874 35.8414 100.933 34.1557C100.945 33.809 101.064 33.4976 101.409 33.3585C101.71 33.236 101.942 33.4581 102.146 33.6221C102.723 34.0809 103.013 34.7369 103.289 35.3909C103.968 36.9998 104.596 38.6357 105.72 40.01C107.09 41.6832 108.763 42.9226 110.921 43.3897C111.804 43.5807 112.721 43.5786 113.611 43.4084C114.524 43.2319 115.428 42.989 116.291 42.6278C116.819 42.4077 116.832 42.387 116.567 41.8597C115.533 39.8003 116.452 37.8613 117.688 36.4559C117.901 36.213 118.181 36.0261 118.492 35.8953C119.507 35.4698 120.272 35.8414 120.596 36.8856C120.901 37.8634 120.625 38.7789 120.32 39.684C120.04 40.5103 119.706 41.322 119.111 41.9925C119.025 42.088 118.933 42.196 118.948 42.3994C119.685 42.5157 120.428 42.5489 121.139 42.3891C123.896 41.76 126.592 40.9462 129.14 39.684C130.636 38.9429 132.131 38.1976 133.719 37.6537C135.306 37.1098 136.902 37.0662 138.481 37.579C139.876 38.0315 141.008 38.9055 141.796 40.1428C142.163 40.722 142.706 41.1891 142.961 41.8202C143.314 42.6922 143.888 43.425 144.354 44.2242C144.713 44.8408 145.066 45.4553 145.645 45.9037C145.71 45.9535 145.762 46.0179 145.814 46.0823C145.935 46.2317 146.086 46.402 145.942 46.5909C145.802 46.7756 145.578 46.6739 145.405 46.6303C144.977 46.5224 144.718 46.1964 144.486 45.8518C143.433 44.2886 142.36 42.7378 141.344 41.1476C140.676 40.1034 139.83 39.2958 138.719 38.7395C137.706 38.2329 136.655 38.1001 135.534 38.2142C133.934 38.3782 132.534 39.082 131.156 39.8003C128.219 41.3324 125.138 42.4368 121.901 43.126C120.681 43.3855 119.464 43.4914 118.246 43.1281C117.878 43.0181 117.55 43.0949 117.21 43.2381C116.122 43.6949 115.004 44.0665 113.83 44.2533C112.362 44.4858 110.95 44.3094 109.551 43.809C107.671 43.1385 106.286 41.8659 105.027 40.3857C104.126 39.329 103.475 38.152 102.934 36.8897C102.66 36.2524 102.318 35.6441 101.923 35.0504C101.787 37.0475 101.616 39.0197 102.272 40.9545C102.56 41.8036 102.756 42.6859 102.882 43.5786C102.932 43.9253 102.942 44.2408 102.568 44.4152C102.217 44.5792 101.979 44.3613 101.787 44.1308C101.215 43.4354 100.601 42.769 100.183 41.9614C99.5063 40.6535 98.7878 39.3664 98.1111 37.8364C98.1445 38.4862 98.1069 38.9637 98.2072 39.41C98.3638 40.0992 98.251 40.7636 98.18 41.4383C98.0505 42.6963 96.7388 43.7011 95.3311 43.3253C94.3933 43.0762 93.9024 42.2583 93.6685 41.3407C93.3865 40.2404 93.374 39.1256 93.6455 38.0191C94.034 36.433 94.6293 34.9528 95.943 33.8692C96.1832 33.6719 96.2856 33.4623 96.0997 33.1633C96.0182 33.0305 95.9723 32.8602 95.9577 32.7025C95.9305 32.4222 95.9556 32.1336 96.273 32.0174C96.5508 31.9177 96.8182 31.98 97.0291 32.198C97.1043 32.2748 97.1816 32.3641 97.2192 32.4616C97.3383 32.7772 97.568 32.8187 97.873 32.8021C98.1654 32.7855 98.4745 32.7232 98.7941 32.8935L98.8003 32.8997ZM96.5195 34.7992C96.1477 34.9445 95.9765 35.1978 95.8115 35.4448C94.9906 36.6718 94.4747 38.0046 94.458 39.493C94.4476 40.4127 94.694 41.2722 95.2308 42.0278C95.7196 42.715 96.3399 42.7088 96.8412 42.0341C97.1064 41.677 97.2631 41.2867 97.2714 40.8238C97.2861 39.9228 97.2213 39.0301 97.1336 38.1353C97.025 37.0247 96.8871 35.9244 96.5195 34.7992ZM119.677 38.0378C119.702 37.2634 119.654 37.1098 119.397 36.9852C119.037 36.8109 118.764 37.0268 118.494 37.2074C118.338 37.3132 118.198 37.4503 118.064 37.5852C117.402 38.2412 117.275 39.1131 117.101 39.9664C116.991 40.5061 117.193 40.9878 117.371 41.4694C117.477 41.7621 117.705 41.8202 117.956 41.6272C118.127 41.4943 118.311 41.3552 118.43 41.1788C119.119 40.174 119.528 39.0592 119.677 38.0378Z" fill="white"/>
<path id="Vector_4" d="M92.7642 10.6492C92.3695 10.8443 92.1084 11.1412 91.8557 11.4526C90.1618 13.541 88.3488 15.5132 86.0951 17.0183C84.821 17.8695 83.4864 18.6334 82.1663 19.4161C80.9883 20.1136 79.7832 20.7655 78.6114 21.4734C77.5922 22.09 76.4789 22.4678 75.3552 22.8249C75.0607 22.9183 74.7641 22.9432 74.4759 22.7875C74.1479 22.611 73.9976 22.3308 74.0644 21.9716C74.1312 21.6166 74.4174 21.4443 74.737 21.5149C76.0152 21.789 77.0428 21.1599 78.0558 20.5911C80.038 19.4784 82.0285 18.3822 83.9772 17.2093C86.4962 15.6918 88.6182 13.7548 90.5419 11.5605C91.7847 10.1426 93.088 8.77453 94.2806 7.31095C94.4916 7.05146 94.7631 6.80234 95.1244 7.04108C95.4482 7.25698 95.4503 7.61197 95.3124 7.92753C95.1265 8.35103 94.903 8.76208 94.6649 9.16067C92.781 12.3411 91.3043 15.7146 89.9341 19.1317C89.0819 21.2596 88.4261 23.4601 87.8183 25.6731C87.3254 27.4627 86.8241 29.2501 86.4377 31.0645C85.8696 33.7322 85.3202 36.3936 85.2805 39.1464C85.2576 40.7698 85.3453 42.3496 85.832 43.8983C86.1181 44.8118 86.6674 45.5861 87.4173 46.1383C88.4825 46.921 89.6793 46.8089 90.8594 46.3272C91.2896 46.1508 91.7241 45.9805 92.1585 45.8145C92.3403 45.7439 92.5366 45.7231 92.7246 45.7875C92.8917 45.8435 92.9272 45.9826 92.8123 46.1009C92.7016 46.2172 92.5596 46.3148 92.4113 46.3833C91.2353 46.9189 90.0573 47.4254 88.7101 47.3299C87.764 47.2635 86.9661 46.9521 86.3061 46.2546C85.0257 44.901 84.4576 43.2693 84.2467 41.459C83.8895 38.4011 84.4158 35.4303 85.0216 32.4596C85.4518 30.3462 85.9656 28.2557 86.5672 26.1859C86.9327 24.9299 87.2564 23.649 87.7619 22.445C89.1321 19.1794 90.1827 15.781 91.8766 12.6483C92.2212 12.0089 92.4718 11.3197 92.7642 10.6533V10.6492Z" fill="white"/>
<path id="Vector_5" d="M58.5789 21.6582C59.0426 21.6893 59.4582 21.9197 59.7089 22.3868C59.8112 22.5778 59.8634 22.7896 60.0681 22.9121C60.2122 22.9972 60.3522 23.1093 60.2352 23.3003C60.1454 23.4456 59.9721 23.5556 59.8175 23.5037C59.2034 23.2961 58.558 23.1342 58.0672 22.6795C57.8521 22.4803 57.8312 22.1917 57.9544 21.9239C58.0609 21.6914 58.2949 21.6789 58.581 21.6582H58.5789Z" fill="white"/>
<path id="Vector_6" d="M141.217 27.118C141.185 27.1762 141.158 27.253 141.106 27.309C140.997 27.4274 140.834 27.5146 140.772 27.6516C140.663 27.8862 140.682 28.2557 140.302 28.1872C139.821 28.1021 139.333 27.9464 139.055 27.5042C138.85 27.1762 139.161 26.6385 139.573 26.5866C140.137 26.5139 140.613 26.8419 141.135 26.9686C141.169 26.9769 141.183 27.0537 141.217 27.118Z" fill="white"/>
</g>
</svg>
