<svg width="61" height="62" viewBox="0 0 61 62" fill="none" xmlns="http://www.w3.org/2000/svg">
<g id="Graphic Icons">
<g id="Vector">
<path d="M52.0666 9.50495C46.3059 3.74503 38.6465 0.572266 30.5 0.572266C22.3535 0.572266 14.6941 3.74503 8.93269 9.50495C3.17276 15.2664 0 22.9257 0 31.0723C0 39.2188 3.17276 46.8781 8.93269 52.6388C14.6926 58.3995 22.3519 61.5723 30.5 61.5723C38.6481 61.5723 46.3066 58.3995 52.0673 52.6388C57.828 46.8781 61 39.2188 61 31.0723C61 22.9257 57.8272 15.2656 52.0666 9.50495ZM51.9141 49.7352L51.8874 49.7657L34.722 32.6003C34.3163 32.1954 33.6575 32.1954 33.2519 32.6003C33.0551 32.7963 32.9476 33.0578 32.9476 33.3354C32.9476 33.6129 33.0559 33.8745 33.2519 34.0704L50.4622 51.2816L50.4348 51.3083C47.8591 53.8466 44.8724 55.8467 41.5578 57.2519C38.0526 58.7381 34.3323 59.4914 30.4992 59.4914H30.3277C26.5159 59.4685 22.8171 58.6999 19.3355 57.207C15.9713 55.7643 12.9503 53.7101 10.3563 51.1016C7.76149 48.4916 5.72333 45.4584 4.3005 42.0858C2.82659 38.5928 2.07934 34.8871 2.07934 31.0707C2.07934 27.2544 2.83269 23.5174 4.3188 20.0122C5.72409 16.6976 7.72413 13.7109 10.2633 11.1352L10.2899 11.1077L25.2921 26.1099C25.4881 26.3059 25.7496 26.4142 26.0272 26.4142C26.3047 26.4142 26.5663 26.3059 26.7622 26.1099C27.1679 25.7043 27.1679 25.0447 26.7622 24.6398L11.8058 9.6849L11.8363 9.65822C17.0144 5.13964 23.6421 2.65084 30.5 2.65084C46.1709 2.65084 58.9207 15.4006 58.9207 31.0715C58.9207 37.9294 56.4326 44.5578 51.9141 49.7352Z" fill="#B7500B"/>
<path d="M26.9513 43.3661C26.4359 43.3661 25.9631 43.6261 25.6863 44.0622C24.2117 46.3848 23.4949 47.9807 23.4949 48.9392C23.4949 50.8454 25.0458 52.3956 26.9513 52.3956C28.8568 52.3956 30.4077 50.8454 30.4077 48.9392C30.4077 47.9807 29.691 46.3856 28.2163 44.0622C27.9395 43.6268 27.466 43.3661 26.9513 43.3661ZM26.9513 50.3162C26.1919 50.3162 25.5742 49.6986 25.5742 48.9392C25.5742 48.6975 25.8571 47.8122 26.9185 46.0272L26.9513 45.9723L26.9841 46.0272C28.0455 47.8122 28.3284 48.6975 28.3284 48.9392C28.3284 49.6986 27.7108 50.3162 26.9513 50.3162Z" fill="#B7500B"/>
<path d="M46.4126 14.3789C45.5822 13.4677 44.3988 12.9446 43.1651 12.9446C41.8597 12.9446 40.6306 13.5188 39.7934 14.5207L36.613 18.3256L35.104 16.6694C34.9172 16.4643 34.661 16.3438 34.3827 16.3309C34.3674 16.3309 34.3522 16.3301 34.3361 16.3301C34.0754 16.3301 33.8275 16.4254 33.6346 16.6015L30.516 19.4441C30.3109 19.631 30.1912 19.8864 30.1782 20.1639C30.1653 20.4415 30.2613 20.7076 30.4482 20.9127L31.9457 22.5559L31.9175 22.5818L17.7022 35.5382C15.9149 37.1669 14.2908 38.9863 12.874 40.9451L12.8535 40.9741C12.5668 41.3714 12.5973 41.9219 12.9274 42.2833L15.6015 45.2174C15.7982 45.4332 16.0781 45.5567 16.3701 45.5567C16.5585 45.5567 16.7437 45.5056 16.9054 45.408L17.0411 45.3264C19.0389 44.1263 20.9245 42.7225 22.6462 41.1533L36.9858 28.0848L38.4826 29.728C38.6793 29.9438 38.9592 30.0673 39.2512 30.0673C39.5105 30.0673 39.759 29.9712 39.9512 29.7958L43.0698 26.954C43.2749 26.7672 43.3954 26.511 43.4084 26.2334C43.4213 25.9559 43.3253 25.6905 43.1384 25.4847L41.6287 23.8285L45.7119 21.0141C46.7565 20.2936 47.4389 19.1574 47.583 17.8963C47.7272 16.6351 47.32 15.3739 46.4652 14.436L46.4126 14.3789ZM35.5561 26.5728L21.2448 39.6153C19.8036 40.9291 18.2359 42.1224 16.5851 43.164L16.5585 43.1808L15.0395 41.5139L15.0586 41.4888C16.2695 39.9013 17.6298 38.4159 19.1021 37.0739L33.3464 24.0916L33.3723 24.1198L35.5844 26.5468L35.5561 26.5728ZM39.3191 27.5579L39.2932 27.5297L32.6853 20.2798L34.2675 18.838L34.2934 18.8662L40.9013 26.116L39.3191 27.5579ZM45.5174 17.6591C45.4412 18.3233 45.0821 18.9218 44.5315 19.3016L40.215 22.2768L38.0266 19.8757L38.048 19.8498L41.3885 15.8528C41.8292 15.3251 42.4766 15.0224 43.1651 15.0224C43.8537 15.0224 44.4316 15.2908 44.8762 15.778L44.928 15.8352C45.3787 16.3293 45.5929 16.9942 45.5167 17.6584L45.5174 17.6591Z" fill="#B7500B"/>
</g>
</g>
</svg>
