<svg width="19" height="20" viewBox="0 0 19 20" fill="none" xmlns="http://www.w3.org/2000/svg">
<g id="Icons" clip-path="url(#clip0_843_4356)">
<path id="Vector (Stroke)" fill-rule="evenodd" clip-rule="evenodd" d="M9.20893 2.3575C9.38967 2.25583 9.61037 2.25583 9.79111 2.3575L12.9494 4.13406C12.9554 4.13727 12.9613 4.14058 12.9671 4.14399L16.1244 5.92C16.3114 6.02517 16.4271 6.22299 16.4271 6.4375V13.5625C16.4271 13.777 16.3114 13.9748 16.1244 14.08L9.79111 17.6425C9.61037 17.7442 9.38967 17.7442 9.20893 17.6425L2.87559 14.08C2.68864 13.9748 2.57294 13.777 2.57294 13.5625V6.4375C2.57294 6.22299 2.68864 6.02517 2.87559 5.92L9.20893 2.3575ZM11.4556 4.65625L9.50002 3.55624L4.37778 6.4375L6.33335 7.53751L11.4556 4.65625ZM7.54444 8.21875L12.6667 5.33749L14.6223 6.4375L9.50002 9.31876L7.54444 8.21875ZM6.03291 8.73099C6.03876 8.73441 6.04467 8.73774 6.05064 8.74096L8.90627 10.3473V16.1098L3.76044 13.2152V7.45272L6.03291 8.73099ZM10.0938 16.1098L15.2396 13.2152V7.45272L10.0938 10.3473V16.1098Z" fill="#43423D"/>
</g>
<defs>
<clipPath id="clip0_843_4356">
<rect width="19" height="19" fill="white" transform="translate(0 0.5)"/>
</clipPath>
</defs>
</svg>
