<svg width="41" height="51" viewBox="0 0 41 51" fill="none" xmlns="http://www.w3.org/2000/svg">
<g id="Graphic Icons">
<path id="Vector" fill-rule="evenodd" clip-rule="evenodd" d="M40.9828 8.86367C40.9828 8.47055 40.724 8.12743 40.3447 8.0293C33.3272 6.21556 26.9479 3.55494 20.8966 0.418706C20.6379 0.288082 20.3448 0.289332 20.086 0.427456C14.1548 3.66744 7.6373 6.14493 0.655456 8.03118C0.276083 8.13305 0.017334 8.4743 0.017334 8.86367V30.3961C0.017334 36.5392 3.51732 42.1442 9.05167 44.836C14.3273 47.4135 20.1204 50.2341 20.1204 50.2341C20.3616 50.3516 20.6379 50.3516 20.8791 50.2341C20.8791 50.2341 26.6722 47.4135 31.9653 44.836C37.4828 42.1448 40.9828 36.5398 40.9828 30.3961V8.86367ZM39.2584 9.52742V30.3961C39.2584 35.8804 36.1378 40.8842 31.2066 43.2854L20.4998 48.501L9.79355 43.2854C4.87981 40.8835 1.7417 35.8804 1.7417 30.3961V9.51992C8.46543 7.66305 14.7585 5.25619 20.5173 2.15807C26.3622 5.16494 32.5347 7.72868 39.2584 9.52742ZM19.6379 24.6205H12.621C12.1379 24.6205 11.7592 25.0067 11.7592 25.4824C11.7592 25.958 12.1385 26.3442 12.621 26.3442H19.6379V33.3717C19.6379 33.8473 20.0341 34.2336 20.4998 34.2336C20.9654 34.2336 21.3616 33.8473 21.3616 33.3717V26.3442H28.396C28.8616 26.3442 29.2578 25.958 29.2578 25.4824C29.2578 25.0067 28.861 24.6205 28.396 24.6205H21.3616V17.5949C21.3616 17.1186 20.9823 16.733 20.4998 16.733C20.0173 16.733 19.6379 17.1193 19.6379 17.5949V24.6205Z" fill="#B7500B"/>
</g>
</svg>
