<svg width="49" height="62" viewBox="0 0 49 62" fill="none" xmlns="http://www.w3.org/2000/svg">
<g id="Graphic Icons">
<g id="quality-3rd-party">
<path d="M24.5002 40.0366C20.4355 40.0366 16.6149 38.4504 13.7399 35.5754C10.865 32.7004 9.27876 28.8798 9.27876 24.8152C9.27876 20.7505 10.865 16.9299 13.7399 14.0549C16.6149 11.18 20.4355 9.59377 24.5002 9.59377C28.5648 9.59377 32.3854 11.18 35.2604 14.0549C38.1354 16.9299 39.7216 20.7505 39.7216 24.8152C39.7216 28.8798 38.1354 32.7004 35.2604 35.5754C32.3778 38.458 28.5648 40.0366 24.5002 40.0366ZM24.5002 11.5994C17.2097 11.5994 11.2768 17.5324 11.2768 24.8228C11.2768 32.1132 17.2097 38.0462 24.5002 38.0462C31.7906 38.0462 37.7236 32.1132 37.7236 24.8228C37.7236 17.5324 31.7906 11.5994 24.5002 11.5994Z" fill="#B7500B"/>
<path d="M24.5002 49.0962C23.5545 49.0962 22.6013 48.8674 21.7319 48.4022C21.5565 48.3107 21.3811 48.204 21.2134 48.0896C20.9007 47.8837 20.6109 47.6396 20.344 47.3727L17.8122 44.8409C17.0801 44.1088 16.104 43.7047 15.0745 43.7047H11.4903C8.24925 43.7047 5.6183 41.0737 5.6183 37.8327V34.2485C5.6183 33.2266 5.2065 32.2276 4.48203 31.5108L1.95021 28.9789C-0.337572 26.6912 -0.337572 22.9697 1.95021 20.6819L4.48203 18.1501C5.2065 17.4256 5.6183 16.4266 5.6183 15.4124V11.8282C5.6183 8.58714 8.24925 5.95619 11.4903 5.95619H15.0745C16.1116 5.95619 17.0877 5.55201 17.8122 4.81992L20.344 2.28811C21.4498 1.18234 22.9216 0.572266 24.5002 0.572266C26.0787 0.572266 27.5353 1.18234 28.6563 2.28811L31.1881 4.81992C31.9202 5.55964 32.8963 5.95619 33.9258 5.95619H37.51C40.7511 5.95619 43.382 8.58714 43.382 11.8282V15.4124C43.382 16.4495 43.7862 17.4256 44.5183 18.1501L47.0501 20.6819C49.3379 22.9697 49.3379 26.6912 47.0501 28.9789L44.5183 31.5108C43.7862 32.2428 43.382 33.219 43.382 34.2485V37.8327C43.382 41.0737 40.7511 43.7047 37.51 43.7047H33.9258C32.8887 43.7047 31.9126 44.1088 31.1881 44.8409L28.6563 47.3727C28.3894 47.6396 28.0996 47.8837 27.7869 48.0896C27.6268 48.204 27.4514 48.3031 27.2684 48.4022C26.399 48.8674 25.4534 49.0962 24.5002 49.0962ZM11.4827 7.93131C9.34739 7.93131 7.60105 9.67003 7.60105 11.8129V15.3971C7.60105 16.9604 6.99097 18.4322 5.88521 19.5456L3.35339 22.0775C1.84345 23.5874 1.84345 26.0506 3.35339 27.5605L5.88521 30.0923C6.99097 31.1981 7.60105 32.6699 7.60105 34.2485V37.8327C7.60105 39.9679 9.33976 41.7143 11.4827 41.7143H15.0669C16.6302 41.7143 18.102 42.3244 19.223 43.4301L21.7548 45.9619C21.9302 46.1373 22.1285 46.2975 22.3344 46.4424C22.4411 46.5186 22.5555 46.5796 22.6699 46.6483C23.8138 47.2584 25.1865 47.2584 26.3228 46.6483C26.4448 46.5873 26.5515 46.5186 26.6583 46.45C26.8642 46.3127 27.0625 46.1526 27.2379 45.9696L29.7697 43.4378C30.8755 42.332 32.3473 41.7219 33.9258 41.7219H37.51C39.6453 41.7219 41.3916 39.9832 41.3916 37.8403V34.2561C41.3916 32.6928 42.0017 31.2133 43.1075 30.1L45.6393 27.5681C47.1492 26.0582 47.1492 23.595 45.6393 22.0851L43.1075 19.5533C42.0017 18.4475 41.3916 16.9757 41.3916 15.3971V11.8129C41.3916 9.67765 39.6529 7.93131 37.51 7.93131H33.9258C32.3625 7.93131 30.8831 7.32123 29.7697 6.21547L27.2379 3.68365C25.7279 2.17372 23.2648 2.17372 21.7548 3.68365L19.223 6.21547C18.1172 7.32123 16.6454 7.93131 15.0669 7.93131H11.4827Z" fill="#B7500B"/>
<path d="M17.3165 61.5723L12.7409 55.9443L5.57254 57.0348L11.4903 41.7143H15.0745C16.6378 41.7143 18.1096 42.3244 19.2306 43.4301L21.7624 45.9619C21.9378 46.1373 22.1361 46.2975 22.342 46.4424L22.9978 46.8847L17.3241 61.5646L17.3165 61.5723ZM13.5645 53.8014L16.6988 57.6525L20.588 47.5939C20.5118 47.5176 20.4279 47.449 20.3593 47.3727L17.8274 44.8409C17.0954 44.1088 16.1192 43.7047 15.0897 43.7047H12.8706L8.6763 54.5488L13.5798 53.8014H13.5645Z" fill="#B7500B"/>
<path d="M31.6838 61.5723L26.0101 46.8847L26.6659 46.4424C26.8718 46.3051 27.0625 46.145 27.2455 45.9619L29.7773 43.4301C30.8831 42.3244 32.3549 41.7143 33.9335 41.7143H37.5177L43.4354 57.0348L36.267 55.9443L31.6914 61.5723H31.6838ZM28.4123 47.5939L32.3015 57.6602L35.4358 53.809L40.3393 54.5488L36.145 43.7047H33.9258C32.8887 43.7047 31.9126 44.1088 31.1881 44.8409L28.6563 47.3727C28.58 47.449 28.5038 47.5176 28.4275 47.5939H28.4123Z" fill="#B7500B"/>
<path d="M29.3045 33.3334C28.9918 33.3334 28.6716 33.2342 28.4046 33.0436L24.5002 30.2067L20.5957 33.0436C20.0542 33.4325 19.3374 33.4325 18.7959 33.0436C18.2545 32.6546 18.0333 31.9607 18.2393 31.3277L19.7339 26.7369L15.8294 23.9001C15.288 23.5111 15.0669 22.8172 15.2728 22.1842C15.4787 21.5513 16.0659 21.1242 16.7293 21.1242H21.5565L23.0512 16.5334C23.2571 15.9004 23.8443 15.4734 24.5078 15.4734C25.1712 15.4734 25.7584 15.9004 25.9643 16.5334L27.459 21.1242H32.2863C32.9497 21.1242 33.5369 21.5513 33.7428 22.1842C33.9487 22.8172 33.7276 23.5035 33.1861 23.9001L29.2816 26.7369L30.7763 31.3277C30.9822 31.9607 30.7611 32.647 30.2196 33.0436C29.9527 33.2418 29.6324 33.3334 29.3198 33.3334H29.3045ZM17.6444 22.9544L20.9846 25.3795C21.526 25.7684 21.7472 26.4624 21.5413 27.0953L20.2678 31.0151L23.6079 28.59C24.1494 28.2011 24.8662 28.2011 25.4076 28.59L28.7478 31.0151L27.4743 27.0953C27.2684 26.4624 27.4895 25.776 28.031 25.3795L31.3711 22.9544H27.2455C26.582 22.9544 25.9948 22.5274 25.7889 21.8944L24.5154 17.9747L23.2419 21.8944C23.036 22.5274 22.4488 22.9544 21.7853 22.9544H17.6444Z" fill="#B7500B"/>
</g>
</g>
</svg>
