<svg width="49" height="51" viewBox="0 0 49 51" fill="none" xmlns="http://www.w3.org/2000/svg">
<g id="Graphic Icons" clip-path="url(#clip0_859_5155)">
<path id="Vector" d="M17.1558 32.9926C17.1558 32.9926 17.162 32.9926 17.1682 32.9926C17.2611 32.9926 17.3602 32.974 17.447 32.9431C19.5473 32.1748 22.7258 31.4809 26.0901 30.7498H26.0963C31.3751 29.5973 36.8336 28.4078 39.0517 26.6915C40.9104 25.1674 42.0814 23.0112 42.3478 20.6196V20.6073C42.6452 17.1376 45.7431 7.72621 47.2301 3.20329C47.4408 2.56512 47.6576 1.90837 47.8249 1.38792C47.9612 0.960415 47.7258 0.501926 47.3045 0.365619C47.1 0.297465 46.877 0.316053 46.6849 0.415185C46.4928 0.514318 46.3503 0.681604 46.2822 0.886065C46.1211 1.38792 45.9104 2.02609 45.6874 2.69524V2.72002C44.0579 7.65187 41.0405 16.834 40.7307 20.4771C40.5015 22.4164 39.5473 24.1698 38.048 25.4152C36.1211 26.9022 30.613 28.1042 25.7431 29.1636C22.3231 29.9071 19.0889 30.6135 16.8893 31.4189C16.5176 31.5552 16.3007 31.9332 16.3689 32.3235C16.4371 32.7076 16.7654 32.9864 17.1558 32.9926Z" fill="#B7500B"/>
<path id="Vector_2" d="M31.3064 34.0397L30.5319 34.2132C30.2283 34.2813 30.0238 34.5663 30.061 34.8823C30.0982 35.1921 30.3584 35.4276 30.6682 35.4276C30.7116 35.4276 30.7611 35.4276 30.8045 35.4152L31.579 35.2417C31.9011 35.1611 32.1056 34.8328 32.0313 34.5106C31.9569 34.1884 31.6347 33.9777 31.3064 34.0459V34.0397Z" fill="#B7500B"/>
<path id="Vector_3" d="M34.4668 33.4884C34.3305 33.4078 34.157 33.383 34.0021 33.4202C33.7542 33.4822 33.5002 33.5379 33.2338 33.5999C32.9302 33.6742 32.7319 33.9593 32.7691 34.269C32.8063 34.5788 33.0665 34.8081 33.3763 34.8143C33.4197 34.8143 33.4692 34.8143 33.5188 34.7957C33.7852 34.7337 34.0454 34.6718 34.2871 34.616C34.4482 34.5788 34.5907 34.4797 34.6774 34.3434C34.7642 34.2071 34.7951 34.0336 34.7518 33.8725C34.7146 33.7114 34.6093 33.5751 34.473 33.4884H34.4668Z" fill="#B7500B"/>
<path id="Vector_4" d="M36.6416 32.72C36.4061 32.7943 36.1521 32.8687 35.8981 32.9368C35.6007 33.0174 35.4148 33.3086 35.452 33.6122C35.4953 33.9158 35.7556 34.145 36.0592 34.145C36.1149 34.145 36.1707 34.1388 36.2265 34.1202C36.4929 34.0459 36.7531 33.9715 37.0009 33.891C37.3231 33.7919 37.509 33.4449 37.4036 33.1227C37.3045 32.8005 36.9576 32.6147 36.6354 32.72H36.6416Z" fill="#B7500B"/>
<path id="Vector_5" d="M39.5778 31.6977C39.4229 31.6481 39.2494 31.6667 39.1069 31.7411C38.8963 31.8526 38.667 31.9579 38.4316 32.0633C38.1652 32.181 38.0165 32.466 38.0784 32.751C38.1404 33.036 38.3882 33.2405 38.6794 33.2405C38.6918 33.2405 38.698 33.2405 38.7104 33.2405C38.7848 33.2405 38.8591 33.2219 38.9273 33.1909C39.1813 33.0794 39.4353 32.9616 39.6769 32.8377C39.8256 32.7634 39.9372 32.6333 39.9867 32.4784C40.0363 32.3235 40.0239 32.15 39.9496 32.0075C39.8752 31.865 39.7389 31.7535 39.584 31.7039L39.5778 31.6977Z" fill="#B7500B"/>
<path id="Vector_6" d="M25.8976 35.3099L25.1231 35.502C24.8257 35.5763 24.6275 35.8675 24.6646 36.1711C24.7018 36.4747 24.962 36.7102 25.2718 36.7102C25.3214 36.7102 25.3709 36.7102 25.4143 36.6916L26.1764 36.5057C26.5048 36.4252 26.7092 36.0906 26.6225 35.7622C26.542 35.4338 26.2074 35.2294 25.879 35.3161L25.8976 35.3099Z" fill="#B7500B"/>
<path id="Vector_7" d="M29.0638 34.7399C28.9275 34.6531 28.754 34.6284 28.5991 34.6655L27.8246 34.8452C27.521 34.9196 27.3228 35.2046 27.3599 35.5144C27.3971 35.8241 27.6573 36.0534 27.9671 36.0596C28.0167 36.0596 28.0601 36.0596 28.1096 36.041L28.8717 35.8613C29.0328 35.8241 29.1691 35.725 29.2558 35.5887C29.3426 35.4524 29.3674 35.2851 29.3364 35.124C29.2992 34.9691 29.2001 34.8266 29.0638 34.7399Z" fill="#B7500B"/>
<path id="Vector_8" d="M46.3683 20.1178C46.0399 20.0248 45.7053 20.2107 45.6124 20.5391C45.5381 20.7931 45.4637 21.0471 45.3956 21.295C45.3398 21.4809 45.377 21.6791 45.4947 21.834C45.6062 21.9827 45.7859 22.0756 45.978 22.0818C45.978 22.0818 45.9842 22.0818 45.9904 22.0818C45.9965 22.0818 45.9965 22.0818 46.0027 22.0818C46.2692 22.0818 46.5046 21.896 46.579 21.6419C46.6533 21.3879 46.7276 21.1339 46.802 20.8737C46.8949 20.5515 46.7091 20.2107 46.3807 20.1178H46.3683Z" fill="#B7500B"/>
<path id="Vector_9" d="M47.7875 14.7522C47.4591 14.6655 47.1245 14.8637 47.0378 15.1921L46.8395 15.9604C46.79 16.14 46.8333 16.3383 46.9511 16.487C47.0626 16.6357 47.2423 16.7225 47.4281 16.7225C47.4281 16.7225 47.4343 16.7225 47.4405 16.7225C47.4467 16.7225 47.4405 16.7225 47.4467 16.7225C47.7193 16.7225 47.961 16.5304 48.0291 16.264L48.2274 15.4957C48.3141 15.1673 48.1159 14.8327 47.7875 14.746V14.7522Z" fill="#B7500B"/>
<path id="Vector_10" d="M41.666 30.0806C41.5049 30.0806 41.3438 30.1363 41.2261 30.2479C41.0464 30.4213 40.8544 30.5824 40.6623 30.7373C40.4578 30.8984 40.3835 31.171 40.4702 31.4189C40.557 31.6605 40.7862 31.8278 41.0464 31.8278C41.1827 31.8278 41.3129 31.7844 41.4244 31.6977C41.4244 31.6977 41.4244 31.6977 41.4306 31.6977C41.6412 31.5304 41.8519 31.3445 42.0625 31.1462C42.3104 30.917 42.3228 30.5267 42.0935 30.2788C41.982 30.1611 41.8271 30.093 41.666 30.0868V30.0806Z" fill="#B7500B"/>
<path id="Vector_11" d="M47.0932 17.4351C46.9321 17.3917 46.771 17.4165 46.6285 17.497C46.486 17.5776 46.3868 17.7139 46.3435 17.8688L46.139 18.6308C46.0523 18.953 46.2443 19.2938 46.5665 19.3805C46.6161 19.3929 46.6656 19.3991 46.7152 19.3991C46.7152 19.3991 46.7152 19.3991 46.7214 19.3991C46.7276 19.3991 46.7214 19.3991 46.7276 19.3991C47.0002 19.3991 47.2419 19.2132 47.31 18.9468L47.5145 18.1786C47.5578 18.0175 47.5331 17.8564 47.4525 17.7139C47.372 17.5714 47.2357 17.4722 47.0808 17.4289L47.0932 17.4351Z" fill="#B7500B"/>
<path id="Vector_12" d="M48.4687 12.0632C48.1404 11.9827 47.812 12.1748 47.7252 12.5031L47.5332 13.2714C47.4898 13.4511 47.5332 13.6494 47.6447 13.7981C47.7624 13.9468 47.9359 14.0335 48.128 14.0335C48.4068 14.0335 48.6546 13.8414 48.7228 13.5688L48.9148 12.8005C48.9954 12.4722 48.7971 12.1376 48.4687 12.057V12.0632Z" fill="#B7500B"/>
<path id="Vector_13" d="M43.6175 27.9617C43.475 27.8811 43.3077 27.8625 43.1528 27.9121C42.9979 27.9555 42.8678 28.0608 42.7872 28.2033C42.6571 28.4387 42.5332 28.6494 42.4093 28.8415C42.2854 29.0273 42.2792 29.269 42.3845 29.4672C42.4898 29.6593 42.6943 29.7832 42.9112 29.7894C42.9112 29.7894 42.9112 29.7894 42.9174 29.7894C42.9235 29.7894 42.9174 29.7894 42.9235 29.7894C43.128 29.7894 43.3201 29.6841 43.4316 29.5106C43.5617 29.3062 43.7042 29.0707 43.8591 28.7919C44.0202 28.4945 43.9149 28.1228 43.6175 27.9617Z" fill="#B7500B"/>
<path id="Vector_14" d="M45.5759 22.8006C45.2661 22.7014 44.9315 22.8625 44.8138 23.1661C44.8138 23.1661 44.8138 23.1723 44.8138 23.1785C44.7333 23.4325 44.6465 23.6804 44.566 23.9282C44.4607 24.2504 44.6341 24.5973 44.9501 24.7027C45.0121 24.7213 45.074 24.7336 45.136 24.7336C45.136 24.7336 45.136 24.7336 45.1422 24.7336C45.1484 24.7336 45.1422 24.7336 45.1484 24.7336C45.4086 24.7336 45.6379 24.5602 45.7184 24.3185C45.7989 24.0707 45.8857 23.8167 45.9662 23.5626C45.9662 23.5626 45.9662 23.5564 45.9662 23.5502C46.0468 23.2343 45.8733 22.9121 45.5635 22.8129L45.5759 22.8006Z" fill="#B7500B"/>
<path id="Vector_15" d="M44.6958 25.409C44.3799 25.2851 44.0267 25.44 43.9028 25.756C43.8037 26.01 43.7045 26.2517 43.6116 26.4747C43.531 26.6668 43.5496 26.8774 43.6673 27.0509C43.7789 27.2182 43.9647 27.3235 44.1692 27.3235C44.1692 27.3235 44.1692 27.3235 44.1754 27.3235C44.1816 27.3235 44.1754 27.3235 44.1816 27.3235C44.4232 27.3235 44.6463 27.1748 44.7392 26.9456C44.8383 26.704 44.9437 26.4499 45.0428 26.1959C45.1048 26.041 45.0986 25.8737 45.0304 25.725C44.9623 25.5763 44.8445 25.4586 44.6897 25.4028L44.6958 25.409Z" fill="#B7500B"/>
<path id="Vector_16" d="M24.9617 49.3371C24.6457 47.3978 23.1154 40.7993 22.6755 39.6593C21.8576 37.5527 20.9159 36.3198 19.528 35.5205C17.9295 34.6035 15.6804 34.2814 12.4462 34.5044C7.69406 34.8266 6.58501 33.891 5.54412 32.5342C4.39171 31.041 4.98031 27.3916 5.40781 24.7275C5.66184 23.1351 5.8663 21.8774 5.73 21.1153V21.0843C5.63086 20.2355 5.17237 19.4734 4.46605 18.9964C4.46605 18.9964 4.46605 18.9964 4.45986 18.9964C2.72504 17.9121 2.71265 16.4499 3.04102 15.3532C3.25168 15.3656 3.46853 15.347 3.67299 15.2975C3.84028 15.2603 4.00757 15.2045 4.16246 15.1302C4.23062 15.0992 4.45986 14.9815 4.48464 14.9691C4.48464 14.9691 4.49084 14.9691 4.49703 14.9629C4.57758 14.9133 4.67671 14.8886 4.76965 14.8886C4.86878 14.8886 4.96172 14.9195 5.04226 14.9691C5.04846 14.9691 5.06085 14.9815 5.06705 14.9815C5.19096 15.0373 5.33347 15.1116 5.48216 15.1859C5.73619 15.3161 6.02739 15.4586 6.3186 15.5763C6.77708 15.7684 7.26035 15.9232 7.74982 16.041C8.69778 16.2516 9.66432 16.357 10.6309 16.3631C10.953 16.3631 11.2752 16.3632 11.5912 16.3508C11.7399 16.3508 11.8948 16.3446 12.0435 16.3384C12.0435 16.3384 12.0497 16.3384 12.0559 16.3384L13.4437 16.2206C13.6606 16.2021 13.8589 16.1029 13.9952 15.9418C14.1377 15.7746 14.2058 15.5701 14.1872 15.3532C14.1501 14.9133 13.7659 14.5788 13.326 14.6097H13.3198C13.3136 14.6097 13.3074 14.6097 13.2951 14.6097C11.5726 14.7894 9.8378 14.7027 8.14635 14.3681C7.74982 14.2752 7.36568 14.1451 6.98774 13.9902C6.79567 13.9158 6.6098 13.8167 6.41773 13.7175C6.21946 13.6184 6.0212 13.5131 5.77337 13.4078C5.46358 13.2776 5.1414 13.1971 4.80682 13.1661H4.79443C4.60236 13.1661 4.41029 13.1847 4.22442 13.2343C4.22442 13.2343 4.22442 13.2343 4.21822 13.2343C4.02615 13.2962 3.73495 13.4201 3.5243 13.5131C3.43136 13.5503 3.33223 13.5936 3.30125 13.606C3.21451 13.6246 3.12777 13.6246 3.04102 13.5998C3.04102 13.5998 3.03483 13.5998 3.02863 13.5998C2.74982 13.5379 2.49579 13.3892 2.30373 13.1785C2.06209 12.9059 1.87622 12.5775 1.77089 12.2306C1.79567 12.0137 1.85763 11.8031 1.95057 11.6048C1.95057 11.6048 1.95057 11.6048 1.95057 11.5986C2.11166 11.2206 2.31612 10.8241 2.51438 10.4524C2.98526 9.63453 3.49951 8.54407 3.32603 7.37306C3.23929 6.78446 2.98526 6.23304 2.59493 5.77455C2.24177 5.37182 1.79567 5.03725 1.30001 4.8204C1.04598 4.70268 0.748583 4.78322 0.587492 5.01247C0.426402 5.24171 0.451185 5.5515 0.64945 5.74977H0.655646C0.655646 5.76216 0.655646 5.76216 0.655646 5.76216C0.934457 6.03477 1.18848 6.33837 1.39914 6.66674C1.57262 6.94555 1.67795 7.26154 1.71513 7.57752C1.7461 7.9121 1.70273 8.24667 1.59121 8.56265C1.44871 8.9406 1.27522 9.30615 1.06457 9.64692C1.06457 9.64692 1.06457 9.64692 1.06457 9.65311C0.835324 10.0682 0.612276 10.4772 0.407815 10.9418C0.234333 11.357 0.122808 11.7907 0.0732422 12.2368C0.0732422 12.243 0.0732422 12.2553 0.0732422 12.2615C0.0732422 12.4722 0.116613 12.6829 0.197158 12.8749C0.376836 13.4078 0.655646 13.8972 1.03359 14.3309C1.18229 14.4982 1.35577 14.6531 1.53545 14.7832C1.33099 15.4276 1.1575 16.3446 1.34338 17.3173C1.58501 18.5565 2.3409 19.5788 3.59864 20.3656C3.90843 20.5949 4.1005 20.9418 4.12529 21.326C4.12529 21.3322 4.12529 21.3384 4.12529 21.3508V21.4003C4.22442 21.896 4.01376 23.2033 3.8093 24.4672C3.30744 27.5899 2.68167 31.4747 4.2554 33.5255C5.78576 35.5143 7.4896 36.4623 12.5516 36.1215C15.5317 35.9171 17.5392 36.2021 18.8589 37.0137C19.5528 37.4412 20.2963 38.036 21.1513 40.2417C21.5231 41.2083 23.0224 47.5837 23.3508 49.585V49.6035C23.4004 50.0125 23.7473 50.3161 24.1563 50.3161C24.1687 50.3161 24.1872 50.3161 24.1996 50.3161C24.6271 50.2913 24.9679 49.9381 24.9679 49.5044C24.9679 49.4672 24.9679 49.4301 24.9617 49.3929C24.9617 49.3743 24.9617 49.3557 24.9555 49.3309L24.9617 49.3371Z" fill="#B7500B"/>
</g>
<defs>
<clipPath id="clip0_859_5155">
<rect width="48.8662" height="50" fill="white" transform="translate(0.0673828 0.322266)"/>
</clipPath>
</defs>
</svg>
