<svg width="56" height="45" viewBox="0 0 56 45" fill="none" xmlns="http://www.w3.org/2000/svg">
<g id="Icons" clip-path="url(#clip0_1697_1922)">
<path id="Vector" d="M1.74219 20.6358C1.74219 20.6358 6.77646 18.6708 12.5496 18.6708C18.3227 18.6708 22.4963 21.6182 28.2694 21.6182C34.0425 21.6182 38.4637 18.6708 43.9892 18.6708C49.5147 18.6708 54.7965 20.6358 54.7965 20.6358" stroke="#B7500B" stroke-width="1.57198" stroke-linecap="round" stroke-linejoin="round"/>
<path id="Vector_2" d="M1.74219 25.5483C1.74219 25.5483 6.77646 23.5834 12.5496 23.5834C18.3227 23.5834 22.4963 26.5308 28.2694 26.5308C34.0425 26.5308 38.4637 23.5834 43.9892 23.5834C49.5147 23.5834 54.7965 25.5483 54.7965 25.5483" stroke="#B7500B" stroke-width="1.57198" stroke-linecap="round" stroke-linejoin="round"/>
<path id="Vector_3" d="M24.3398 34.3905L28.2698 30.4606L32.1997 34.3905" stroke="#B7500B" stroke-width="1.57198" stroke-linecap="round" stroke-linejoin="round"/>
<path id="Vector_4" d="M28.2695 30.4606V44.2154" stroke="#B7500B" stroke-width="1.57198" stroke-linecap="round" stroke-linejoin="round"/>
<path id="Vector_5" d="M47.9195 10.8108L43.9895 14.7407L40.0596 10.8108" stroke="#B7500B" stroke-width="1.57198" stroke-linecap="round" stroke-linejoin="round"/>
<path id="Vector_6" d="M8.61914 10.8108L12.5491 14.7407L16.479 10.8108" stroke="#B7500B" stroke-width="1.57198" stroke-linecap="round" stroke-linejoin="round"/>
<path id="Vector_7" d="M43.9893 14.7412V0.986328" stroke="#B7500B" stroke-width="1.57198" stroke-linecap="round" stroke-linejoin="round"/>
<path id="Vector_8" d="M12.5498 14.7412V0.986328" stroke="#B7500B" stroke-width="1.57198" stroke-linecap="round" stroke-linejoin="round"/>
</g>
<defs>
<clipPath id="clip0_1697_1922">
<rect width="54.6263" height="44.8014" fill="white" transform="translate(0.956055 0.200073)"/>
</clipPath>
</defs>
</svg>
