<svg width="55" height="62" viewBox="0 0 55 62" fill="none" xmlns="http://www.w3.org/2000/svg">
<g id="Graphic Icons">
<path id="science-backed-ingredients" fill-rule="evenodd" clip-rule="evenodd" d="M35.3363 8.70814V24.8731C35.3363 26.6574 35.71 27.7859 36.6631 29.2346L53.4381 52.9179C55.9772 56.5016 52.8891 61.5723 48.5428 61.5723H6.46045C3.31133 61.5723 0.642578 58.8349 0.642578 55.7773C0.642578 54.7936 0.924703 53.8024 1.54995 52.9179L7.74145 44.172C7.81008 43.9585 7.9397 43.7679 8.1227 43.6383L18.3631 29.1813C19.2933 27.8698 19.6517 26.4896 19.6517 24.8808V8.70814C18.5308 8.70814 17.4938 8.63952 16.6246 7.70164C16.007 7.08402 15.6181 6.23002 15.6181 5.28452V1.61689C15.6181 1.03739 16.0908 0.572266 16.6703 0.572266H38.3177C38.8972 0.572266 39.3623 1.03739 39.3623 1.61689V5.29214C39.3623 7.17552 37.8221 8.71577 35.9387 8.71577H35.3287H35.3363V8.70814ZM21.7562 21.6325H25.3781V23.7294H21.7562C21.7562 26.2838 21.68 28.1138 20.0787 30.3784L10.8296 43.4324H44.1737L34.9246 30.386C33.7427 28.7238 33.2471 26.9014 33.2471 24.8731V8.70814H21.7562V11.7124H25.3781V13.8093H21.7562V16.6763H25.3781V18.7731H21.7562V21.6401V21.6325ZM45.6606 45.5216H9.35033L3.26558 54.115C2.89958 54.6259 2.73945 55.1978 2.73945 55.7696C2.73945 57.653 4.42458 59.4678 6.46045 59.4678H48.5505C51.3031 59.4678 53.2475 56.2271 51.7453 54.1074L45.6606 45.5216ZM37.2807 2.66914H17.7226V5.29214C17.7226 5.65814 17.8751 5.98602 18.1115 6.23002C18.6757 6.79427 19.6822 6.61889 20.7116 6.61889H35.954C36.6936 6.61889 37.2807 6.01652 37.2807 5.29214V2.66914Z" fill="#B7500B"/>
</g>
</svg>
