<svg width="24" height="25" viewBox="0 0 24 25" fill="none" xmlns="http://www.w3.org/2000/svg">
<g id="Icons">
<path id="Vector (Stroke)" fill-rule="evenodd" clip-rule="evenodd" d="M7.0342 3.62607C7.97448 3.23659 8.98226 3.03613 10 3.03613C11.0177 3.03613 12.0255 3.23659 12.9658 3.62607C13.9061 4.01554 14.7604 4.5864 15.4801 5.30606C16.1997 6.02571 16.7706 6.88006 17.1601 7.82034C17.5495 8.76061 17.75 9.76839 17.75 10.7861C17.75 11.8039 17.5495 12.8117 17.1601 13.7519C16.7706 14.6922 16.1997 15.5466 15.4801 16.2662C14.7604 16.9859 13.9061 17.5567 12.9658 17.9462C12.0255 18.3357 11.0177 18.5361 10 18.5361C8.98226 18.5361 7.97448 18.3357 7.0342 17.9462C6.09393 17.5567 5.23958 16.9859 4.51992 16.2662C3.80027 15.5466 3.22941 14.6922 2.83993 13.7519C2.45046 12.8117 2.25 11.8039 2.25 10.7861C2.25 9.76839 2.45046 8.76061 2.83993 7.82034C3.22941 6.88006 3.80027 6.02571 4.51992 5.30606C5.23958 4.5864 6.09393 4.01554 7.0342 3.62607ZM10 4.53613C9.17924 4.53613 8.36651 4.69779 7.60823 5.01189C6.84994 5.32598 6.16095 5.78635 5.58058 6.36672C5.00022 6.94708 4.53984 7.63608 4.22575 8.39436C3.91166 9.15265 3.75 9.96537 3.75 10.7861C3.75 11.6069 3.91166 12.4196 4.22575 13.1779C4.53984 13.9362 5.00022 14.6252 5.58058 15.2056C6.16095 15.7859 6.84994 16.2463 7.60823 16.5604C8.36651 16.8745 9.17924 17.0361 10 17.0361C10.8208 17.0361 11.6335 16.8745 12.3918 16.5604C13.1501 16.2463 13.8391 15.7859 14.4194 15.2056C14.9998 14.6252 15.4602 13.9362 15.7742 13.1779C16.0883 12.4196 16.25 11.6069 16.25 10.7861C16.25 9.96537 16.0883 9.15265 15.7742 8.39436C15.4602 7.63608 14.9998 6.94708 14.4194 6.36672C13.8391 5.78635 13.1501 5.32598 12.3918 5.01189C11.6335 4.69779 10.8208 4.53613 10 4.53613Z" fill="#43423D"/>
<path id="Vector (Stroke)_2" fill-rule="evenodd" clip-rule="evenodd" d="M14.4697 15.2558C14.7626 14.9629 15.2374 14.9629 15.5303 15.2558L21.5303 21.2558C21.8232 21.5487 21.8232 22.0236 21.5303 22.3165C21.2374 22.6094 20.7626 22.6094 20.4697 22.3165L14.4697 16.3165C14.1768 16.0236 14.1768 15.5487 14.4697 15.2558Z" fill="#43423D"/>
</g>
</svg>
