<svg width="24" height="25" viewBox="0 0 24 25" fill="none" xmlns="http://www.w3.org/2000/svg">
<g id="Icons" clip-path="url(#clip0_1435_1079)">
<path id="Vector (Stroke)" fill-rule="evenodd" clip-rule="evenodd" d="M12 4.53613C11.4033 4.53613 10.831 4.77319 10.409 5.19514C9.98709 5.6171 9.75004 6.1894 9.75004 6.78613V8.03613H14.25V6.78613C14.25 6.1894 14.013 5.6171 13.591 5.19514C13.1691 4.77319 12.5968 4.53613 12 4.53613ZM15.75 8.03613V6.78613C15.75 5.79157 15.3549 4.83774 14.6517 4.13448C13.9484 3.43122 12.9946 3.03613 12 3.03613C11.0055 3.03613 10.0516 3.43122 9.34839 4.13448C8.64512 4.83774 8.25004 5.79157 8.25004 6.78613V8.03613H6.33113M8.25004 9.53613H6.33104C6.15081 9.53611 5.97261 9.57506 5.80885 9.65032C5.64508 9.72558 5.49953 9.83536 5.38216 9.97214C5.2648 10.1089 5.1784 10.2695 5.12889 10.4427C5.07939 10.616 5.06793 10.7979 5.0953 10.976C5.0953 10.976 5.09531 10.9761 5.0953 10.976L6.3503 19.128C6.432 19.6592 6.70116 20.1438 7.10904 20.4937C7.51692 20.8437 8.0366 21.0361 8.57404 21.0361C8.57403 21.0361 8.57405 21.0361 8.57404 21.0361H15.426C15.9636 21.0363 16.4837 20.844 16.8917 20.494C17.2998 20.144 17.569 19.6595 17.6508 19.1281L18.9057 10.9761C18.9331 10.798 18.9217 10.616 18.8722 10.4427C18.8227 10.2695 18.7363 10.1089 18.6189 9.97214C18.5015 9.83536 18.356 9.72558 18.1922 9.65032C18.0285 9.57506 17.8504 9.53611 17.6701 9.53613H15.75V11.7861C15.75 12.2003 15.4143 12.5361 15 12.5361C14.5858 12.5361 14.25 12.2003 14.25 11.7861V9.53613H9.75004V11.7861C9.75004 12.2003 9.41425 12.5361 9.00004 12.5361C8.58582 12.5361 8.25004 12.2003 8.25004 11.7861V9.53613ZM15.75 8.03613H17.6699C17.6699 8.03613 17.67 8.03613 17.6699 8.03613C18.0664 8.0361 18.4583 8.12179 18.8186 8.28735C19.1788 8.45291 19.4991 8.69443 19.7573 8.99534C20.0155 9.29625 20.2056 9.64944 20.3145 10.0307C20.4234 10.4119 20.4486 10.8122 20.3883 11.2041L19.1333 19.3561C18.9971 20.2417 18.5484 21.0492 17.8683 21.6325C17.1883 22.2158 16.3219 22.5363 15.426 22.5361C15.426 22.5361 15.4261 22.5361 15.426 22.5361H8.57404C7.67829 22.5361 6.8121 22.2154 6.13229 21.6321C5.4525 21.0489 5.00395 20.2415 4.86777 19.3563C4.86776 19.3562 4.86778 19.3563 4.86777 19.3563L3.61277 11.2043C3.5525 10.8124 3.57767 10.4119 3.6866 10.0307C3.79552 9.64944 3.9856 9.29625 4.2438 8.99534C4.502 8.69443 4.82223 8.45291 5.18251 8.28735C5.54277 8.12179 5.93465 8.0361 6.33113 8.03613" fill="#43423D"/>
</g>
<defs>
<clipPath id="clip0_1435_1079">
<rect width="24" height="24" fill="white" transform="translate(0 0.786133)"/>
</clipPath>
</defs>
</svg>
