<svg width="190" height="26" viewBox="0 0 190 26" fill="none" xmlns="http://www.w3.org/2000/svg">
<path d="M11.4239 3.49932C11.7233 2.57801 13.0267 2.57801 13.3261 3.49932L14.9288 8.4322C15.0627 8.84422 15.4467 9.12318 15.8799 9.12318H21.0666C22.0354 9.12318 22.4381 10.3628 21.6544 10.9322L17.4583 13.9809C17.1078 14.2355 16.9611 14.6869 17.095 15.0989L18.6978 20.0318C18.9971 20.9531 17.9427 21.7192 17.1589 21.1498L12.9628 18.1011C12.6123 17.8465 12.1377 17.8465 11.7872 18.1011L7.59105 21.1498C6.80734 21.7192 5.75286 20.9531 6.05221 20.0318L7.655 15.0989C7.78888 14.6869 7.64222 14.2355 7.29173 13.9809L3.09557 10.9322C2.31186 10.3628 2.71464 9.12318 3.68336 9.12318H8.8701C9.30332 9.12318 9.68728 8.84422 9.82115 8.4322L11.4239 3.49932Z" fill="#FBC400"/>
<path d="M38.1739 3.49932C38.4733 2.57801 39.7767 2.57801 40.0761 3.49932L41.6788 8.4322C41.8127 8.84422 42.1967 9.12318 42.6299 9.12318H47.8166C48.7854 9.12318 49.1881 10.3628 48.4044 10.9322L44.2083 13.9809C43.8578 14.2355 43.7111 14.6869 43.845 15.0989L45.4478 20.0318C45.7471 20.9531 44.6927 21.7192 43.9089 21.1498L39.7128 18.1011C39.3623 17.8465 38.8877 17.8465 38.5372 18.1011L34.3411 21.1498C33.5573 21.7192 32.5029 20.9531 32.8022 20.0318L34.405 15.0989C34.5389 14.6869 34.3922 14.2355 34.0417 13.9809L29.8456 10.9322C29.0619 10.3628 29.4646 9.12318 30.4334 9.12318H35.6201C36.0533 9.12318 36.4373 8.84422 36.5712 8.4322L38.1739 3.49932Z" fill="#FBC400"/>
<path d="M64.9239 3.49932C65.2233 2.57801 66.5267 2.57801 66.8261 3.49932L68.4288 8.4322C68.5627 8.84422 68.9467 9.12318 69.3799 9.12318H74.5666C75.5354 9.12318 75.9381 10.3628 75.1544 10.9322L70.9583 13.9809C70.6078 14.2355 70.4611 14.6869 70.595 15.0989L72.1978 20.0318C72.4971 20.9531 71.4427 21.7192 70.6589 21.1498L66.4628 18.1011C66.1123 17.8465 65.6377 17.8465 65.2872 18.1011L61.0911 21.1498C60.3073 21.7192 59.2529 20.9531 59.5522 20.0318L61.155 15.0989C61.2889 14.6869 61.1422 14.2355 60.7917 13.9809L56.5956 10.9322C55.8119 10.3628 56.2146 9.12318 57.1834 9.12318H62.3701C62.8033 9.12318 63.1873 8.84422 63.3212 8.4322L64.9239 3.49932Z" fill="#FBC400"/>
<path d="M91.6739 3.49932C91.9733 2.57801 93.2767 2.57801 93.5761 3.49932L95.1788 8.4322C95.3127 8.84422 95.6967 9.12318 96.1299 9.12318H101.317C102.285 9.12318 102.688 10.3628 101.904 10.9322L97.7083 13.9809C97.3578 14.2355 97.2111 14.6869 97.345 15.0989L98.9478 20.0318C99.2471 20.9531 98.1927 21.7192 97.4089 21.1498L93.2128 18.1011C92.8623 17.8465 92.3877 17.8465 92.0372 18.1011L87.8411 21.1498C87.0573 21.7192 86.0029 20.9531 86.3022 20.0318L87.905 15.0989C88.0389 14.6869 87.8922 14.2355 87.5417 13.9809L83.3456 10.9322C82.5619 10.3628 82.9646 9.12318 83.9334 9.12318H89.1201C89.5533 9.12318 89.9373 8.84422 90.0712 8.4322L91.6739 3.49932Z" fill="#FBC400"/>
<path d="M118.424 3.49932C118.723 2.57801 120.027 2.57801 120.326 3.49932L121.929 8.4322C122.063 8.84422 122.447 9.12318 122.88 9.12318H128.067C129.035 9.12318 129.438 10.3628 128.654 10.9322L124.458 13.9809C124.108 14.2355 123.961 14.6869 124.095 15.0989L125.698 20.0318C125.997 20.9531 124.943 21.7192 124.159 21.1498L119.963 18.1011C119.612 17.8465 119.138 17.8465 118.787 18.1011L114.591 21.1498C113.807 21.7192 112.753 20.9531 113.052 20.0318L114.655 15.0989C114.789 14.6869 114.642 14.2355 114.292 13.9809L110.096 10.9322C109.312 10.3628 109.715 9.12318 110.683 9.12318H115.87C116.303 9.12318 116.687 8.84422 116.821 8.4322L118.424 3.49932Z" fill="#FBC400"/>
<path fill-rule="evenodd" clip-rule="evenodd" d="M123.5 9.12329V20.6712L124.159 21.1499C124.943 21.7193 125.997 20.9532 125.698 20.0319L124.095 15.099C123.961 14.687 124.108 14.2356 124.458 13.981L128.654 10.9323C129.438 10.3629 129.035 9.12329 128.067 9.12329H123.5Z" fill="#F6E6AA"/>
<path d="M138.23 15.5153V14.6873L142.442 8.85527H143.75V14.5673H144.95V15.5153H143.75V17.4473H142.67V15.5153H138.23ZM142.718 9.99527L139.49 14.5673H142.718V9.99527ZM146.569 17.5193C146.361 17.5193 146.185 17.4473 146.041 17.3033C145.897 17.1593 145.825 16.9833 145.825 16.7753C145.825 16.5673 145.897 16.3913 146.041 16.2473C146.185 16.1033 146.361 16.0313 146.569 16.0313C146.769 16.0313 146.937 16.1033 147.073 16.2473C147.217 16.3913 147.289 16.5673 147.289 16.7753C147.289 16.9833 147.217 17.1593 147.073 17.3033C146.937 17.4473 146.769 17.5193 146.569 17.5193ZM150.144 12.9353C149.696 12.7593 149.352 12.5033 149.112 12.1673C148.872 11.8313 148.752 11.4233 148.752 10.9433C148.752 10.5113 148.86 10.1233 149.076 9.77926C149.292 9.42727 149.612 9.15127 150.036 8.95127C150.468 8.74327 150.988 8.63927 151.596 8.63927C152.204 8.63927 152.72 8.74327 153.144 8.95127C153.576 9.15127 153.9 9.42727 154.116 9.77926C154.34 10.1233 154.452 10.5113 154.452 10.9433C154.452 11.4073 154.328 11.8153 154.08 12.1673C153.832 12.5113 153.492 12.7673 153.06 12.9353C153.556 13.0873 153.948 13.3553 154.236 13.7393C154.532 14.1153 154.68 14.5713 154.68 15.1073C154.68 15.6273 154.552 16.0833 154.296 16.4753C154.04 16.8593 153.676 17.1593 153.204 17.3753C152.74 17.5833 152.204 17.6873 151.596 17.6873C150.988 17.6873 150.452 17.5833 149.988 17.3753C149.532 17.1593 149.176 16.8593 148.92 16.4753C148.664 16.0833 148.536 15.6273 148.536 15.1073C148.536 14.5713 148.68 14.1113 148.968 13.7273C149.256 13.3433 149.648 13.0793 150.144 12.9353ZM153.396 11.0753C153.396 10.5873 153.236 10.2113 152.916 9.94727C152.596 9.68327 152.156 9.55127 151.596 9.55127C151.044 9.55127 150.608 9.68327 150.288 9.94727C149.968 10.2113 149.808 10.5913 149.808 11.0873C149.808 11.5353 149.972 11.8953 150.3 12.1673C150.636 12.4393 151.068 12.5753 151.596 12.5753C152.132 12.5753 152.564 12.4393 152.892 12.1673C153.228 11.8873 153.396 11.5233 153.396 11.0753ZM151.596 13.4153C151.004 13.4153 150.52 13.5553 150.144 13.8353C149.768 14.1073 149.58 14.5193 149.58 15.0713C149.58 15.5833 149.76 15.9953 150.12 16.3073C150.488 16.6193 150.98 16.7753 151.596 16.7753C152.212 16.7753 152.7 16.6193 153.06 16.3073C153.42 15.9953 153.6 15.5833 153.6 15.0713C153.6 14.5353 153.416 14.1273 153.048 13.8473C152.68 13.5593 152.196 13.4153 151.596 13.4153ZM159.119 19.6793C158.351 18.9273 157.751 17.9713 157.319 16.8113C156.895 15.6513 156.683 14.3993 156.683 13.0553C156.683 11.6793 156.907 10.3953 157.355 9.20327C157.811 8.00327 158.459 7.01527 159.299 6.23927H160.439V6.34726C159.543 7.18726 158.867 8.19927 158.411 9.38327C157.963 10.5593 157.739 11.7833 157.739 13.0553C157.739 14.2953 157.951 15.4793 158.375 16.6073C158.807 17.7353 159.435 18.7233 160.259 19.5713V19.6793H159.119ZM161.58 13.0193C161.58 11.6433 161.804 10.5713 162.252 9.80327C162.7 9.02727 163.484 8.63927 164.604 8.63927C165.716 8.63927 166.496 9.02727 166.944 9.80327C167.392 10.5713 167.616 11.6433 167.616 13.0193C167.616 14.4193 167.392 15.5073 166.944 16.2833C166.496 17.0593 165.716 17.4473 164.604 17.4473C163.484 17.4473 162.7 17.0593 162.252 16.2833C161.804 15.5073 161.58 14.4193 161.58 13.0193ZM166.536 13.0193C166.536 12.3233 166.488 11.7353 166.392 11.2553C166.304 10.7673 166.116 10.3753 165.828 10.0793C165.548 9.78327 165.14 9.63527 164.604 9.63527C164.06 9.63527 163.644 9.78327 163.356 10.0793C163.076 10.3753 162.888 10.7673 162.792 11.2553C162.704 11.7353 162.66 12.3233 162.66 13.0193C162.66 13.7393 162.704 14.3433 162.792 14.8313C162.888 15.3193 163.076 15.7113 163.356 16.0073C163.644 16.3033 164.06 16.4513 164.604 16.4513C165.14 16.4513 165.548 16.3033 165.828 16.0073C166.116 15.7113 166.304 15.3193 166.392 14.8313C166.488 14.3433 166.536 13.7393 166.536 13.0193ZM169.115 13.0193C169.115 11.6433 169.339 10.5713 169.787 9.80327C170.235 9.02727 171.019 8.63927 172.139 8.63927C173.251 8.63927 174.031 9.02727 174.479 9.80327C174.927 10.5713 175.151 11.6433 175.151 13.0193C175.151 14.4193 174.927 15.5073 174.479 16.2833C174.031 17.0593 173.251 17.4473 172.139 17.4473C171.019 17.4473 170.235 17.0593 169.787 16.2833C169.339 15.5073 169.115 14.4193 169.115 13.0193ZM174.071 13.0193C174.071 12.3233 174.023 11.7353 173.927 11.2553C173.839 10.7673 173.651 10.3753 173.363 10.0793C173.083 9.78327 172.675 9.63527 172.139 9.63527C171.595 9.63527 171.179 9.78327 170.891 10.0793C170.611 10.3753 170.423 10.7673 170.327 11.2553C170.239 11.7353 170.195 12.3233 170.195 13.0193C170.195 13.7393 170.239 14.3433 170.327 14.8313C170.423 15.3193 170.611 15.7113 170.891 16.0073C171.179 16.3033 171.595 16.4513 172.139 16.4513C172.675 16.4513 173.083 16.3033 173.363 16.0073C173.651 15.7113 173.839 15.3193 173.927 14.8313C174.023 14.3433 174.071 13.7393 174.071 13.0193ZM176.65 13.0193C176.65 11.6433 176.874 10.5713 177.322 9.80327C177.77 9.02727 178.554 8.63927 179.674 8.63927C180.786 8.63927 181.566 9.02727 182.014 9.80327C182.462 10.5713 182.686 11.6433 182.686 13.0193C182.686 14.4193 182.462 15.5073 182.014 16.2833C181.566 17.0593 180.786 17.4473 179.674 17.4473C178.554 17.4473 177.77 17.0593 177.322 16.2833C176.874 15.5073 176.65 14.4193 176.65 13.0193ZM181.606 13.0193C181.606 12.3233 181.558 11.7353 181.462 11.2553C181.374 10.7673 181.186 10.3753 180.898 10.0793C180.618 9.78327 180.21 9.63527 179.674 9.63527C179.13 9.63527 178.714 9.78327 178.426 10.0793C178.146 10.3753 177.958 10.7673 177.862 11.2553C177.774 11.7353 177.73 12.3233 177.73 13.0193C177.73 13.7393 177.774 14.3433 177.862 14.8313C177.958 15.3193 178.146 15.7113 178.426 16.0073C178.714 16.3033 179.13 16.4513 179.674 16.4513C180.21 16.4513 180.618 16.3033 180.898 16.0073C181.186 15.7113 181.374 15.3193 181.462 14.8313C181.558 14.3433 181.606 13.7393 181.606 13.0193ZM184.017 19.6793V19.5713C184.841 18.7233 185.465 17.7353 185.889 16.6073C186.321 15.4793 186.537 14.2953 186.537 13.0553C186.537 11.7833 186.309 10.5593 185.853 9.38327C185.405 8.19927 184.733 7.18726 183.837 6.34726V6.23927H184.977C185.817 7.01527 186.461 8.00327 186.909 9.20327C187.365 10.3953 187.593 11.6793 187.593 13.0553C187.593 14.3993 187.377 15.6513 186.945 16.8113C186.521 17.9713 185.925 18.9273 185.157 19.6793H184.017Z" fill="#43423D"/>
</svg>
