<svg width="182" height="74" viewBox="0 0 182 74" fill="none" xmlns="http://www.w3.org/2000/svg">
<path d="M16.0489 3.24932C16.3483 2.32801 17.6517 2.32801 17.9511 3.24932L20.48 11.0325C20.6138 11.4445 20.9978 11.7235 21.431 11.7235H29.6147C30.5835 11.7235 30.9862 12.9631 30.2025 13.5325L23.5818 18.3428C23.2313 18.5974 23.0846 19.0488 23.2185 19.4608L25.7474 27.244C26.0468 28.1653 24.9923 28.9314 24.2086 28.362L17.5878 23.5518C17.2373 23.2971 16.7627 23.2971 16.4122 23.5518L9.79144 28.362C9.00773 28.9314 7.95325 28.1653 8.2526 27.244L10.7815 19.4608C10.9154 19.0488 10.7687 18.5974 10.4182 18.3428L3.79747 13.5325C3.01375 12.9631 3.41653 11.7235 4.38525 11.7235H12.569C13.0022 11.7235 13.3862 11.4445 13.52 11.0325L16.0489 3.24932Z" fill="#FBC400"/>
<path d="M53.0489 3.24932C53.3483 2.32801 54.6517 2.32801 54.9511 3.24932L57.48 11.0325C57.6138 11.4445 57.9978 11.7235 58.431 11.7235H66.6147C67.5835 11.7235 67.9862 12.9631 67.2025 13.5325L60.5818 18.3428C60.2313 18.5974 60.0846 19.0488 60.2185 19.4608L62.7474 27.244C63.0468 28.1653 61.9923 28.9314 61.2086 28.362L54.5878 23.5518C54.2373 23.2971 53.7627 23.2971 53.4122 23.5518L46.7914 28.362C46.0077 28.9314 44.9532 28.1653 45.2526 27.244L47.7815 19.4608C47.9154 19.0488 47.7687 18.5974 47.4182 18.3428L40.7975 13.5325C40.0138 12.9631 40.4165 11.7235 41.3853 11.7235H49.569C50.0022 11.7235 50.3862 11.4445 50.52 11.0325L53.0489 3.24932Z" fill="#FBC400"/>
<path d="M90.0489 3.24932C90.3483 2.32801 91.6517 2.32801 91.9511 3.24932L94.48 11.0325C94.6138 11.4445 94.9978 11.7235 95.431 11.7235H103.615C104.583 11.7235 104.986 12.9631 104.203 13.5325L97.5818 18.3428C97.2313 18.5974 97.0846 19.0488 97.2185 19.4608L99.7474 27.244C100.047 28.1653 98.9923 28.9314 98.2086 28.362L91.5878 23.5518C91.2373 23.2971 90.7627 23.2971 90.4122 23.5518L83.7914 28.362C83.0077 28.9314 81.9532 28.1653 82.2526 27.244L84.7815 19.4608C84.9154 19.0488 84.7687 18.5974 84.4182 18.3428L77.7975 13.5325C77.0138 12.9631 77.4165 11.7235 78.3853 11.7235H86.569C87.0022 11.7235 87.3862 11.4445 87.52 11.0325L90.0489 3.24932Z" fill="#FBC400"/>
<path d="M127.049 3.24932C127.348 2.32801 128.652 2.32801 128.951 3.24932L131.48 11.0325C131.614 11.4445 131.998 11.7235 132.431 11.7235H140.615C141.583 11.7235 141.986 12.9631 141.203 13.5325L134.582 18.3428C134.231 18.5974 134.085 19.0488 134.218 19.4608L136.747 27.244C137.047 28.1653 135.992 28.9314 135.209 28.362L128.588 23.5518C128.237 23.2971 127.763 23.2971 127.412 23.5518L120.791 28.362C120.008 28.9314 118.953 28.1653 119.253 27.244L121.782 19.4608C121.915 19.0488 121.769 18.5974 121.418 18.3428L114.797 13.5325C114.014 12.9631 114.417 11.7235 115.385 11.7235H123.569C124.002 11.7235 124.386 11.4445 124.52 11.0325L127.049 3.24932Z" fill="#FBC400"/>
<path d="M164.049 3.24932C164.348 2.32801 165.652 2.32801 165.951 3.24932L168.48 11.0325C168.614 11.4445 168.998 11.7235 169.431 11.7235H177.615C178.583 11.7235 178.986 12.9631 178.203 13.5325L171.582 18.3428C171.231 18.5974 171.085 19.0488 171.218 19.4608L173.747 27.244C174.047 28.1653 172.992 28.9314 172.209 28.362L165.588 23.5518C165.237 23.2971 164.763 23.2971 164.412 23.5518L157.791 28.362C157.008 28.9314 155.953 28.1653 156.253 27.244L158.782 19.4608C158.915 19.0488 158.769 18.5974 158.418 18.3428L151.797 13.5325C151.014 12.9631 151.417 11.7235 152.385 11.7235H160.569C161.002 11.7235 161.386 11.4445 161.52 11.0325L164.049 3.24932Z" fill="#FBC400"/>
<path fill-rule="evenodd" clip-rule="evenodd" d="M170.5 11.7235V27.1207L172.209 28.3621C172.992 28.9315 174.047 28.1653 173.747 27.244L171.219 19.4608C171.085 19.0488 171.231 18.5974 171.582 18.3428L178.203 13.5325C178.986 12.9631 178.584 11.7235 177.615 11.7235H170.5Z" fill="#F6E6AA"/>
<path d="M1.07734 64.1023V62.7223L8.09734 53.0023H10.2773V62.5223H12.2773V64.1023H10.2773V67.3223H8.47734V64.1023H1.07734ZM8.55734 54.9023L3.17734 62.5223H8.55734V54.9023ZM14.9755 67.4423C14.6288 67.4423 14.3355 67.3223 14.0955 67.0823C13.8555 66.8423 13.7355 66.5489 13.7355 66.2023C13.7355 65.8556 13.8555 65.5623 14.0955 65.3223C14.3355 65.0823 14.6288 64.9623 14.9755 64.9623C15.3088 64.9623 15.5888 65.0823 15.8155 65.3223C16.0555 65.5623 16.1755 65.8556 16.1755 66.2023C16.1755 66.5489 16.0555 66.8423 15.8155 67.0823C15.5888 67.3223 15.3088 67.4423 14.9755 67.4423ZM20.9347 59.8023C20.188 59.5089 19.6147 59.0823 19.2147 58.5223C18.8147 57.9623 18.6147 57.2823 18.6147 56.4823C18.6147 55.7623 18.7947 55.1156 19.1547 54.5423C19.5147 53.9556 20.048 53.4956 20.7547 53.1623C21.4747 52.8156 22.3414 52.6423 23.3547 52.6423C24.368 52.6423 25.228 52.8156 25.9347 53.1623C26.6547 53.4956 27.1947 53.9556 27.5547 54.5423C27.928 55.1156 28.1147 55.7623 28.1147 56.4823C28.1147 57.2556 27.908 57.9356 27.4947 58.5223C27.0814 59.0956 26.5147 59.5223 25.7947 59.8023C26.6214 60.0556 27.2747 60.5023 27.7547 61.1423C28.248 61.7689 28.4947 62.5289 28.4947 63.4223C28.4947 64.2889 28.2814 65.0489 27.8547 65.7023C27.428 66.3423 26.8214 66.8423 26.0347 67.2023C25.2614 67.5489 24.368 67.7223 23.3547 67.7223C22.3414 67.7223 21.448 67.5489 20.6747 67.2023C19.9147 66.8423 19.3214 66.3423 18.8947 65.7023C18.468 65.0489 18.2547 64.2889 18.2547 63.4223C18.2547 62.5289 18.4947 61.7623 18.9747 61.1223C19.4547 60.4823 20.108 60.0423 20.9347 59.8023ZM26.3547 56.7023C26.3547 55.8889 26.088 55.2623 25.5547 54.8223C25.0214 54.3823 24.288 54.1623 23.3547 54.1623C22.4347 54.1623 21.708 54.3823 21.1747 54.8223C20.6414 55.2623 20.3747 55.8956 20.3747 56.7223C20.3747 57.4689 20.648 58.0689 21.1947 58.5223C21.7547 58.9756 22.4747 59.2023 23.3547 59.2023C24.248 59.2023 24.968 58.9756 25.5147 58.5223C26.0747 58.0556 26.3547 57.4489 26.3547 56.7023ZM23.3547 60.6023C22.368 60.6023 21.5614 60.8356 20.9347 61.3023C20.308 61.7556 19.9947 62.4423 19.9947 63.3623C19.9947 64.2156 20.2947 64.9023 20.8947 65.4223C21.508 65.9423 22.328 66.2023 23.3547 66.2023C24.3814 66.2023 25.1947 65.9423 25.7947 65.4223C26.3947 64.9023 26.6947 64.2156 26.6947 63.3623C26.6947 62.4689 26.388 61.7889 25.7747 61.3223C25.1614 60.8423 24.3547 60.6023 23.3547 60.6023ZM41.3239 67.5023C40.2972 67.5023 39.3639 67.2689 38.5239 66.8023C37.6972 66.3356 37.0439 65.6756 36.5639 64.8223C36.0972 63.9556 35.8639 62.9556 35.8639 61.8223C35.8639 60.7023 36.1039 59.7156 36.5839 58.8623C37.0772 57.9956 37.7439 57.3356 38.5839 56.8823C39.4239 56.4156 40.3639 56.1823 41.4039 56.1823C42.4439 56.1823 43.3839 56.4156 44.2239 56.8823C45.0639 57.3356 45.7239 57.9889 46.2039 58.8423C46.6972 59.6956 46.9439 60.6889 46.9439 61.8223C46.9439 62.9556 46.6906 63.9556 46.1839 64.8223C45.6906 65.6756 45.0172 66.3356 44.1639 66.8023C43.3106 67.2689 42.3639 67.5023 41.3239 67.5023ZM41.3239 65.9023C41.9772 65.9023 42.5906 65.7489 43.1639 65.4423C43.7372 65.1356 44.1972 64.6756 44.5439 64.0623C44.9039 63.4489 45.0839 62.7023 45.0839 61.8223C45.0839 60.9423 44.9106 60.1956 44.5639 59.5823C44.2172 58.9689 43.7639 58.5156 43.2039 58.2223C42.6439 57.9156 42.0372 57.7623 41.3839 57.7623C40.7172 57.7623 40.1039 57.9156 39.5439 58.2223C38.9972 58.5156 38.5572 58.9689 38.2239 59.5823C37.8906 60.1956 37.7239 60.9423 37.7239 61.8223C37.7239 62.7156 37.8839 63.4689 38.2039 64.0823C38.5372 64.6956 38.9772 65.1556 39.5239 65.4623C40.0706 65.7556 40.6706 65.9023 41.3239 65.9023ZM59.0569 56.3623V67.3223H57.2369V65.7023C56.8902 66.2623 56.4035 66.7023 55.7769 67.0223C55.1635 67.3289 54.4835 67.4823 53.7369 67.4823C52.8835 67.4823 52.1169 67.3089 51.4369 66.9623C50.7569 66.6023 50.2169 66.0689 49.8169 65.3623C49.4302 64.6556 49.2369 63.7956 49.2369 62.7823V56.3623H51.0369V62.5423C51.0369 63.6223 51.3102 64.4556 51.8569 65.0423C52.4035 65.6156 53.1502 65.9023 54.0969 65.9023C55.0702 65.9023 55.8369 65.6023 56.3969 65.0023C56.9569 64.4023 57.2369 63.5289 57.2369 62.3823V56.3623H59.0569ZM64.3498 57.8623V64.3223C64.3498 64.8556 64.4632 65.2356 64.6898 65.4623C64.9165 65.6756 65.3098 65.7823 65.8698 65.7823H67.2098V67.3223H65.5698C64.5565 67.3223 63.7965 67.0889 63.2898 66.6223C62.7832 66.1556 62.5298 65.3889 62.5298 64.3223V57.8623H61.1098V56.3623H62.5298V53.6023H64.3498V56.3623H67.2098V57.8623H64.3498ZM79.527 67.5023C78.5004 67.5023 77.567 67.2689 76.727 66.8023C75.9004 66.3356 75.247 65.6756 74.767 64.8223C74.3004 63.9556 74.067 62.9556 74.067 61.8223C74.067 60.7023 74.307 59.7156 74.787 58.8623C75.2804 57.9956 75.947 57.3356 76.787 56.8823C77.627 56.4156 78.567 56.1823 79.607 56.1823C80.647 56.1823 81.587 56.4156 82.427 56.8823C83.267 57.3356 83.927 57.9889 84.407 58.8423C84.9004 59.6956 85.147 60.6889 85.147 61.8223C85.147 62.9556 84.8937 63.9556 84.387 64.8223C83.8937 65.6756 83.2204 66.3356 82.367 66.8023C81.5137 67.2689 80.567 67.5023 79.527 67.5023ZM79.527 65.9023C80.1804 65.9023 80.7937 65.7489 81.367 65.4423C81.9404 65.1356 82.4004 64.6756 82.747 64.0623C83.107 63.4489 83.287 62.7023 83.287 61.8223C83.287 60.9423 83.1137 60.1956 82.767 59.5823C82.4204 58.9689 81.967 58.5156 81.407 58.2223C80.847 57.9156 80.2404 57.7623 79.587 57.7623C78.9204 57.7623 78.307 57.9156 77.747 58.2223C77.2004 58.5156 76.7604 58.9689 76.427 59.5823C76.0937 60.1956 75.927 60.9423 75.927 61.8223C75.927 62.7156 76.087 63.4689 76.407 64.0823C76.7404 64.6956 77.1804 65.1556 77.727 65.4623C78.2737 65.7556 78.8737 65.9023 79.527 65.9023ZM92 57.8623H89.7V67.3223H87.88V57.8623H86.46V56.3623H87.88V55.5823C87.88 54.3556 88.1933 53.4623 88.82 52.9023C89.46 52.3289 90.48 52.0423 91.88 52.0423V53.5623C91.08 53.5623 90.5133 53.7223 90.18 54.0423C89.86 54.3489 89.7 54.8623 89.7 55.5823V56.3623H92V57.8623ZM108.374 54.4423H101.354V59.0023C101.661 58.5756 102.114 58.2289 102.714 57.9623C103.314 57.6823 103.961 57.5423 104.654 57.5423C105.761 57.5423 106.661 57.7756 107.354 58.2423C108.047 58.6956 108.541 59.2889 108.834 60.0223C109.141 60.7423 109.294 61.5089 109.294 62.3223C109.294 63.2823 109.114 64.1423 108.754 64.9023C108.394 65.6623 107.841 66.2623 107.094 66.7023C106.361 67.1423 105.447 67.3623 104.354 67.3623C102.954 67.3623 101.821 67.0023 100.954 66.2823C100.087 65.5623 99.5607 64.6023 99.3741 63.4023H101.154C101.327 64.1623 101.694 64.7556 102.254 65.1823C102.814 65.6089 103.521 65.8223 104.374 65.8223C105.427 65.8223 106.221 65.5089 106.754 64.8823C107.287 64.2423 107.554 63.4023 107.554 62.3623C107.554 61.3223 107.287 60.5223 106.754 59.9623C106.221 59.3889 105.434 59.1023 104.394 59.1023C103.687 59.1023 103.067 59.2756 102.534 59.6223C102.014 59.9556 101.634 60.4156 101.394 61.0023H99.6741V52.8423H108.374V54.4423ZM112.593 67.4423C112.246 67.4423 111.953 67.3223 111.713 67.0823C111.473 66.8423 111.353 66.5489 111.353 66.2023C111.353 65.8556 111.473 65.5623 111.713 65.3223C111.953 65.0823 112.246 64.9623 112.593 64.9623C112.926 64.9623 113.206 65.0823 113.433 65.3223C113.673 65.5623 113.793 65.8556 113.793 66.2023C113.793 66.5489 113.673 66.8423 113.433 67.0823C113.206 67.3223 112.926 67.4423 112.593 67.4423ZM115.912 59.9423C115.912 57.6489 116.285 55.8623 117.032 54.5823C117.779 53.2889 119.085 52.6423 120.952 52.6423C122.805 52.6423 124.105 53.2889 124.852 54.5823C125.599 55.8623 125.972 57.6489 125.972 59.9423C125.972 62.2756 125.599 64.0889 124.852 65.3823C124.105 66.6756 122.805 67.3223 120.952 67.3223C119.085 67.3223 117.779 66.6756 117.032 65.3823C116.285 64.0889 115.912 62.2756 115.912 59.9423ZM124.172 59.9423C124.172 58.7823 124.092 57.8023 123.932 57.0023C123.785 56.1889 123.472 55.5356 122.992 55.0423C122.525 54.5489 121.845 54.3023 120.952 54.3023C120.045 54.3023 119.352 54.5489 118.872 55.0423C118.405 55.5356 118.092 56.1889 117.932 57.0023C117.785 57.8023 117.712 58.7823 117.712 59.9423C117.712 61.1423 117.785 62.1489 117.932 62.9623C118.092 63.7756 118.405 64.4289 118.872 64.9223C119.352 65.4156 120.045 65.6623 120.952 65.6623C121.845 65.6623 122.525 65.4156 122.992 64.9223C123.472 64.4289 123.785 63.7756 123.932 62.9623C124.092 62.1489 124.172 61.1423 124.172 59.9423ZM137.983 67.5023C137.143 67.5023 136.389 67.3623 135.723 67.0823C135.056 66.7889 134.529 66.3889 134.143 65.8823C133.756 65.3623 133.543 64.7689 133.503 64.1023H135.383C135.436 64.6489 135.689 65.0956 136.143 65.4423C136.609 65.7889 137.216 65.9623 137.963 65.9623C138.656 65.9623 139.203 65.8089 139.603 65.5023C140.003 65.1956 140.203 64.8089 140.203 64.3423C140.203 63.8623 139.989 63.5089 139.563 63.2823C139.136 63.0423 138.476 62.8089 137.583 62.5823C136.769 62.3689 136.103 62.1556 135.583 61.9423C135.076 61.7156 134.636 61.3889 134.263 60.9623C133.903 60.5223 133.723 59.9489 133.723 59.2423C133.723 58.6823 133.889 58.1689 134.223 57.7023C134.556 57.2356 135.029 56.8689 135.643 56.6023C136.256 56.3223 136.956 56.1823 137.743 56.1823C138.956 56.1823 139.936 56.4889 140.683 57.1023C141.429 57.7156 141.829 58.5556 141.883 59.6223H140.063C140.023 59.0489 139.789 58.5889 139.363 58.2423C138.949 57.8956 138.389 57.7223 137.683 57.7223C137.029 57.7223 136.509 57.8623 136.123 58.1423C135.736 58.4223 135.543 58.7889 135.543 59.2423C135.543 59.6023 135.656 59.9023 135.883 60.1423C136.123 60.3689 136.416 60.5556 136.763 60.7023C137.123 60.8356 137.616 60.9889 138.243 61.1623C139.029 61.3756 139.669 61.5889 140.163 61.8023C140.656 62.0023 141.076 62.3089 141.423 62.7223C141.783 63.1356 141.969 63.6756 141.983 64.3423C141.983 64.9423 141.816 65.4823 141.483 65.9623C141.149 66.4423 140.676 66.8223 140.063 67.1023C139.463 67.3689 138.769 67.5023 137.983 67.5023ZM146.772 57.8623V64.3223C146.772 64.8556 146.885 65.2356 147.112 65.4623C147.338 65.6756 147.732 65.7823 148.292 65.7823H149.632V67.3223H147.992C146.978 67.3223 146.218 67.0889 145.712 66.6223C145.205 66.1556 144.952 65.3889 144.952 64.3223V57.8623H143.532V56.3623H144.952V53.6023H146.772V56.3623H149.632V57.8623H146.772ZM151.157 61.8023C151.157 60.6823 151.384 59.7023 151.837 58.8623C152.29 58.0089 152.91 57.3489 153.697 56.8823C154.497 56.4156 155.384 56.1823 156.357 56.1823C157.317 56.1823 158.15 56.3889 158.857 56.8023C159.564 57.2156 160.09 57.7356 160.437 58.3623V56.3623H162.277V67.3223H160.437V65.2823C160.077 65.9223 159.537 66.4556 158.817 66.8823C158.11 67.2956 157.284 67.5023 156.337 67.5023C155.364 67.5023 154.484 67.2623 153.697 66.7823C152.91 66.3023 152.29 65.6289 151.837 64.7623C151.384 63.8956 151.157 62.9089 151.157 61.8023ZM160.437 61.8223C160.437 60.9956 160.27 60.2756 159.937 59.6623C159.604 59.0489 159.15 58.5823 158.577 58.2623C158.017 57.9289 157.397 57.7623 156.717 57.7623C156.037 57.7623 155.417 57.9223 154.857 58.2423C154.297 58.5623 153.85 59.0289 153.517 59.6423C153.184 60.2556 153.017 60.9756 153.017 61.8023C153.017 62.6423 153.184 63.3756 153.517 64.0023C153.85 64.6156 154.297 65.0889 154.857 65.4223C155.417 65.7423 156.037 65.9023 156.717 65.9023C157.397 65.9023 158.017 65.7423 158.577 65.4223C159.15 65.0889 159.604 64.6156 159.937 64.0023C160.27 63.3756 160.437 62.6489 160.437 61.8223ZM167.173 58.1423C167.493 57.5156 167.946 57.0289 168.533 56.6823C169.133 56.3356 169.859 56.1623 170.713 56.1623V58.0423H170.233C168.193 58.0423 167.173 59.1489 167.173 61.3623V67.3223H165.353V56.3623H167.173V58.1423ZM176.693 67.5023C175.853 67.5023 175.1 67.3623 174.433 67.0823C173.767 66.7889 173.24 66.3889 172.853 65.8823C172.467 65.3623 172.253 64.7689 172.213 64.1023H174.093C174.147 64.6489 174.4 65.0956 174.853 65.4423C175.32 65.7889 175.927 65.9623 176.673 65.9623C177.367 65.9623 177.913 65.8089 178.313 65.5023C178.713 65.1956 178.913 64.8089 178.913 64.3423C178.913 63.8623 178.7 63.5089 178.273 63.2823C177.847 63.0423 177.187 62.8089 176.293 62.5823C175.48 62.3689 174.813 62.1556 174.293 61.9423C173.787 61.7156 173.347 61.3889 172.973 60.9623C172.613 60.5223 172.433 59.9489 172.433 59.2423C172.433 58.6823 172.6 58.1689 172.933 57.7023C173.267 57.2356 173.74 56.8689 174.353 56.6023C174.967 56.3223 175.667 56.1823 176.453 56.1823C177.667 56.1823 178.647 56.4889 179.393 57.1023C180.14 57.7156 180.54 58.5556 180.593 59.6223H178.773C178.733 59.0489 178.5 58.5889 178.073 58.2423C177.66 57.8956 177.1 57.7223 176.393 57.7223C175.74 57.7223 175.22 57.8623 174.833 58.1423C174.447 58.4223 174.253 58.7889 174.253 59.2423C174.253 59.6023 174.367 59.9023 174.593 60.1423C174.833 60.3689 175.127 60.5556 175.473 60.7023C175.833 60.8356 176.327 60.9889 176.953 61.1623C177.74 61.3756 178.38 61.5889 178.873 61.8023C179.367 62.0023 179.787 62.3089 180.133 62.7223C180.493 63.1356 180.68 63.6756 180.693 64.3423C180.693 64.9423 180.527 65.4823 180.193 65.9623C179.86 66.4423 179.387 66.8223 178.773 67.1023C178.173 67.3689 177.48 67.5023 176.693 67.5023Z" fill="#43423D"/>
</svg>
