<svg width="181" height="34" viewBox="0 0 181 34" fill="none" xmlns="http://www.w3.org/2000/svg">
<path d="M15.5489 3.49932C15.8483 2.57801 17.1517 2.57801 17.4511 3.49932L19.98 11.2825C20.1138 11.6945 20.4978 11.9735 20.931 11.9735H29.1147C30.0835 11.9735 30.4862 13.2131 29.7025 13.7825L23.0818 18.5928C22.7313 18.8474 22.5846 19.2988 22.7185 19.7108L25.2474 27.494C25.5468 28.4153 24.4923 29.1814 23.7086 28.612L17.0878 23.8018C16.7373 23.5471 16.2627 23.5471 15.9122 23.8018L9.29144 28.612C8.50773 29.1814 7.45325 28.4153 7.7526 27.494L10.2815 19.7108C10.4154 19.2988 10.2687 18.8474 9.91824 18.5928L3.29747 13.7825C2.51375 13.2131 2.91653 11.9735 3.88525 11.9735H12.069C12.5022 11.9735 12.8862 11.6945 13.02 11.2825L15.5489 3.49932Z" fill="#FBC400"/>
<path d="M52.5489 3.49932C52.8483 2.57801 54.1517 2.57801 54.4511 3.49932L56.98 11.2825C57.1138 11.6945 57.4978 11.9735 57.931 11.9735H66.1147C67.0835 11.9735 67.4862 13.2131 66.7025 13.7825L60.0818 18.5928C59.7313 18.8474 59.5846 19.2988 59.7185 19.7108L62.2474 27.494C62.5468 28.4153 61.4923 29.1814 60.7086 28.612L54.0878 23.8018C53.7373 23.5471 53.2627 23.5471 52.9122 23.8018L46.2914 28.612C45.5077 29.1814 44.4532 28.4153 44.7526 27.494L47.2815 19.7108C47.4154 19.2988 47.2687 18.8474 46.9182 18.5928L40.2975 13.7825C39.5138 13.2131 39.9165 11.9735 40.8853 11.9735H49.069C49.5022 11.9735 49.8862 11.6945 50.02 11.2825L52.5489 3.49932Z" fill="#FBC400"/>
<path d="M89.5489 3.49932C89.8483 2.57801 91.1517 2.57801 91.4511 3.49932L93.98 11.2825C94.1138 11.6945 94.4978 11.9735 94.931 11.9735H103.115C104.083 11.9735 104.486 13.2131 103.703 13.7825L97.0818 18.5928C96.7313 18.8474 96.5846 19.2988 96.7185 19.7108L99.2474 27.494C99.5468 28.4153 98.4923 29.1814 97.7086 28.612L91.0878 23.8018C90.7373 23.5471 90.2627 23.5471 89.9122 23.8018L83.2914 28.612C82.5077 29.1814 81.4532 28.4153 81.7526 27.494L84.2815 19.7108C84.4154 19.2988 84.2687 18.8474 83.9182 18.5928L77.2975 13.7825C76.5138 13.2131 76.9165 11.9735 77.8853 11.9735H86.069C86.5022 11.9735 86.8862 11.6945 87.02 11.2825L89.5489 3.49932Z" fill="#FBC400"/>
<path d="M126.549 3.49932C126.848 2.57801 128.152 2.57801 128.451 3.49932L130.98 11.2825C131.114 11.6945 131.498 11.9735 131.931 11.9735H140.115C141.083 11.9735 141.486 13.2131 140.703 13.7825L134.082 18.5928C133.731 18.8474 133.585 19.2988 133.718 19.7108L136.247 27.494C136.547 28.4153 135.492 29.1814 134.709 28.612L128.088 23.8018C127.737 23.5471 127.263 23.5471 126.912 23.8018L120.291 28.612C119.508 29.1814 118.453 28.4153 118.753 27.494L121.282 19.7108C121.415 19.2988 121.269 18.8474 120.918 18.5928L114.297 13.7825C113.514 13.2131 113.917 11.9735 114.885 11.9735H123.069C123.502 11.9735 123.886 11.6945 124.02 11.2825L126.549 3.49932Z" fill="#FBC400"/>
<path d="M163.549 3.49932C163.848 2.57801 165.152 2.57801 165.451 3.49932L167.98 11.2825C168.114 11.6945 168.498 11.9735 168.931 11.9735H177.115C178.083 11.9735 178.486 13.2131 177.703 13.7825L171.082 18.5928C170.731 18.8474 170.585 19.2988 170.718 19.7108L173.247 27.494C173.547 28.4153 172.492 29.1814 171.709 28.612L165.088 23.8018C164.737 23.5471 164.263 23.5471 163.912 23.8018L157.291 28.612C156.508 29.1814 155.453 28.4153 155.753 27.494L158.282 19.7108C158.415 19.2988 158.269 18.8474 157.918 18.5928L151.297 13.7825C150.514 13.2131 150.917 11.9735 151.885 11.9735H160.069C160.502 11.9735 160.886 11.6945 161.02 11.2825L163.549 3.49932Z" fill="#FBC400"/>
</svg>
