<svg width="45" height="51" viewBox="0 0 45 51" fill="none" xmlns="http://www.w3.org/2000/svg">
<g id="Graphic Icons" clip-path="url(#clip0_738_20527)">
<path id="Vector" d="M28.9361 30.741H28.9604C29.7936 30.7366 30.6142 30.521 31.3361 30.1154C34.0567 28.5948 36.2892 26.4354 37.9723 23.6979C38.7161 22.486 38.8536 21.026 38.3511 19.6929C37.8598 18.4041 36.8267 17.4416 35.5167 17.0523C32.0779 16.036 28.7254 14.5529 25.5511 12.6441C23.0073 11.1148 20.5723 9.30976 18.3129 7.27914C14.3411 3.70977 12.3617 0.766641 12.3473 0.741641C12.1986 0.518516 11.9517 0.366016 11.6736 0.327266C11.6386 0.323516 11.6036 0.322266 11.5692 0.322266C11.3248 0.322266 11.0979 0.409766 10.9254 0.574141L1.26419 9.51414C1.05107 9.70852 0.939818 9.99352 0.959818 10.296C0.988568 10.5891 1.15169 10.8554 1.39607 11.006L16.5748 20.6929L25.5098 29.3454C26.4098 30.2454 27.6261 30.741 28.9361 30.741ZM17.7336 19.2029C17.7098 19.1854 17.6867 19.1685 17.6654 19.1516L3.45107 10.0754L11.4261 2.69852L11.4886 2.78039C12.6579 4.30852 15.2036 7.34102 19.1123 10.4848C23.9336 14.3629 29.2736 17.1866 34.9842 18.8785C35.7279 19.0973 36.3111 19.6404 36.5823 20.3679C36.8748 21.1379 36.7961 21.9873 36.3654 22.6973C34.8686 25.136 32.8661 27.0748 30.4142 28.4598C29.9561 28.7166 29.4479 28.8416 28.9423 28.8416C28.1723 28.8416 27.4073 28.5516 26.8317 27.9954L17.8329 19.2785C17.7992 19.2504 17.7654 19.226 17.7336 19.2023V19.2029Z" fill="#B7500B"/>
<path id="Vector_2" d="M27.3536 33.5491L27.3399 33.5529C25.2655 34.1841 23.6411 35.7629 23.0986 37.6766C22.7655 38.8841 22.7186 40.236 22.9549 41.8085C23.0424 42.4116 23.0593 43.0523 23.008 43.8254L22.7049 48.3316C22.6661 48.8491 23.0424 49.2916 23.5605 49.3398L33.7711 50.3223H33.8711C34.3036 50.3223 34.6911 50.0185 34.7936 49.5998L35.4943 46.8391C35.7036 45.9923 36.0161 45.1929 36.4236 44.4641C37.2468 42.9948 37.753 41.6304 37.9705 40.2923C38.1843 39.0179 37.7786 37.6435 36.8843 36.616C34.238 33.5854 30.853 32.4966 27.3536 33.5498V33.5491ZM36.0861 39.9773L36.0793 40.0179C35.8836 41.1354 35.448 42.2848 34.748 43.531C34.2661 44.3929 33.8893 45.3485 33.628 46.3729L33.1274 48.3429L24.6549 47.5323L24.9018 43.9591C24.9643 43.0091 24.9411 42.2354 24.8299 41.5235C24.6293 40.2148 24.6611 39.1248 24.9261 38.1898C25.2905 36.8935 26.4286 35.8154 27.8961 35.3754C31.4043 34.3185 33.9336 36.1548 35.438 37.8816C35.9655 38.4635 36.2086 39.2473 36.0868 39.9766L36.0861 39.9773Z" fill="#B7500B"/>
<path id="Vector_3" d="M40.3842 24.3116C38.298 24.3116 36.7249 27.0535 36.7249 30.6891C36.7249 34.3248 38.298 37.0666 40.3842 37.0666C42.4705 37.0666 44.0436 34.3248 44.0436 30.6891C44.0436 27.0535 42.4705 24.3116 40.3842 24.3116ZM40.3842 35.1635C39.6849 35.1635 38.628 33.3785 38.628 30.6891C38.628 27.9998 39.6849 26.2148 40.3842 26.2148C41.0836 26.2148 42.1405 27.9998 42.1405 30.6891C42.1405 33.3785 41.0836 35.1635 40.3842 35.1635Z" fill="#B7500B"/>
</g>
<defs>
<clipPath id="clip0_738_20527">
<rect width="43.0856" height="50" fill="white" transform="translate(0.957275 0.322266)"/>
</clipPath>
</defs>
</svg>
