<svg width="19" height="20" viewBox="0 0 19 20" fill="none" xmlns="http://www.w3.org/2000/svg">
<g id="Icons" clip-path="url(#clip0_843_4361)">
<path id="Vector (Stroke)" fill-rule="evenodd" clip-rule="evenodd" d="M13.0385 2.45516C13.2704 2.22328 13.6463 2.22328 13.8782 2.45516L16.2532 4.83016C16.4851 5.06203 16.4851 5.43797 16.2532 5.66984L13.8782 8.04484C13.6463 8.27672 13.2704 8.27672 13.0385 8.04484C12.8066 7.81297 12.8066 7.43703 13.0385 7.20516L14.3999 5.84375H5.54169C5.06927 5.84375 4.6162 6.03142 4.28215 6.36547C3.9481 6.69952 3.76044 7.15258 3.76044 7.625V10C3.76044 10.3279 3.49461 10.5938 3.16669 10.5938C2.83877 10.5938 2.57294 10.3279 2.57294 10V7.625C2.57294 6.83764 2.88572 6.08253 3.44246 5.52578C3.99921 4.96903 4.75433 4.65625 5.54169 4.65625H14.3999L13.0385 3.29484C12.8066 3.06297 12.8066 2.68703 13.0385 2.45516ZM15.8334 9.40625C16.1613 9.40625 16.4271 9.67208 16.4271 10V12.375C16.4271 13.1624 16.1143 13.9175 15.5576 14.4742C15.0008 15.031 14.2457 15.3438 13.4584 15.3438H4.60013L5.96153 16.7052C6.19341 16.937 6.19341 17.313 5.96153 17.5448C5.72966 17.7767 5.35372 17.7767 5.12184 17.5448L2.74684 15.1698C2.51497 14.938 2.51497 14.562 2.74684 14.3302L5.12184 11.9552C5.35372 11.7233 5.72966 11.7233 5.96153 11.9552C6.19341 12.187 6.19341 12.563 5.96153 12.7948L4.60013 14.1562H13.4584C13.9308 14.1562 14.3838 13.9686 14.7179 13.6345C15.0519 13.3005 15.2396 12.8474 15.2396 12.375V10C15.2396 9.67208 15.5054 9.40625 15.8334 9.40625Z" fill="#43423D"/>
</g>
<defs>
<clipPath id="clip0_843_4361">
<rect width="19" height="19" fill="white" transform="translate(0 0.5)"/>
</clipPath>
</defs>
</svg>
