<svg width="39" height="62" viewBox="0 0 39 62" fill="none" xmlns="http://www.w3.org/2000/svg">
<g id="Graphic Icons" clip-path="url(#clip0_1253_15195)">
<path id="Vector" d="M33.0151 6.10043C29.6372 2.59293 25.1079 0.557055 20.2508 0.358805C15.3937 0.16818 10.7043 1.83805 7.05956 5.07105C3.42244 8.30406 1.20356 12.7571 0.822313 17.6066C0.441063 22.4637 1.92794 27.2064 5.01606 30.9656C8.10419 34.7323 12.4657 37.1189 17.2999 37.6908L18.2073 37.7976V47.1687H7.86019C7.18156 47.2221 6.64781 47.7863 6.64781 48.4726C6.64781 49.1588 7.22731 49.7764 7.94406 49.7764H18.1997V60.0321C18.1997 60.7488 18.7868 61.3359 19.5036 61.3359C20.2203 61.3359 20.8074 60.7488 20.8074 60.0321V49.7764H31.0631C31.7722 49.7764 32.3517 49.1893 32.3517 48.4726C32.3517 47.7558 31.7722 47.1763 31.0554 47.1687H20.7998V37.8052L21.6996 37.6984C26.2517 37.1494 30.4454 34.9611 33.4954 31.5374C36.5073 28.1519 38.1848 23.8057 38.2306 19.2841V19.1087C38.2306 14.2363 36.3777 9.62318 33.0074 6.11568L33.0151 6.10043ZM34.3952 25.2697C33.5793 27.2369 32.4051 28.9983 30.9029 30.5004C29.4008 32.0026 27.6394 33.1844 25.6722 34.0003C23.7049 34.8162 21.6309 35.2279 19.5036 35.2279C17.3762 35.2279 15.3022 34.8086 13.3349 33.9927C11.3677 33.1768 9.60631 32.0026 8.10419 30.4928C6.60206 28.9907 5.42019 27.2293 4.60431 25.2621C3.91806 23.6151 3.52156 21.8842 3.40719 20.1152H3.37669V19.2078C3.37669 19.1697 3.37669 19.1316 3.37669 19.0858V17.9192H3.41481C3.53681 16.1959 3.93331 14.5184 4.60431 12.9096C5.42019 10.9423 6.59444 9.18093 8.09656 7.6788C9.59869 6.17668 11.3601 4.9948 13.3273 4.18656C15.2946 3.37068 17.3686 2.95893 19.4959 2.95893C21.6233 2.95893 23.6973 3.37068 25.6646 4.18656C27.6318 5.00243 29.3932 6.17668 30.8953 7.6788C32.3974 9.18093 33.5793 10.9423 34.3876 12.9096C35.2034 14.8768 35.6152 16.9508 35.6152 19.0782C35.6152 21.2056 35.2034 23.2872 34.3876 25.2544L34.3952 25.2697Z" fill="#B7500B"/>
</g>
<defs>
<clipPath id="clip0_1253_15195">
<rect width="37.4769" height="61" fill="white" transform="translate(0.761719 0.572266)"/>
</clipPath>
</defs>
</svg>
