<svg width="51" height="62" viewBox="0 0 51 62" fill="none" xmlns="http://www.w3.org/2000/svg">
<g id="Graphic Icons" clip-path="url(#clip0_1253_15213)">
<path id="Vector" fill-rule="evenodd" clip-rule="evenodd" d="M50.4879 10.9957C50.4879 10.5153 50.1753 10.0959 49.7102 9.97391C41.1549 7.76266 33.3698 4.51441 25.9888 0.686662C25.6762 0.526537 25.3178 0.526537 24.9975 0.694287C17.7614 4.65166 9.80855 7.67879 1.29142 9.97391C0.826297 10.0959 0.513672 10.5153 0.513672 10.988V37.2562C0.513672 44.7515 4.78367 51.5912 11.5394 54.8699C17.9749 58.0114 25.0433 61.4579 25.0433 61.4579C25.3407 61.6028 25.6762 61.6028 25.9659 61.4579C25.9659 61.4579 33.0343 58.019 39.4927 54.8699C46.2255 51.5835 50.4955 44.7515 50.4955 37.2562V10.9957H50.4879ZM48.391 11.8039V37.2638C48.391 43.9509 44.5862 50.0585 38.57 52.9865L25.5084 59.3458L12.4468 52.9865C6.45355 50.0585 2.6258 43.9509 2.6258 37.2638V11.7963C10.8303 9.53166 18.5087 6.59604 25.5313 2.81404C32.6607 6.48166 40.1942 9.60791 48.3987 11.8039H48.391Z" fill="#B7500B"/>
<path id="Vector_2" d="M22.3145 38.6744L15.3529 31.9949C14.8954 31.5603 14.8801 30.8359 15.3224 30.3784C15.757 29.9209 16.4814 29.9057 16.9389 30.3479L22.3145 35.51L34.0722 24.2327C34.5297 23.798 35.2541 23.8133 35.6887 24.2632C36.1234 24.7207 36.1081 25.445 35.6582 25.8797L22.3221 38.6744H22.3145Z" fill="#B7500B"/>
</g>
<defs>
<clipPath id="clip0_1253_15213">
<rect width="49.9743" height="61" fill="white" transform="translate(0.513672 0.572266)"/>
</clipPath>
</defs>
</svg>
