<svg width="24" height="25" viewBox="0 0 24 25" fill="none" xmlns="http://www.w3.org/2000/svg">
<g id="tiktok" clip-path="url(#clip0_1435_4648)">
<path id="Vector" d="M21 8.17693V12.2109C19.1861 12.031 17.4564 11.3561 16 10.2599V14.7599C15.9997 15.9811 15.6555 17.1774 15.0067 18.2119C14.3579 19.2465 13.4308 20.0773 12.3317 20.6093C11.2325 21.1412 10.0057 21.3528 8.79185 21.2198C7.57799 21.0868 6.42615 20.6145 5.46831 19.8571C4.51046 19.0996 3.78534 18.0877 3.37603 16.9372C2.96671 15.7867 2.88976 14.5442 3.15399 13.352C3.41821 12.1598 4.01293 11.0662 4.87 10.1964C5.72707 9.32653 6.81183 8.71573 8 8.43393V12.7599C7.65909 13.0156 7.38919 13.3542 7.21594 13.7435C7.04269 14.1329 6.97183 14.56 7.0101 14.9844C7.04837 15.4089 7.1945 15.8165 7.4346 16.1685C7.6747 16.5206 8.00081 16.8054 8.38197 16.996C8.76312 17.1866 9.18666 17.2766 9.61237 17.2574C10.0381 17.2383 10.4518 17.1106 10.8143 16.8866C11.1768 16.6625 11.476 16.3495 11.6836 15.9773C11.8911 15.6051 12 15.1861 12 14.7599V3.25993H16.083C16.2912 4.48834 16.8764 5.62156 17.7574 6.50256C18.6384 7.38356 19.7716 7.96872 21 8.17693Z" stroke="white" stroke-width="1.5" stroke-linecap="round" stroke-linejoin="round"/>
</g>
<defs>
<clipPath id="clip0_1435_4648">
<rect width="24" height="24" fill="white" transform="translate(0 0.259933)"/>
</clipPath>
</defs>
</svg>
