<svg width="1048" height="32" viewBox="0 0 1048 32" fill="none" xmlns="http://www.w3.org/2000/svg">
<g clip-path="url(#clip0_1435_3070)">
<path d="M90.2572 18.1246C93.206 18.1246 95.5887 16.0251 95.6123 13.4301C95.6123 10.8351 93.2296 8.7356 90.2808 8.7356H83.7227V22.7955H85.4448V18.1482C88.1105 19.021 90.6111 20.5308 93.1588 22.8427H95.8246C93.843 20.8375 91.9086 19.2805 89.927 18.1246H90.3044H90.2572ZM85.4212 16.1666V10.67H90.2572C92.2152 10.67 93.8666 11.9439 93.8666 13.4537C93.8666 14.9635 92.2152 16.2138 90.2336 16.2138H85.4683C85.4448 16.2138 85.4212 16.2138 85.374 16.2138H85.4212V16.1666Z" fill="white"/>
<path d="M73.224 18.101C76.1728 18.101 78.5555 16.0015 78.5791 13.4065C78.5791 10.8116 76.1964 8.71201 73.2476 8.71201H66.6895V22.7719H68.4116V18.1246C71.0773 18.9974 73.5779 20.5072 76.1256 22.8191H78.7914C76.8098 20.8139 74.8753 19.2569 72.8937 18.101H73.2712H73.224ZM68.388 16.143V10.6464H73.224C75.182 10.6464 76.8334 11.9203 76.8334 13.4301C76.8334 14.9399 75.182 16.1902 73.2004 16.1902H68.4351C68.4116 16.1902 68.388 16.1902 68.3408 16.1902H68.388V16.143Z" fill="white"/>
<path d="M104.907 8.78278L98.8203 22.8663H100.731L102.76 18.1482H108.492L110.521 22.8899H112.432L106.393 8.78278H104.883H104.907ZM103.609 16.2138L105.662 11.4721L107.69 16.2138H103.609Z" fill="white"/>
<path d="M32.9316 10.5049L38.4282 10.5285L38.4046 22.7483H40.1267L40.1503 10.5285H45.6469V8.59406L32.9316 8.57047V10.5049Z" fill="white"/>
<path d="M50.6484 22.7483H61.9955V20.8375L52.3705 20.8139V16.8979H58.4097V14.9635H52.3705L52.3941 10.5521L62.019 10.5757V8.64124L50.672 8.61765L50.6484 22.7483Z" fill="white"/>
<path d="M190.633 28.5044C183.744 31.6655 178.366 27.5608 174.025 23.1022C171.996 21.0262 170.015 19.4457 167.962 18.2426H168.34C171.289 18.2426 173.671 16.143 173.695 13.548C173.695 10.9531 171.312 8.85355 168.364 8.85355H161.805V15.8599C160.744 15.6476 159.682 15.5061 158.55 15.4589C156.828 15.3881 155.2 15.5532 153.643 15.8835L150.623 8.85355H149.114L143.027 22.9371H145.481C147.179 20.6488 149.68 18.9739 152.652 18.101L154.728 22.9371H156.639L154.374 17.6764C155.672 17.4405 157.04 17.3225 158.456 17.3933C159.588 17.4405 160.697 17.582 161.758 17.8179V22.9135H163.48V18.2897C166.736 19.3513 169.755 21.3565 172.846 24.5412C176.219 27.9854 180.513 31.5476 185.797 31.5476C189.298 31.5476 189.335 31.1701 191.27 30.2973L190.633 28.5044ZM146.566 19.1862L149.869 11.5429L151.921 16.3317C149.916 16.9687 148.099 17.9359 146.566 19.1862ZM163.527 10.788H168.364C170.322 10.788 171.973 12.0619 171.973 13.5716C171.973 15.0814 170.322 16.3317 168.34 16.3317H163.575C163.575 16.3317 163.527 16.3317 163.504 16.3317V10.8116H163.527V10.788Z" fill="white"/>
<path d="M131.516 14.9635L126.491 8.82996L124.91 8.80637L124.887 22.8899L126.609 22.9135L126.632 11.8259L130.949 17.1102H132.082L136.446 11.8259L136.422 22.9135H138.145L138.168 8.82996H136.564L131.516 14.9635Z" fill="white"/>
<path d="M190.208 21.0026L180.583 20.979V17.063H186.623V15.1286H180.583V10.7172L190.208 10.7408V8.80637L178.885 8.78278L178.861 22.9135L190.208 22.9371V21.0026Z" fill="white"/>
<path d="M3.56201 14.1614H3.39687C2.68916 14.1142 2.00504 13.8311 1.39168 13.3357C0.990647 13.0055 0.613199 12.5573 0.235752 11.9911C0.16498 11.8731 0.0942089 11.7552 0.0234375 11.6608L1.55682 10.7172C1.62759 10.8116 1.67477 10.9059 1.74554 11.0003C2.02863 11.4249 2.31171 11.7552 2.57121 11.9675C2.87788 12.227 3.18456 12.3685 3.51483 12.3685C3.84509 12.3685 4.24613 12.2978 4.62358 11.826C4.8123 11.5901 5.00103 11.2834 5.18975 10.9767C5.47284 10.5049 5.75592 10.0331 6.15696 9.60845C6.86467 8.85356 7.71393 8.4997 8.56319 8.52329C9.24731 8.57047 9.90784 8.82997 10.4976 9.30178C10.8986 9.63204 11.2761 10.0567 11.6535 10.5993C11.6535 10.6228 11.7007 10.6464 11.7007 10.6936C12.0546 11.2598 12.3613 11.6608 12.6915 11.9203C12.9982 12.1798 13.3049 12.3214 13.6351 12.3214H13.8475C13.9182 12.3214 14.0126 12.2978 14.0834 12.2742C14.1777 12.2506 14.2485 12.227 14.3193 12.1798C14.6967 11.9911 15.0506 11.4013 15.428 10.8352C15.9234 10.0331 16.4424 9.23101 17.3153 8.82997C18.825 8.12225 20.5943 8.82997 21.821 10.5993C21.821 10.6228 21.8682 10.67 21.8682 10.6936C22.2221 11.2598 22.5287 11.6608 22.859 11.9203C23.1657 12.1798 23.4724 12.3214 23.8026 12.3214C24.1329 12.3214 24.5339 12.2506 24.9114 11.7788C25.1001 11.5429 25.2888 11.2362 25.4776 10.9059L25.5955 10.7172L27.1525 11.6372L27.0345 11.826C26.8222 12.1798 26.5863 12.5573 26.3268 12.9111C25.6663 13.7368 24.7227 14.1614 23.7083 14.1142C23.0006 14.0671 22.3164 13.784 21.7031 13.2886C21.2313 12.8875 20.7831 12.3449 20.3348 11.5901C19.7451 10.7644 18.8958 10.0567 18.0937 10.4341C17.7163 10.6228 17.3388 11.2126 16.9614 11.7788C16.4896 12.5337 15.9706 13.3122 15.1921 13.7368C15.027 13.8311 14.8383 13.9019 14.6259 13.9727C14.4372 14.0199 14.2485 14.0671 14.0362 14.0906H13.5408C12.8331 14.0435 12.1489 13.7604 11.5356 13.265C11.0638 12.8639 10.6156 12.3214 10.1673 11.5665C9.88425 11.1654 9.62476 10.8587 9.36526 10.6464C9.08218 10.4105 8.7755 10.2926 8.46883 10.269C8.13856 10.269 7.7847 10.4341 7.40725 10.8116C7.17135 11.0475 6.95904 11.4249 6.72313 11.826C6.51082 12.1798 6.27491 12.5573 6.01542 12.9111C5.37847 13.6896 4.52922 14.1142 3.5856 14.1142V14.1614H3.56201Z" fill="white"/>
<path d="M3.56201 22.7719H3.39687C2.68916 22.7247 2.00504 22.4417 1.39168 21.9463C0.990647 21.616 0.613199 21.1678 0.235752 20.6016C0.16498 20.4836 0.0942089 20.3657 0.0234375 20.2713L1.55682 19.3277C1.62759 19.4221 1.67477 19.5164 1.74554 19.6108C2.02863 20.0354 2.31171 20.3657 2.57121 20.578C2.87788 20.8375 3.18456 20.979 3.51483 20.979C3.84509 20.979 4.24613 20.9083 4.62358 20.4365C4.8123 20.2006 5.00103 19.8939 5.18975 19.5872C5.47284 19.1154 5.75592 18.6436 6.15696 18.219C6.88826 17.4641 7.73752 17.1102 8.58678 17.1574C9.2709 17.2046 9.93143 17.4641 10.5212 17.9359C10.9222 18.2661 11.2997 18.6908 11.6771 19.2334C11.6771 19.2334 11.7243 19.2805 11.7243 19.3277C12.0782 19.8939 12.3848 20.2949 12.7151 20.5544C13.0218 20.8139 13.3285 20.9555 13.6587 20.9555H13.871C13.9418 20.9555 14.0362 20.9555 14.1069 20.9083C14.2013 20.9083 14.2721 20.8375 14.3429 20.8139C14.7203 20.6252 15.0742 20.0354 15.428 19.4693C15.9234 18.6672 16.4424 17.8651 17.3153 17.4641C18.825 16.7564 20.5943 17.4641 21.821 19.2334C21.821 19.2334 21.8682 19.3041 21.8682 19.3277C22.2221 19.8939 22.5287 20.2949 22.859 20.5544C23.1657 20.8139 23.4724 20.9555 23.8026 20.9555C24.1329 20.9555 24.5339 20.8847 24.9114 20.4129C25.1001 20.177 25.2888 19.8703 25.4776 19.54L25.5955 19.3513L27.1525 20.2713L27.0581 20.4601C26.8458 20.8139 26.6099 21.1914 26.3504 21.5452C25.6663 22.3709 24.7463 22.7955 23.7319 22.7483C23.0241 22.7012 22.34 22.4181 21.7267 21.9227C21.2549 21.5216 20.8066 20.979 20.3584 20.2242C19.7687 19.3985 18.9194 18.7144 18.1173 19.0682C17.7399 19.2569 17.3624 19.8467 17.0086 20.4129C16.5368 21.1678 16.0178 21.9463 15.2393 22.3709C15.0506 22.4652 14.8618 22.536 14.6731 22.6068C14.4844 22.654 14.2957 22.7012 14.0834 22.7247H13.588C12.8802 22.6776 12.1961 22.3945 11.5828 21.8991C11.111 21.498 10.6627 20.9555 10.1909 20.2006C9.90784 19.7995 9.64835 19.4928 9.38885 19.2805C9.10577 19.0446 8.79909 18.9267 8.49242 18.9031C8.16215 18.9031 7.80829 19.0682 7.43084 19.4457C7.0534 19.8231 6.98263 20.059 6.74672 20.4601C6.53441 20.8139 6.2985 21.1914 6.03901 21.5452C5.40206 22.3237 4.55281 22.7483 3.60919 22.7483H3.56201V22.7719Z" fill="white"/>
<path d="M193.442 8.71201H195.706V9.231H194.904V12.0147H194.22V9.25459H193.418V8.71201H193.442ZM200 8.71201V12.0147H199.363V9.63203L198.325 12.0147H197.853L196.839 9.58485V12.0147H196.225V8.71201H197.098L198.112 11.2126L199.174 8.71201H200Z" fill="white"/>
</g>
<defs>
<clipPath id="clip0_1435_3070">
<rect width="200" height="31.3753" fill="white" transform="translate(0 0.572266)"/>
</clipPath>
</defs>
</svg>
