<svg width="266" height="42" viewBox="0 0 266 42" fill="none" xmlns="http://www.w3.org/2000/svg">
<g clip-path="url(#clip0_1435_1056)">
<path d="M120.091 23.2568C123.998 23.2568 127.155 20.4749 127.186 17.0366C127.186 13.5983 124.029 10.8164 120.122 10.8164H111.432V29.4458H113.714V23.2881C117.246 24.4446 120.56 26.4451 123.935 29.5083H127.467C124.842 26.8514 122.279 24.7884 119.653 23.2568H120.153H120.091ZM113.683 20.6625V13.3795H120.091C122.685 13.3795 124.873 15.0674 124.873 17.0679C124.873 19.0684 122.685 20.725 120.059 20.725H113.745C113.714 20.725 113.683 20.725 113.62 20.725H113.683V20.6625Z" fill="#43423D"/>
<path d="M97.5228 23.2256C101.43 23.2256 104.587 20.4437 104.618 17.0054C104.618 13.5671 101.461 10.7852 97.554 10.7852H88.8645V29.4145H91.1463V23.2568C94.6784 24.4134 97.9917 26.4138 101.367 29.4771H104.9C102.274 26.8202 99.7108 24.7572 97.0852 23.2256H97.5853H97.5228ZM91.115 20.6312V13.3483H97.5228C100.117 13.3483 102.305 15.0362 102.305 17.0366C102.305 19.0371 100.117 20.6937 97.4915 20.6937H91.1775C91.1463 20.6937 91.115 20.6937 91.0525 20.6937H91.115V20.6312Z" fill="#43423D"/>
<path d="M139.501 10.8789L131.437 29.5396H133.969L136.657 23.2881H144.253L146.941 29.5708H149.473L141.471 10.8789H139.47H139.501ZM137.782 20.725L140.502 14.4422L143.19 20.725H137.782Z" fill="#43423D"/>
<path d="M44.1353 13.1608L51.4182 13.192L51.387 29.3833H53.6688L53.7 13.192H60.983V10.6289L44.1353 10.5977V13.1608Z" fill="#43423D"/>
<path d="M67.6096 29.3833H82.6444V26.8515L69.8914 26.8202V21.6315H77.8933V19.0684H69.8914L69.9227 13.2233L82.6757 13.2545V10.6914L67.6409 10.6602L67.6096 29.3833Z" fill="#43423D"/>
<path d="M253.091 37.01C243.964 41.1985 236.837 35.7598 231.086 29.8521C228.397 27.1015 225.772 25.0072 223.052 23.4131H223.553C227.46 23.4131 230.617 20.6312 230.648 17.1929C230.648 13.7546 227.491 10.9727 223.584 10.9727H214.894V20.2561C213.488 19.9748 212.081 19.7872 210.581 19.7247C208.299 19.6309 206.142 19.8497 204.079 20.2874L200.078 10.9727H198.078L190.013 29.6333H193.264C195.515 26.6013 198.828 24.3821 202.766 23.2255L205.517 29.6333H208.049L205.048 22.6629C206.767 22.3503 208.58 22.1941 210.456 22.2878C211.956 22.3503 213.425 22.5379 214.832 22.8505V29.602H217.114V23.4756C221.427 24.8822 225.428 27.5391 229.523 31.7588C233.993 36.3224 239.681 41.0422 246.683 41.0422C251.19 41.0422 251.372 40.5421 253.935 39.3856L253.091 37.01ZM194.702 24.6634L199.078 14.536L201.797 20.8812C199.141 21.7252 196.734 23.0067 194.702 24.6634ZM217.176 13.5358H223.584C226.178 13.5358 228.366 15.2237 228.366 17.2241C228.366 19.2246 226.178 20.8812 223.553 20.8812H217.239C217.239 20.8812 217.176 20.8812 217.145 20.8812V13.567H217.176V13.5358Z" fill="#43423D"/>
<path d="M174.76 19.0683L168.102 10.9414L166.008 10.9102L165.977 29.5708L168.258 29.6021L168.29 14.9111L174.01 21.9128H175.51L181.293 14.9111L181.261 29.6021H183.543L183.574 10.9414H181.449L174.76 19.0683Z" fill="#43423D"/>
<path d="M252.528 27.0702L239.775 27.039V21.8502H247.777V19.2871H239.775V13.442L252.528 13.4733V10.9102L237.525 10.8789L237.493 29.6021L252.528 29.6333V27.0702Z" fill="#43423D"/>
<path d="M5.21986 18.0057H5.00105C4.06333 17.9432 3.15687 17.5681 2.34418 16.9117C1.8128 16.4741 1.31268 15.8802 0.812566 15.13C0.718794 14.9737 0.625022 14.8174 0.53125 14.6924L2.56298 13.4421C2.65675 13.5671 2.71927 13.6922 2.81304 13.8172C3.18813 14.3798 3.56321 14.8174 3.90705 15.0987C4.31339 15.4426 4.71974 15.6301 5.15734 15.6301C5.59494 15.6301 6.12632 15.5363 6.62644 14.9112C6.8765 14.5986 7.12655 14.1923 7.37661 13.7859C7.7517 13.1608 8.12679 12.5356 8.65817 11.973C9.59589 10.9728 10.7212 10.5039 11.8464 10.5352C12.7529 10.5977 13.6281 10.9415 14.4095 11.5666C14.9409 12.0043 15.441 12.5669 15.9411 13.2858C15.9411 13.3171 16.0036 13.3483 16.0036 13.4108C16.4725 14.161 16.8789 14.6924 17.3165 15.0362C17.7228 15.38 18.1292 15.5676 18.5668 15.5676H18.8481C18.9418 15.5676 19.0669 15.5363 19.1606 15.5051C19.2857 15.4738 19.3794 15.4426 19.4732 15.38C19.9733 15.13 20.4422 14.3486 20.9423 13.5984C21.5987 12.5356 22.2864 11.4729 23.4429 10.9415C25.4434 10.0038 27.7877 10.9415 29.4131 13.2858C29.4131 13.3171 29.4756 13.3796 29.4756 13.4108C29.9444 14.161 30.3508 14.6924 30.7884 15.0362C31.1947 15.38 31.6011 15.5676 32.0387 15.5676C32.4763 15.5676 33.0077 15.4738 33.5078 14.8487C33.7578 14.5361 34.0079 14.1298 34.258 13.6922L34.4142 13.4421L36.4772 14.6611L36.3209 14.9112C36.0396 15.38 35.727 15.8802 35.3832 16.349C34.508 17.443 33.2577 18.0057 31.9137 17.9432C30.9759 17.8806 30.0695 17.5055 29.2568 16.8491C28.6316 16.3178 28.0377 15.5989 27.4438 14.5986C26.6624 13.5046 25.5371 12.5669 24.4744 13.067C23.9743 13.3171 23.4742 14.0985 22.974 14.8487C22.3489 15.8489 21.6612 16.8804 20.6297 17.443C20.4109 17.5681 20.1609 17.6618 19.8796 17.7556C19.6295 17.8181 19.3794 17.8806 19.0981 17.9119H18.4417C17.504 17.8494 16.5975 17.4743 15.7848 16.8179C15.1597 16.2865 14.5658 15.5676 13.9719 14.5674C13.5968 14.036 13.253 13.6296 12.9092 13.3483C12.5341 13.0357 12.1277 12.8795 11.7214 12.8482C11.2838 12.8482 10.8149 13.067 10.3148 13.5671C10.0022 13.8797 9.72092 14.3798 9.40834 14.9112C9.12703 15.38 8.81445 15.8802 8.47062 16.349C7.62667 17.3805 6.50141 17.9432 5.25111 17.9432V18.0057H5.21986Z" fill="#43423D"/>
<path d="M5.21986 29.4145H5.00105C4.06333 29.352 3.15687 28.9769 2.34418 28.3205C1.8128 27.8829 1.31268 27.289 0.812566 26.5388C0.718794 26.3825 0.625022 26.2262 0.53125 26.1012L2.56298 24.8509C2.65675 24.9759 2.71927 25.101 2.81304 25.226C3.18813 25.7886 3.56321 26.2262 3.90705 26.5076C4.31339 26.8514 4.71974 27.0389 5.15734 27.0389C5.59494 27.0389 6.12632 26.9452 6.62644 26.32C6.8765 26.0074 7.12655 25.6011 7.37661 25.1948C7.7517 24.5696 8.12679 23.9445 8.65817 23.3818C9.62714 22.3816 10.7524 21.9127 11.8777 21.9752C12.7841 22.0378 13.6593 22.3816 14.4408 23.0067C14.9722 23.4443 15.4723 24.007 15.9724 24.7259C15.9724 24.7259 16.0349 24.7884 16.0349 24.8509C16.5038 25.6011 16.9101 26.1325 17.3477 26.4763C17.7541 26.8201 18.1604 27.0077 18.598 27.0077H18.8793C18.9731 27.0077 19.0981 27.0077 19.1919 26.9452C19.3169 26.9452 19.4107 26.8514 19.5045 26.8201C20.0046 26.5701 20.4735 25.7886 20.9423 25.0385C21.5987 23.9757 22.2864 22.913 23.4429 22.3816C25.4434 21.4439 27.7877 22.3816 29.4131 24.7259C29.4131 24.7259 29.4756 24.8197 29.4756 24.8509C29.9444 25.6011 30.3508 26.1325 30.7884 26.4763C31.1947 26.8201 31.6011 27.0077 32.0387 27.0077C32.4763 27.0077 33.0077 26.9139 33.5078 26.2888C33.7578 25.9762 34.0079 25.5698 34.258 25.1322L34.4142 24.8822L36.4772 26.1012L36.3522 26.3513C36.0709 26.8201 35.7583 27.3203 35.4145 27.7891C34.508 28.8831 33.289 29.4458 31.9449 29.3832C31.0072 29.3207 30.1007 28.9456 29.288 28.2892C28.6629 27.7579 28.069 27.0389 27.4751 26.0387C26.6937 24.9447 25.5684 24.0382 24.5057 24.5071C24.0055 24.7571 23.5054 25.5386 23.0366 26.2888C22.4114 27.289 21.7237 28.3205 20.6923 28.8831C20.4422 29.0082 20.1921 29.1019 19.9421 29.1957C19.692 29.2582 19.442 29.3207 19.1606 29.352H18.5042C17.5665 29.2895 16.6601 28.9144 15.8474 28.258C15.2222 27.7266 14.6283 27.0077 14.0032 26.0074C13.6281 25.4761 13.2843 25.0697 12.9404 24.7884C12.5653 24.4758 12.159 24.3195 11.7526 24.2883C11.315 24.2883 10.8462 24.5071 10.3461 25.0072C9.84595 25.5073 9.75217 25.8199 9.4396 26.3513C9.15828 26.8201 8.84571 27.3203 8.50188 27.7891C7.65793 28.8206 6.53266 29.3832 5.28237 29.3832H5.21986V29.4145Z" fill="#43423D"/>
<path d="M256.811 10.7852H259.811V11.4728H258.749V15.1612H257.842V11.5041H256.779V10.7852H256.811ZM265.5 10.7852V15.1612H264.656V12.0042L263.281 15.1612H262.656L261.312 11.9417V15.1612H260.499V10.7852H261.655L263 14.0984L264.406 10.7852H265.5Z" fill="#43423D"/>
</g>
<defs>
<clipPath id="clip0_1435_1056">
<rect width="265" height="41.5723" fill="white" transform="translate(0.5)"/>
</clipPath>
</defs>
</svg>
