<svg width="61" height="58" viewBox="0 0 61 58" fill="none" xmlns="http://www.w3.org/2000/svg">
<g id="Graphic Icons">
<path id="natural-ingredients" d="M58.5842 1.44648C58.5384 1.12622 58.3402 0.844081 58.0581 0.691575C57.7683 0.53907 57.4252 0.531445 57.1354 0.676325L39.9404 9.087C37.2944 10.3833 34.8772 12.0837 32.7574 14.1426C30.6376 16.2014 28.8685 18.5652 27.4883 21.1731L27.0918 21.9203L26.6191 21.2188C24.0875 17.4367 20.5188 14.5238 16.2944 12.8158L2.11906 7.05105C1.82168 6.92905 1.48616 6.95192 1.21165 7.11206H1.20403C0.914269 7.27981 0.723637 7.5772 0.700761 7.91271L0.0221119 23.2014C-0.18377 27.9062 1.05152 32.4813 3.58311 36.4465C6.12233 40.4116 9.76721 43.4389 14.1212 45.2155L25.3914 49.7907H25.8489L26.6572 56.5315C26.6953 56.8593 26.8783 57.1491 27.1605 57.3092C27.313 57.3931 27.4883 57.4312 27.6637 57.4312H27.6713C27.8315 57.4312 27.984 57.3931 28.1289 57.3245L45.2781 48.9367C50.5167 46.3593 54.7639 42.2874 57.5624 37.1556C60.3609 32.0314 61.4818 26.2515 60.8108 20.4487L58.5842 1.43885V1.44648ZM26.0243 24.4367C24.4535 28.6077 23.8968 33.1447 24.4077 37.575L24.911 41.685L14.6321 26.16C14.4873 25.9236 14.2585 25.7558 13.984 25.6948C13.7171 25.6338 13.435 25.6948 13.2062 25.8397C12.9774 25.9922 12.8173 26.2362 12.7716 26.5031C12.7258 26.77 12.7868 27.0521 12.9469 27.2733L12.9622 27.2885L25.4448 46.1077L25.6202 47.6785L14.8914 43.3626C10.9186 41.746 7.60163 38.9781 5.29117 35.3637C2.98072 31.7493 1.8598 27.5783 2.05806 23.2929L2.69858 9.43776L15.5472 14.6611C19.8936 16.4301 23.5385 19.6556 25.8184 23.758C25.8489 23.819 25.8947 23.88 25.9404 23.9334L26.1387 24.1622L26.0319 24.4443L26.0243 24.4367ZM55.7781 36.2101C53.399 40.5718 49.8838 44.1023 45.5679 46.5042L45.6517 46.5271L29.265 54.5718L45.1027 26.5794C45.2857 26.2591 45.2857 25.8702 45.1027 25.5576C44.9197 25.245 44.5842 25.0543 44.2258 25.0543C43.8674 25.0543 43.5243 25.2526 43.3489 25.5652L28.1975 52.307L26.4437 37.3386C25.8184 31.9552 26.8554 26.5946 29.448 21.8365C32.0406 17.0783 35.9829 13.2962 40.8478 10.9094L56.7541 3.10116L58.813 20.7079C59.4382 26.099 58.3936 31.4596 55.7934 36.2177L55.7781 36.2101Z" fill="#B7500B"/>
</g>
</svg>
