<svg width="24" height="25" viewBox="0 0 24 25" fill="none" xmlns="http://www.w3.org/2000/svg">
<g id="twitter" clip-path="url(#clip0_1435_4645)">
<path id="Vector" d="M22 4.26993C21 4.75993 20.02 4.95893 19 5.25993C17.879 3.99493 16.217 3.92493 14.62 4.52293C13.023 5.12093 11.977 6.58293 12 8.25993V9.25993C8.755 9.34293 5.865 7.86493 4 5.25993C4 5.25993 -0.182 12.6929 8 16.2599C6.128 17.5069 4.261 18.3479 2 18.2599C5.308 20.0629 8.913 20.6829 12.034 19.7769C15.614 18.7369 18.556 16.0539 19.685 12.0349C20.0218 10.8126 20.189 9.54979 20.182 8.28193C20.182 8.03293 21.692 5.50993 22 4.26893V4.26993Z" stroke="white" stroke-width="1.5" stroke-linecap="round" stroke-linejoin="round"/>
</g>
<defs>
<clipPath id="clip0_1435_4645">
<rect width="24" height="24" fill="white" transform="translate(0 0.259933)"/>
</clipPath>
</defs>
</svg>
