<svg width="55" height="50" viewBox="0 0 55 50" fill="none" xmlns="http://www.w3.org/2000/svg">
<g id="Graphic Icons" clip-path="url(#clip0_1069_6687)">
<path id="Vector" d="M46.4898 0C43.2873 0 40.6795 2.1375 40.6795 4.7625C40.6795 7.3875 40.8168 6.7 41.0303 6.85625C41.0837 6.89375 41.137 6.93125 41.1904 7.03125C38.7657 7.2625 36.8823 8.975 36.8823 10.9937C36.8823 13.0125 37.0577 13.3062 37.2407 14.0125C37.2864 14.1812 37.3322 14.3562 37.3779 14.5437V14.5562C37.7973 16.3125 38.1557 17.8312 36.9357 20.8312C35.6775 23.925 36.6688 25.8 37.6219 27.6125V27.625C38.2243 28.7563 38.7809 29.8313 38.7809 31.225C38.7809 32.6188 37.9193 34.5375 37.477 35.4C37.1492 35.15 36.7832 34.9062 36.3485 34.6688C34.0839 33.3937 30.9424 32.6937 27.4959 32.6937C24.0494 32.6937 20.9003 33.3937 18.6433 34.6688C18.2468 34.8937 17.8732 35.1375 17.5224 35.4C17.0115 34.3938 16.2185 32.625 16.2185 31.225C16.2185 29.825 16.7599 28.7937 17.3318 27.7062L17.3775 27.6125C18.3307 25.8 19.3219 23.9312 18.0638 20.8312C16.8438 17.8375 17.2022 16.3188 17.6139 14.5562V14.5437C17.835 13.6187 18.1095 12.475 18.1095 10.9875C18.1095 9.5 17.652 9.025 16.8209 8.28125C16.0279 7.575 14.9528 7.13125 13.7938 7.025C14.1369 6.11875 14.3123 5.35625 14.3123 4.7625C14.3199 2.1375 11.7122 0 8.50966 0C5.30716 0 4.97166 0.8875 3.44666 2.3125C1.73866 3.9125 0.800781 5.8875 0.800781 7.875C0.800781 12.2188 4.26253 15.75 8.50966 15.75C12.7568 15.75 14.3199 14.0562 14.3199 10.9875C14.3199 7.91875 14.1827 9.0625 13.9844 8.925C13.9387 8.89375 13.9005 8.86875 13.8548 8.8C15.0824 9.025 15.9898 9.9375 15.9898 10.9875C15.9898 12.0375 15.7534 13.2688 15.5247 14.2188C15.0748 16.1375 14.6478 17.9438 16.0355 21.3813C17.0268 23.8313 16.2872 25.2563 15.4255 26.9125V26.925C14.7622 28.1687 14.0912 29.45 14.0912 31.225C14.0912 33 15.6314 36.2312 16.0127 36.9125C15.3645 37.8062 15.0367 38.775 15.0367 39.7875C15.0367 42.7437 18.2392 45.1813 24.3087 46.8438C26.1539 47.35 26.4055 48.7125 26.436 49.1188V49.1312C26.436 49.6125 26.9164 50 27.5035 50C28.0907 50 28.5634 49.6062 28.5634 49.1312C28.5634 48 29.2802 47.2312 30.6908 46.85C36.7527 45.1937 39.9628 42.7563 39.9628 39.7938C39.9628 36.8312 39.8027 37.5563 39.4062 37.2938C39.2842 37.2125 39.1469 37.125 38.9868 36.9188C39.368 36.2687 40.9083 33.4875 40.9083 31.2313C40.9083 28.975 40.4355 28.4813 39.8942 27.5125C39.7874 27.325 39.6807 27.1375 39.5739 26.9312C38.7047 25.2812 37.9574 23.8563 38.9563 21.3875C40.3593 17.9438 39.9247 16.1313 39.4672 14.2188V14.2C39.2384 13.25 39.0097 12.2625 39.0097 10.9875C39.0097 9.7125 39.8637 9.0125 41.1599 8.79375C40.9312 9.4125 40.6795 10.2563 40.6795 10.9875C40.6795 13.6125 43.2873 15.75 46.4898 15.75C49.6923 15.75 50.0278 14.8625 51.5528 13.4375C53.2608 11.8375 54.1987 9.8625 54.1987 7.875C54.1987 3.53125 50.7369 0 46.4898 0ZM46.566 14.0188V14.0063H46.4898C44.4615 14.0063 42.8069 12.65 42.8069 10.9875C42.8069 9.325 42.9975 9.4375 43.2187 9.09375C43.2873 8.9875 43.3559 8.88125 43.4245 8.74375H44.7742L45.4833 10.4875C45.6358 10.8438 46.0399 11.0813 46.4974 11.0813C46.9549 11.0813 46.8177 11.0813 46.8634 11.0312C47.1227 10.9563 47.3285 10.8 47.4582 10.6C47.5878 10.3938 47.6107 10.1562 47.5192 9.9375L47.0388 8.75H47.4658C48.0529 8.75 48.5257 8.35625 48.5257 7.88125C48.5257 7.40625 48.0453 7.0125 47.4658 7.0125H47.0388L47.5192 5.83125C47.6107 5.6125 47.5878 5.375 47.4582 5.16875C47.3285 4.9625 47.115 4.80625 46.8482 4.73125C46.2992 4.575 45.6892 4.825 45.5062 5.28125L44.797 7.025H43.4474C43.2034 6.4625 42.8298 5.475 42.8298 4.78125C42.8298 3.11875 44.4844 1.7625 46.5127 1.7625C49.5932 1.7625 52.0942 4.5125 52.0942 7.89375C52.0942 11.275 49.6313 13.9812 46.5813 14.025L46.566 14.0188ZM27.4959 34.4313C30.523 34.4313 33.2375 35.025 35.1514 36.1C36.8747 37.075 37.8278 38.3812 37.8278 39.7812C37.8278 42.4813 33.573 44.2062 30.0045 45.175C28.9675 45.4562 28.1212 45.95 27.4959 46.6375C26.8707 45.9562 26.0319 45.4625 24.9873 45.175C21.4188 44.2 17.164 42.475 17.164 39.7812C17.164 37.0875 17.8122 37.1562 19.1084 36.4875C19.3295 36.375 19.5812 36.2438 19.848 36.0938C21.7543 35.0187 24.4764 34.425 27.5035 34.425L27.4959 34.4313ZM8.50966 1.74375C11.7579 1.74375 12.1925 3.26875 12.1925 4.7625C12.1925 6.25625 12.0019 6.3125 11.7808 6.65625C11.7122 6.7625 11.6435 6.86875 11.5749 7.00625H10.2253L9.51616 5.2625C9.42466 5.04375 9.23403 4.8625 8.98241 4.7625C8.73078 4.65625 8.44103 4.6375 8.17416 4.7125C7.90728 4.7875 7.68616 4.94375 7.56416 5.15C7.44216 5.35625 7.41928 5.58125 7.50316 5.8L7.99116 7.00625H7.56416C6.97703 7.00625 6.50428 7.4 6.50428 7.875C6.50428 8.35 6.98466 8.74375 7.56416 8.74375H7.99116L7.51078 9.925C7.41928 10.1438 7.44216 10.3812 7.57178 10.5875C7.70141 10.7937 7.91491 10.95 8.18941 11.025C8.30378 11.05 8.41053 11.0688 8.52491 11.0688C8.98241 11.0688 9.38653 10.8313 9.53903 10.475L10.2482 8.73125H11.5978C11.8418 9.29375 12.2154 10.2812 12.2154 10.975C12.2154 12.6375 10.5608 13.9937 8.53253 13.9937C5.45203 13.9937 2.95103 11.2437 2.95103 7.8625C2.95103 4.48125 5.43678 1.74375 8.50966 1.74375Z" fill="#B7500B"/>
</g>
<defs>
<clipPath id="clip0_1069_6687">
<rect width="53.3979" height="50" fill="white" transform="translate(0.800781)"/>
</clipPath>
</defs>
</svg>
