<svg width="70" height="44" viewBox="0 0 70 44" fill="none" xmlns="http://www.w3.org/2000/svg">
<g id="Graphic Icons">
<path id="usa" d="M68.9962 9.77202C68.8927 9.74126 68.7909 9.70458 68.6913 9.66265C68.3702 9.50041 67.9995 9.46645 67.6541 9.56763C67.2339 9.46736 66.7969 9.45871 66.373 9.54233C66.3425 9.54712 66.2983 9.5535 66.2523 9.56056C66.3017 9.33407 66.3311 9.1037 66.3405 8.87218C66.3457 8.78468 66.3507 8.69649 66.3628 8.60991C66.4626 8.2312 66.62 7.87001 66.8297 7.5392C67.2843 6.70976 67.9063 5.57344 67.228 4.36851C67.1131 4.16389 67.1222 4.06044 67.305 3.51405C67.5818 2.83686 67.6573 2.09376 67.5217 1.37463C67.4599 1.01802 67.2688 0.696739 66.9851 0.47204C66.7212 0.282686 66.4026 0.184931 66.0782 0.193366C63.9066 0.174226 63.4543 0.439462 63.2584 0.554302C62.979 0.719956 61.9317 1.5364 61.9082 2.51371C61.8996 2.80811 61.99 3.09681 62.165 3.33358L62.1646 3.33403C62.0393 3.42062 61.9091 3.50038 61.7752 3.57284C61.223 3.83374 60.7578 4.24845 60.4353 4.76709C60.1516 5.27978 60.0664 5.87886 60.196 6.45029C60.2323 6.5804 60.2373 6.71734 60.2109 6.84974C60.112 7.10449 59.1096 7.52377 58.6279 7.72496C57.502 8.1955 56.239 8.72368 55.8466 9.87506C55.8108 9.87552 55.7746 9.87825 55.7376 9.8819V9.88212C55.371 9.92223 55.0429 10.1278 54.8469 10.4402C54.0603 11.6747 53.0554 12.7555 51.8812 13.6296C52.0531 13.1053 52.1253 12.5536 52.0943 12.0028C52.0977 11.3074 51.9113 10.6243 51.5554 10.0268C51.3278 9.6579 50.9399 9.41753 50.5081 9.37786C50.1998 9.35485 49.8934 9.44166 49.6429 9.62304L49.5848 9.34208C49.519 9.08847 49.3691 8.86448 49.1599 8.70637C48.9505 8.54846 48.6939 8.46597 48.4319 8.47213L46.3854 8.52773C45.8276 8.50129 45.2821 8.69498 44.866 9.06708C44.6546 9.28173 44.501 9.54627 44.4194 9.83614C44.1704 9.79148 43.9159 9.78305 43.6643 9.81153C43.5898 9.6256 43.5141 9.43989 43.4314 9.25828C43.3168 8.90919 43.1026 8.60087 42.8153 8.37168C42.528 8.14244 42.1798 8.00208 41.8139 7.96767C41.3287 7.96813 40.8594 8.13903 40.4872 8.45028C40.3364 8.55601 40.1769 8.64875 40.0103 8.72759L39.7369 7.87832C39.6426 7.58529 39.4291 7.34558 39.1488 7.21823C38.8685 7.09062 38.5474 7.08721 38.2647 7.20866C37.6932 7.49417 37.1725 7.87196 36.7239 8.32655C36.6965 8.35116 36.6699 8.37577 36.6432 8.39969L27.195 7.19862C26.0197 7.08719 24.8571 6.86617 23.7226 6.53852C23.2405 6.38107 22.7661 6.18009 22.2641 5.96704H22.2643C21.6625 5.69976 21.0468 5.46505 20.4202 5.2636C18.976 4.88353 17.4913 4.67934 15.998 4.65542C14.7746 4.63104 13.5569 4.48407 12.3627 4.21633C10.9245 3.83876 9.61309 3.08339 8.56473 2.02884C8.33253 1.79483 8.00737 1.67816 7.67947 1.71075C7.35157 1.74356 7.05583 1.92243 6.87464 2.19792C6.69349 2.47318 6.6461 2.81543 6.74568 3.12967C6.8015 3.31812 6.82953 3.51362 6.82839 3.71004C6.36834 3.37098 5.87068 3.0857 5.34545 2.8599C5.16909 2.78447 4.97609 2.75667 4.78559 2.77878C3.45215 2.93691 2.6184 4.2945 2.5106 5.49126C2.26519 8.20672 1.55656 10.8602 0.415395 13.3365C0.148341 13.8302 0.00569914 14.3817 0 14.9429C0.0419269 15.4565 0.198927 15.9537 0.459372 16.3983L0.553481 16.5858C0.887758 17.2757 1.09397 19.7624 0.960447 20.7509L0.943813 20.8716L0.943585 20.8714C0.793424 21.5044 0.883887 22.1707 1.19743 22.7408C1.45879 23.1163 1.81447 23.4167 2.22875 23.6113C2.29871 23.6498 2.36866 23.6871 2.43383 23.7288V23.7286C2.67081 23.8813 2.83874 24.1205 2.90163 24.3951C2.93627 24.6232 2.94789 24.854 2.93627 25.0841C2.92784 25.3772 2.93923 25.6707 2.97045 25.9621C3.20925 27.8591 4.99659 32.0737 7.08386 32.9942L7.56556 33.204C8.91772 33.7887 10.1953 34.3415 10.788 35.3578V35.358C10.9493 35.6344 11.2237 35.8265 11.5388 35.8835C12.1962 36.0015 12.9536 36.1692 13.6857 36.3315C14.4425 36.4987 15.225 36.6721 15.9281 36.7988C16.7824 37.016 17.6776 37.0155 18.5317 36.7977C18.7764 36.7152 19.0148 36.6147 19.2447 36.4971C19.3864 36.4226 19.5334 36.3593 19.6847 36.3069C20.2163 36.2376 20.7566 36.3037 21.2559 36.4987C22.0793 36.7277 22.199 36.9105 22.2081 36.9244C22.2067 37.047 22.194 37.1693 22.1698 37.2896C22.1491 37.4195 22.1292 37.5492 22.1169 37.6784C22.0506 38.0828 22.111 38.498 22.2897 38.8669C22.4683 39.2358 22.7565 39.5405 23.115 39.7394C23.4754 39.8936 23.8726 39.9413 24.2593 39.8768C24.6462 39.8123 25.0062 39.6382 25.2972 39.375C25.8509 38.9359 26.2841 38.3633 26.5559 37.711C27.1921 37.8739 27.7558 38.2444 28.158 38.7637C28.544 39.2778 28.8792 39.828 29.1588 40.4068C29.4017 40.8683 29.6532 41.3456 29.9593 41.8109H29.9595C30.4761 42.7098 31.3178 43.3763 32.3113 43.6725C32.8921 43.8309 33.4893 43.9216 34.0909 43.9428C34.3971 43.9749 34.7064 43.9241 34.9862 43.7956C35.2662 43.6671 35.5064 43.4659 35.6819 43.2127C36.2586 42.2814 35.5073 41.3317 35.1826 40.945V40.9452C35.0972 40.8049 35.0429 40.6477 35.024 40.4843C35.1035 40.4064 35.2665 40.2803 35.3802 40.1926V40.1928C35.9974 39.8264 36.4422 39.2276 36.6143 38.5308C36.6341 38.3731 36.6439 38.2143 36.6437 38.0555C36.6441 38.0026 36.6416 37.9493 36.6464 37.8969C36.6806 37.8559 36.7421 37.7928 36.7815 37.7522C37.5024 37.011 38.1578 36.3871 38.8847 36.2611C39.1673 36.2123 39.4193 36.054 39.586 35.8206C39.8679 35.8343 40.1357 35.9478 40.3414 36.141C40.374 36.1827 40.4018 36.2281 40.4312 36.2729V36.2727C40.5704 36.504 40.7452 36.7116 40.9493 36.888C41.293 37.1493 41.6961 37.3211 42.1226 37.3879L42.2199 37.4093C42.4635 37.4649 42.702 37.513 42.9349 37.5604C44.3267 37.8418 44.8421 38.0027 45.1602 38.6969C45.322 39.0501 45.659 39.2908 46.0457 39.3295C46.4322 39.368 46.8102 39.1987 47.0387 38.8847C47.2675 38.5705 47.3122 38.1588 47.1565 37.8028C47.1098 37.7028 47.0761 37.5971 47.0567 37.4884C47.077 37.459 47.2201 37.2844 47.9791 37.0007C48.049 36.9741 48.1226 36.9499 48.1976 36.9249H48.1974C48.9607 36.7726 49.5931 36.2404 49.8733 35.5139C49.93 35.3084 49.9565 35.0958 49.9517 34.8827L49.9537 34.7893C49.9558 34.7626 49.9612 34.682 50.1043 34.5708C50.4256 34.3532 50.8189 34.2693 51.2008 34.3375C51.7725 34.4812 52.3208 34.7057 52.8291 35.004C53.1773 35.184 53.5362 35.3692 53.9224 35.5294C54.1608 35.7967 54.379 36.0813 54.5755 36.3807C55.0471 37.1992 55.7419 37.8666 56.5788 38.3048C56.7001 38.3588 56.8249 38.4046 56.95 38.4495V38.4497C57.0407 38.4777 57.1291 38.5131 57.2143 38.5554C57.4365 38.7402 57.6188 38.9685 57.7498 39.226C58.0096 39.6893 58.3514 40.1015 58.7581 40.4426C58.8757 40.5333 59.0017 40.6139 59.1282 40.6937H59.1284C59.2024 40.7372 59.2738 40.7853 59.3419 40.8375C59.3718 40.8785 59.3986 40.9213 59.4226 40.966C59.5078 41.1161 59.6058 41.2583 59.7158 41.3912C60.1219 41.8612 60.713 42.1306 61.3339 42.1288C61.9247 42.1297 62.4885 41.8809 62.8856 41.4436C63.2828 41.0063 63.4767 40.4214 63.4188 39.8333C63.3924 39.6137 63.3409 39.3974 63.2657 39.1894C63.245 39.1329 63.2274 39.0752 63.2128 39.0169C63.1912 38.8679 63.1841 38.7173 63.1919 38.5671C63.2092 38.2103 63.175 37.8527 63.0905 37.5055C62.8287 36.7622 62.3488 36.1151 61.7137 35.6486C61.42 35.3907 61.054 35.0703 61.0404 34.8865C61.0376 34.8507 61.0388 34.8133 61.0388 34.7764H61.0385C61.0588 34.4127 60.9752 34.0508 60.7977 33.733C60.7113 33.5892 60.6029 33.46 60.4769 33.3495L60.5277 31.1358H60.5275C60.5179 30.6553 60.3828 30.1856 60.1355 29.7735C59.9904 29.1331 59.8947 28.4824 59.8493 27.8273C59.7003 26.4052 59.5925 25.5063 59.2758 24.9674V24.9676C58.9891 24.5495 58.8636 24.0418 58.9222 23.5385C59.0274 23.4197 59.14 23.3079 59.2592 23.2031C59.7315 22.8449 60.0758 22.3438 60.2408 21.7744C60.2681 21.6413 60.3349 21.3931 60.4106 21.1078C60.6006 20.4931 60.7373 19.863 60.8191 19.2248C60.8405 18.7372 61.6823 17.7535 62.3823 17.5489V17.5491C62.7307 17.447 63.0057 17.1788 63.1167 16.8334C63.144 16.7491 63.1497 16.7404 63.2796 16.6005C63.4774 16.3982 63.6492 16.1719 63.7912 15.9272C63.9415 15.6505 64.0318 15.3454 64.0566 15.0315C64.1544 15.0422 64.2601 15.0554 64.3508 15.0672C64.7377 15.1247 65.1283 15.152 65.5193 15.1495C65.586 15.1474 65.656 15.1495 65.7248 15.1506H65.725C65.9989 15.1638 66.2732 15.1445 66.5426 15.093C66.9377 14.9916 67.3112 14.8195 67.645 14.5851C68.2801 14.1182 68.7474 13.459 68.978 12.7052C69.0723 12.3971 69.2273 12.1107 69.4335 11.863C69.7316 11.6959 69.9357 11.4006 69.9872 11.0629C70.0715 10.4545 69.7384 10.0209 68.996 9.77254L68.9962 9.77202ZM66.9523 11.8777L66.9525 11.878C66.86 12.1986 66.6945 12.4937 66.4692 12.7397C66.3468 12.827 66.2144 12.8992 66.075 12.955C65.9729 12.9664 65.8704 12.9689 65.7678 12.963C65.6637 12.961 65.5575 12.9598 65.4566 12.9626C65.1799 12.9619 64.9038 12.94 64.6303 12.8974C63.9563 12.8099 62.1635 12.5802 61.9126 14.5134C61.9042 14.577 61.8976 14.6417 61.8912 14.7062C61.8882 14.762 61.8821 14.8176 61.873 14.8727C61.8164 14.9582 61.7513 15.0377 61.6786 15.1099C61.5205 15.271 61.3812 15.4499 61.2641 15.6429C59.984 16.2518 58.6954 17.7128 58.6343 19.1224C58.6168 19.3349 58.3999 20.1541 58.2957 20.5477C58.2194 20.8366 58.1522 21.0934 58.1141 21.2602H58.1143C58.0091 21.3778 57.8967 21.4892 57.778 21.5933C57.3656 21.918 57.0457 22.3453 56.8502 22.8324C56.5528 23.9294 56.744 25.1013 57.3747 26.0469C57.5269 26.7074 57.6272 27.379 57.6744 28.0553C57.8175 29.4213 57.92 30.285 58.211 30.8104C58.3867 31.1255 58.3402 31.0956 58.3409 31.0961L58.2757 33.933V33.9332C58.2709 34.1353 58.3224 34.335 58.4243 34.5097C58.5261 34.6845 58.6747 34.8274 58.8531 34.9228C58.8542 34.965 58.8563 35.0071 58.8595 35.0493C58.9397 36.1244 59.7096 36.7993 60.2715 37.2924H60.2713C60.5637 37.5006 60.8061 37.7711 60.9811 38.0844C61.0062 38.2366 61.0142 38.3911 61.0046 38.5452C60.9911 38.8676 61.0167 39.1904 61.0811 39.5065L61.0823 39.5113C61.0561 39.4766 61.0278 39.4418 60.9973 39.4067C60.7924 39.1825 60.5541 38.9913 60.2907 38.84C60.2244 38.7983 60.1572 38.7582 60.0963 38.7113C59.8988 38.5199 59.7315 38.2997 59.6003 38.0582C59.2886 37.4767 58.8299 36.9873 58.2698 36.6386C58.0834 36.54 57.889 36.4568 57.6887 36.3898C57.6151 36.3636 57.5408 36.3381 57.4697 36.3059C57.0108 36.0131 56.633 35.6092 56.3719 35.1315C56.0429 34.6213 55.6533 34.1529 55.2114 33.7366C55.0284 33.5563 54.7912 33.4415 54.5362 33.4102C54.3077 33.3045 54.0753 33.1849 53.8335 33.06C53.1373 32.6578 52.3845 32.363 51.6004 32.1857C50.6047 32.0034 49.5777 32.2413 48.7631 32.8427C48.1882 33.2706 47.8268 33.9264 47.7719 34.6407C47.7691 34.6792 47.7675 34.7182 47.7666 34.7572C47.6828 34.7898 47.5802 34.8239 47.5012 34.8506C47.4023 34.8836 47.3041 34.9169 47.2118 34.9515C46.5421 35.1612 45.9321 35.528 45.4333 36.0214C44.7736 35.7329 44.0801 35.5294 43.3691 35.4157C43.1522 35.3719 42.93 35.3271 42.7046 35.2758L42.5902 35.2507C42.5107 35.2332 42.397 35.2081 42.3355 35.1876C42.3093 35.1523 42.287 35.1133 42.2628 35.076C42.2013 34.983 42.1395 34.89 42.0712 34.8014C41.0975 33.5436 39.3619 33.5736 38.5234 33.5875H38.5236C38.2946 33.5914 38.0724 33.6673 37.8885 33.8045C37.7049 33.9414 37.5688 34.1328 37.4998 34.3513L37.4729 34.4368C36.6175 34.8918 35.8519 35.4984 35.2129 36.2269C34.9502 36.473 34.7417 36.7713 34.6009 37.1028C34.4959 37.399 34.4469 37.7121 34.4562 38.0261C34.4558 38.0567 34.4562 38.087 34.4558 38.1175C34.3236 38.2399 34.1853 38.3549 34.0408 38.4625C33.7375 38.6758 33.4655 38.9301 33.2322 39.2181C32.7607 39.9294 32.701 40.8373 33.0752 41.6042C32.9988 41.5872 32.917 41.568 32.8307 41.5466C32.3811 41.3691 32.0104 41.0357 31.7866 40.6073C31.5394 40.2318 31.3231 39.8212 31.0946 39.3871L31.0944 39.3869C30.7501 38.6796 30.3354 38.009 29.8566 37.3847C28.8285 36.1168 27.0416 35.0942 25.368 35.6688H25.3677C25.1848 35.7317 25.0218 35.8418 24.8954 35.9883C24.7689 36.1346 24.6834 36.3119 24.6479 36.5019C24.6032 36.7346 24.5157 36.957 24.39 37.1577C24.4096 36.9111 24.3918 36.663 24.3371 36.4219C23.9989 34.99 22.4317 34.5548 21.8408 34.3903C20.9535 34.0693 19.9938 34.0057 19.0718 34.2067C18.802 34.2917 18.5398 34.3997 18.2884 34.5291C18.1524 34.6 18.0118 34.6615 17.8676 34.7134C17.3512 34.8034 16.8217 34.7802 16.3156 34.6451C15.6551 34.5266 14.8944 34.3582 14.1586 34.1955C13.568 34.0647 12.9612 33.93 12.3893 33.8175C11.3976 32.4776 9.83108 31.8004 8.43401 31.1959L7.96621 30.9924C6.95792 30.5481 5.3467 27.3213 5.14114 25.6899L5.14091 25.6896C5.12314 25.4953 5.11744 25.3002 5.12382 25.1054C5.14068 24.7144 5.11288 24.3227 5.04111 23.9378C4.85585 23.0912 4.34204 22.3532 3.61241 21.8854C3.50668 21.8182 3.39503 21.7555 3.28292 21.6942C3.21183 21.6552 3.11248 21.6003 3.06714 21.5778C3.07352 21.4445 3.08765 21.3116 3.10929 21.1799L3.12843 21.0421C3.28224 19.8991 3.13595 16.8984 2.52189 15.6314L2.40978 15.4065V15.4068C2.30792 15.2368 2.2325 15.0524 2.18602 14.8599C2.22908 14.6341 2.30792 14.4165 2.41935 14.2153C3.65618 11.5226 4.42385 8.63833 4.68979 5.68698C4.71235 5.46845 4.78936 5.25928 4.91355 5.07809C5.69258 5.49964 6.35408 6.10919 6.83807 6.85113C7.01512 7.12502 7.30519 7.30572 7.62901 7.34399C7.9528 7.38205 8.2768 7.27381 8.51264 7.04846C8.74848 6.82333 8.87152 6.50455 8.84828 6.17941C8.83461 5.81255 8.85489 5.445 8.90866 5.08182C9.80647 5.64054 10.7828 6.06164 11.8055 6.33096C13.1419 6.6388 14.5064 6.80902 15.8777 6.83887C17.1961 6.85596 18.5079 7.03004 19.7853 7.35703C20.3376 7.5359 20.8802 7.74416 21.4104 7.98066C21.9326 8.20238 22.4727 8.43092 23.0425 8.61731C24.3078 8.991 25.6062 9.24282 26.9196 9.36881L36.8537 10.6318H36.854C37.1502 10.6692 37.4487 10.584 37.6807 10.3958C37.8226 10.2809 37.9716 10.1481 38.1245 10.0086L38.1555 10.1052H38.1553C38.2499 10.4411 38.4618 10.7321 38.7525 10.9255C39.1007 11.1374 39.5227 11.1917 39.9135 11.0745C40.4879 10.9317 41.0357 10.6963 41.5349 10.378C41.6625 10.6749 41.7778 10.9793 41.8788 11.2849C41.9478 11.4941 42.0784 11.6777 42.2536 11.8115C42.4288 11.945 42.6403 12.0227 42.8604 12.0341L42.983 12.0405C43.2917 12.1733 43.6454 12.1505 43.9348 11.9796C44.0501 11.9872 44.164 12.0081 44.2745 12.0416C44.7594 12.2137 45.2944 12.1715 45.7462 11.9259C46.1104 11.6889 46.3601 11.3116 46.4357 10.8839C46.448 10.8283 46.4588 10.7711 46.4688 10.7134L47.6281 10.682L47.6783 10.9256H47.6785C47.72 11.2222 47.8464 11.5007 48.0424 11.7274C48.2386 11.9539 48.4961 12.1189 48.7839 12.2025C49.1494 12.3385 49.5525 12.3326 49.9136 12.1859C49.9204 12.9494 49.5818 13.6754 48.9924 14.1607C48.7937 14.3059 48.6499 14.5137 48.5838 14.7507C48.5179 14.9874 48.5337 15.2396 48.6287 15.4666C48.8176 15.9025 49.1801 16.2397 49.6288 16.3963C50.3304 16.6276 51.0942 16.5784 51.7602 16.2591C53.4571 15.3515 54.928 14.0739 56.0636 12.5208C56.3653 12.7407 56.7545 12.8015 57.1088 12.6835C57.316 12.6138 57.4992 12.4873 57.6382 12.3189C57.7772 12.1503 57.8663 11.9463 57.8954 11.7296C57.9285 11.4705 57.9351 11.2087 57.9153 10.9485C57.9055 10.8316 57.9045 10.7145 57.9121 10.5976C58.0237 10.3481 58.9653 9.95457 59.4709 9.74311C60.6517 9.24956 61.9895 8.69038 62.326 7.40547C62.434 6.9755 62.4436 6.52663 62.3538 6.09228C62.3395 6.02119 62.3301 5.94941 62.326 5.87695C62.3319 5.85827 62.3399 5.84026 62.3502 5.82363C62.5006 5.68008 62.673 5.56136 62.8606 5.47158C63.0641 5.35993 63.2612 5.23666 63.4507 5.10267C64.0671 4.65925 64.4363 3.94943 64.4451 3.19022C64.4408 2.95347 64.3879 2.71991 64.2897 2.50434C64.3025 2.49204 64.3155 2.48087 64.3276 2.47062V2.47085C64.67 2.4173 65.0162 2.38927 65.3627 2.38699C65.3313 2.51346 65.2859 2.65405 65.2303 2.82016H65.2301C64.8537 3.66074 64.8872 4.62849 65.321 5.4413C65.4037 5.58759 65.1068 6.12969 64.9104 6.48808H64.9102C64.5643 7.0443 64.3223 7.65883 64.1963 8.30166C64.1765 8.44362 64.1658 8.58899 64.1569 8.73368H64.1567C64.1535 8.8426 64.1425 8.95107 64.1241 9.05839C63.9279 9.44507 63.9008 9.89576 64.0493 10.3032C64.2255 10.8467 64.6053 11.3006 65.1089 11.5702C65.6113 11.7743 66.1637 11.8217 66.6935 11.7062C66.7842 11.6927 66.9958 11.6613 67.0261 11.6602L67.0389 11.6661C67.0091 11.7383 66.9803 11.8087 66.9521 11.8778L66.9523 11.8777Z" fill="#B7500B"/>
</g>
</svg>
