<svg width="24" height="25" viewBox="0 0 24 25" fill="none" xmlns="http://www.w3.org/2000/svg">
<g id="Icons">
<path id="Vector (Stroke)" fill-rule="evenodd" clip-rule="evenodd" d="M8.64124 4.42738C9.53204 3.53658 10.7402 3.03613 12 3.03613C13.2598 3.03613 14.468 3.53658 15.3588 4.42738C16.2496 5.31817 16.75 6.52635 16.75 7.78613C16.75 9.04591 16.2496 10.2541 15.3588 11.1449C14.468 12.0357 13.2598 12.5361 12 12.5361C10.7402 12.5361 9.53204 12.0357 8.64124 11.1449C7.75044 10.2541 7.25 9.04591 7.25 7.78613C7.25 6.52635 7.75044 5.31817 8.64124 4.42738ZM12 4.53613C11.138 4.53613 10.3114 4.87854 9.7019 5.48804C9.09241 6.09753 8.75 6.92418 8.75 7.78613C8.75 8.64809 9.09241 9.47474 9.7019 10.0842C10.3114 10.6937 11.138 11.0361 12 11.0361C12.862 11.0361 13.6886 10.6937 14.2981 10.0842C14.9076 9.47474 15.25 8.64809 15.25 7.78613C15.25 6.92418 14.9076 6.09753 14.2981 5.48804C13.6886 4.87854 12.862 4.53613 12 4.53613Z" fill="#43423D"/>
<path id="Vector (Stroke)_2" fill-rule="evenodd" clip-rule="evenodd" d="M10 16.5361C9.13805 16.5361 8.3114 16.8785 7.7019 17.488C7.09241 18.0975 6.75 18.9242 6.75 19.7861V21.7861C6.75 22.2003 6.41421 22.5361 6 22.5361C5.58579 22.5361 5.25 22.2003 5.25 21.7861V19.7861C5.25 18.5264 5.75044 17.3182 6.64124 16.4274C7.53204 15.5366 8.74022 15.0361 10 15.0361H14C15.2598 15.0361 16.468 15.5366 17.3588 16.4274C18.2496 17.3182 18.75 18.5264 18.75 19.7861V21.7861C18.75 22.2003 18.4142 22.5361 18 22.5361C17.5858 22.5361 17.25 22.2003 17.25 21.7861V19.7861C17.25 18.9242 16.9076 18.0975 16.2981 17.488C15.6886 16.8785 14.862 16.5361 14 16.5361H10Z" fill="#43423D"/>
</g>
</svg>
