<svg width="135" height="15" viewBox="0 0 135 15" fill="none" xmlns="http://www.w3.org/2000/svg">
<circle cx="6.5" cy="7.32227" r="6.5" fill="#437F69"/>
<path d="M9.36071 5.14845C9.175 4.97851 8.89643 4.97851 8.71071 5.14845L5.22857 8.33472L3.78929 7.01773C3.60357 6.84779 3.325 6.84779 3.13929 7.01773C2.95357 7.18766 2.95357 7.44257 3.13929 7.6125L4.90357 9.22688C4.99643 9.31185 5.08929 9.35433 5.22857 9.35433C5.36786 9.35433 5.46071 9.31185 5.55357 9.22688L9.36071 5.74322C9.54643 5.57328 9.54643 5.31838 9.36071 5.14845Z" fill="white" stroke="white" stroke-width="0.342105"/>
<path d="M27.489 3.26127L24.07 12.3223H22.705L19.286 3.26127H20.547L23.394 11.0743L26.241 3.26127H27.489ZM35.2862 8.48727C35.2862 8.7126 35.2732 8.95093 35.2472 9.20227H29.5532C29.5965 9.90427 29.8348 10.4546 30.2682 10.8533C30.7102 11.2433 31.2432 11.4383 31.8672 11.4383C32.3785 11.4383 32.8032 11.3213 33.1412 11.0873C33.4878 10.8446 33.7305 10.5239 33.8692 10.1253H35.1432C34.9525 10.8099 34.5712 11.3689 33.9992 11.8023C33.4272 12.2269 32.7165 12.4393 31.8672 12.4393C31.1912 12.4393 30.5845 12.2876 30.0472 11.9843C29.5185 11.6809 29.1025 11.2519 28.7992 10.6973C28.4958 10.1339 28.3442 9.48393 28.3442 8.74727C28.3442 8.0106 28.4915 7.36493 28.7862 6.81027C29.0808 6.2556 29.4925 5.83093 30.0212 5.53627C30.5585 5.23293 31.1738 5.08127 31.8672 5.08127C32.5432 5.08127 33.1412 5.2286 33.6612 5.52327C34.1812 5.81793 34.5798 6.22527 34.8572 6.74527C35.1432 7.2566 35.2862 7.83727 35.2862 8.48727ZM34.0642 8.24027C34.0642 7.7896 33.9645 7.40393 33.7652 7.08327C33.5658 6.75393 33.2928 6.50693 32.9462 6.34227C32.6082 6.16893 32.2312 6.08227 31.8152 6.08227C31.2172 6.08227 30.7058 6.27293 30.2812 6.65427C29.8652 7.0356 29.6268 7.56427 29.5662 8.24027H34.0642ZM38.0307 6.35527C38.2387 5.94793 38.5333 5.6316 38.9147 5.40627C39.3047 5.18093 39.777 5.06827 40.3317 5.06827V6.29027H40.0197C38.6937 6.29027 38.0307 7.0096 38.0307 8.44827V12.3223H36.8477V5.19827H38.0307V6.35527ZM42.3083 4.04127C42.083 4.04127 41.8923 3.96327 41.7363 3.80727C41.5803 3.65127 41.5023 3.4606 41.5023 3.23526C41.5023 3.00993 41.5803 2.81927 41.7363 2.66327C41.8923 2.50727 42.083 2.42927 42.3083 2.42927C42.525 2.42927 42.707 2.50727 42.8543 2.66327C43.0103 2.81927 43.0883 3.00993 43.0883 3.23526C43.0883 3.4606 43.0103 3.65127 42.8543 3.80727C42.707 3.96327 42.525 4.04127 42.3083 4.04127ZM42.8803 5.19827V12.3223H41.6973V5.19827H42.8803ZM47.7955 6.17327H46.3005V12.3223H45.1175V6.17327H44.1945V5.19827H45.1175V4.69127C45.1175 3.89393 45.3212 3.31327 45.7285 2.94927C46.1445 2.5766 46.8075 2.39026 47.7175 2.39026V3.37827C47.1975 3.37827 46.8292 3.48227 46.6125 3.69027C46.4045 3.8896 46.3005 4.22327 46.3005 4.69127V5.19827H47.7955V6.17327ZM49.7858 4.04127C49.5605 4.04127 49.3698 3.96327 49.2138 3.80727C49.0578 3.65127 48.9798 3.4606 48.9798 3.23526C48.9798 3.00993 49.0578 2.81927 49.2138 2.66327C49.3698 2.50727 49.5605 2.42927 49.7858 2.42927C50.0025 2.42927 50.1845 2.50727 50.3318 2.66327C50.4878 2.81927 50.5658 3.00993 50.5658 3.23526C50.5658 3.4606 50.4878 3.65127 50.3318 3.80727C50.1845 3.96327 50.0025 4.04127 49.7858 4.04127ZM50.3578 5.19827V12.3223H49.1748V5.19827H50.3578ZM58.874 8.48727C58.874 8.7126 58.861 8.95093 58.835 9.20227H53.141C53.1844 9.90427 53.4227 10.4546 53.856 10.8533C54.298 11.2433 54.831 11.4383 55.455 11.4383C55.9664 11.4383 56.391 11.3213 56.729 11.0873C57.0757 10.8446 57.3184 10.5239 57.457 10.1253H58.731C58.5404 10.8099 58.159 11.3689 57.587 11.8023C57.015 12.2269 56.3044 12.4393 55.455 12.4393C54.779 12.4393 54.1724 12.2876 53.635 11.9843C53.1064 11.6809 52.6904 11.2519 52.387 10.6973C52.0837 10.1339 51.932 9.48393 51.932 8.74727C51.932 8.0106 52.0794 7.36493 52.374 6.81027C52.6687 6.2556 53.0804 5.83093 53.609 5.53627C54.1464 5.23293 54.7617 5.08127 55.455 5.08127C56.131 5.08127 56.729 5.2286 57.249 5.52327C57.769 5.81793 58.1677 6.22527 58.445 6.74527C58.731 7.2566 58.874 7.83727 58.874 8.48727ZM57.652 8.24027C57.652 7.7896 57.5524 7.40393 57.353 7.08327C57.1537 6.75393 56.8807 6.50693 56.534 6.34227C56.196 6.16893 55.819 6.08227 55.403 6.08227C54.805 6.08227 54.2937 6.27293 53.869 6.65427C53.453 7.0356 53.2147 7.56427 53.154 8.24027H57.652ZM59.9936 8.73427C59.9936 8.00627 60.1409 7.36927 60.4356 6.82327C60.7302 6.2686 61.1332 5.8396 61.6446 5.53627C62.1646 5.23293 62.7452 5.08127 63.3866 5.08127C63.9412 5.08127 64.4569 5.21127 64.9336 5.47127C65.4102 5.7226 65.7742 6.05627 66.0256 6.47227V2.70227H67.2216V12.3223H66.0256V10.9833C65.7916 11.4079 65.4449 11.7589 64.9856 12.0363C64.5262 12.3049 63.9889 12.4393 63.3736 12.4393C62.7409 12.4393 62.1646 12.2833 61.6446 11.9713C61.1332 11.6593 60.7302 11.2216 60.4356 10.6583C60.1409 10.0949 59.9936 9.4536 59.9936 8.73427ZM66.0256 8.74727C66.0256 8.20993 65.9172 7.74193 65.7006 7.34327C65.4839 6.9446 65.1892 6.64127 64.8166 6.43327C64.4526 6.2166 64.0496 6.10827 63.6076 6.10827C63.1656 6.10827 62.7626 6.21227 62.3986 6.42027C62.0346 6.62827 61.7442 6.9316 61.5276 7.33027C61.3109 7.72893 61.2026 8.19693 61.2026 8.73427C61.2026 9.28027 61.3109 9.75693 61.5276 10.1643C61.7442 10.5629 62.0346 10.8706 62.3986 11.0873C62.7626 11.2953 63.1656 11.3993 63.6076 11.3993C64.0496 11.3993 64.4526 11.2953 64.8166 11.0873C65.1892 10.8706 65.4839 10.5629 65.7006 10.1643C65.9172 9.75693 66.0256 9.2846 66.0256 8.74727ZM72.2445 8.74727C72.2445 8.0106 72.3919 7.36927 72.6865 6.82327C72.9812 6.2686 73.3885 5.8396 73.9085 5.53627C74.4372 5.23293 75.0395 5.08127 75.7155 5.08127C76.5909 5.08127 77.3102 5.2936 77.8735 5.71827C78.4455 6.14293 78.8225 6.73227 79.0045 7.48627H77.7305C77.6092 7.05293 77.3709 6.7106 77.0155 6.45927C76.6689 6.20793 76.2355 6.08227 75.7155 6.08227C75.0395 6.08227 74.4935 6.31627 74.0775 6.78427C73.6615 7.2436 73.4535 7.89793 73.4535 8.74727C73.4535 9.60527 73.6615 10.2683 74.0775 10.7363C74.4935 11.2043 75.0395 11.4383 75.7155 11.4383C76.2355 11.4383 76.6689 11.3169 77.0155 11.0743C77.3622 10.8316 77.6005 10.4849 77.7305 10.0343H79.0045C78.8139 10.7623 78.4325 11.3473 77.8605 11.7893C77.2885 12.2226 76.5735 12.4393 75.7155 12.4393C75.0395 12.4393 74.4372 12.2876 73.9085 11.9843C73.3885 11.6809 72.9812 11.2519 72.6865 10.6973C72.3919 10.1426 72.2445 9.4926 72.2445 8.74727ZM86.901 5.19827V12.3223H85.718V11.2693C85.4927 11.6333 85.1764 11.9193 84.769 12.1273C84.3704 12.3266 83.9284 12.4263 83.443 12.4263C82.8884 12.4263 82.39 12.3136 81.948 12.0883C81.506 11.8543 81.155 11.5076 80.895 11.0483C80.6437 10.5889 80.518 10.0299 80.518 9.37127V5.19827H81.688V9.21527C81.688 9.91727 81.8657 10.4589 82.221 10.8403C82.5764 11.2129 83.0617 11.3993 83.677 11.3993C84.3097 11.3993 84.808 11.2043 85.172 10.8143C85.536 10.4243 85.718 9.8566 85.718 9.11127V5.19827H86.901ZM91.4205 12.4393C90.8745 12.4393 90.3848 12.3483 89.9515 12.1663C89.5181 11.9756 89.1758 11.7156 88.9245 11.3863C88.6731 11.0483 88.5345 10.6626 88.5085 10.2293H89.7305C89.7651 10.5846 89.9298 10.8749 90.2245 11.1003C90.5278 11.3256 90.9221 11.4383 91.4075 11.4383C91.8581 11.4383 92.2135 11.3386 92.4735 11.1393C92.7335 10.9399 92.8635 10.6886 92.8635 10.3853C92.8635 10.0733 92.7248 9.8436 92.4475 9.69627C92.1701 9.54027 91.7411 9.3886 91.1605 9.24127C90.6318 9.1026 90.1985 8.96393 89.8605 8.82527C89.5311 8.67793 89.2451 8.4656 89.0025 8.18827C88.7685 7.90227 88.6515 7.5296 88.6515 7.07027C88.6515 6.70627 88.7598 6.3726 88.9765 6.06927C89.1931 5.76593 89.5008 5.5276 89.8995 5.35427C90.2981 5.17227 90.7531 5.08127 91.2645 5.08127C92.0531 5.08127 92.6901 5.2806 93.1755 5.67927C93.6608 6.07793 93.9208 6.62393 93.9555 7.31727H92.7725C92.7465 6.9446 92.5948 6.6456 92.3175 6.42027C92.0488 6.19493 91.6848 6.08227 91.2255 6.08227C90.8008 6.08227 90.4628 6.17327 90.2115 6.35527C89.9601 6.53727 89.8345 6.7756 89.8345 7.07027C89.8345 7.30427 89.9081 7.49927 90.0555 7.65527C90.2115 7.8026 90.4021 7.92393 90.6275 8.01927C90.8615 8.10593 91.1821 8.2056 91.5895 8.31827C92.1008 8.45693 92.5168 8.5956 92.8375 8.73427C93.1581 8.86427 93.4311 9.0636 93.6565 9.33227C93.8905 9.60093 94.0118 9.95193 94.0205 10.3853C94.0205 10.7753 93.9121 11.1263 93.6955 11.4383C93.4788 11.7503 93.1711 11.9973 92.7725 12.1793C92.3825 12.3526 91.9318 12.4393 91.4205 12.4393ZM97.1335 6.17327V10.3723C97.1335 10.7189 97.2071 10.9659 97.3545 11.1133C97.5018 11.2519 97.7575 11.3213 98.1215 11.3213H98.9925V12.3223H97.9265C97.2678 12.3223 96.7738 12.1706 96.4445 11.8673C96.1151 11.5639 95.9505 11.0656 95.9505 10.3723V6.17327H95.0275V5.19827H95.9505V3.40426H97.1335V5.19827H98.9925V6.17327H97.1335ZM103.533 12.4393C102.865 12.4393 102.259 12.2876 101.713 11.9843C101.175 11.6809 100.751 11.2519 100.439 10.6973C100.135 10.1339 99.9838 9.48393 99.9838 8.74727C99.9838 8.01927 100.14 7.37793 100.452 6.82327C100.772 6.25993 101.206 5.83093 101.752 5.53627C102.298 5.23293 102.909 5.08127 103.585 5.08127C104.261 5.08127 104.872 5.23293 105.418 5.53627C105.964 5.83093 106.393 6.2556 106.705 6.81027C107.025 7.36493 107.186 8.0106 107.186 8.74727C107.186 9.48393 107.021 10.1339 106.692 10.6973C106.371 11.2519 105.933 11.6809 105.379 11.9843C104.824 12.2876 104.209 12.4393 103.533 12.4393ZM103.533 11.3993C103.957 11.3993 104.356 11.2996 104.729 11.1003C105.101 10.9009 105.4 10.6019 105.626 10.2033C105.86 9.8046 105.977 9.31927 105.977 8.74727C105.977 8.17527 105.864 7.68993 105.639 7.29127C105.413 6.8926 105.119 6.59793 104.755 6.40727C104.391 6.20793 103.996 6.10827 103.572 6.10827C103.138 6.10827 102.74 6.20793 102.376 6.40727C102.02 6.59793 101.734 6.8926 101.518 7.29127C101.301 7.68993 101.193 8.17527 101.193 8.74727C101.193 9.32793 101.297 9.8176 101.505 10.2163C101.721 10.6149 102.007 10.9139 102.363 11.1133C102.718 11.3039 103.108 11.3993 103.533 11.3993ZM117.308 5.06827C117.863 5.06827 118.357 5.18527 118.79 5.41927C119.224 5.6446 119.566 5.98693 119.817 6.44627C120.069 6.9056 120.194 7.4646 120.194 8.12327V12.3223H119.024V8.29227C119.024 7.5816 118.847 7.03993 118.491 6.66727C118.145 6.28593 117.672 6.09527 117.074 6.09527C116.459 6.09527 115.969 6.2946 115.605 6.69327C115.241 7.08327 115.059 7.65093 115.059 8.39627V12.3223H113.889V8.29227C113.889 7.5816 113.712 7.03993 113.356 6.66727C113.01 6.28593 112.537 6.09527 111.939 6.09527C111.324 6.09527 110.834 6.2946 110.47 6.69327C110.106 7.08327 109.924 7.65093 109.924 8.39627V12.3223H108.741V5.19827H109.924V6.22527C110.158 5.8526 110.47 5.5666 110.86 5.36727C111.259 5.16793 111.697 5.06827 112.173 5.06827C112.771 5.06827 113.3 5.2026 113.759 5.47127C114.219 5.73993 114.561 6.13427 114.786 6.65427C114.986 6.1516 115.315 5.7616 115.774 5.48427C116.234 5.20693 116.745 5.06827 117.308 5.06827ZM128.635 8.48727C128.635 8.7126 128.622 8.95093 128.596 9.20227H122.902C122.945 9.90427 123.183 10.4546 123.617 10.8533C124.059 11.2433 124.592 11.4383 125.216 11.4383C125.727 11.4383 126.152 11.3213 126.49 11.0873C126.836 10.8446 127.079 10.5239 127.218 10.1253H128.492C128.301 10.8099 127.92 11.3689 127.348 11.8023C126.776 12.2269 126.065 12.4393 125.216 12.4393C124.54 12.4393 123.933 12.2876 123.396 11.9843C122.867 11.6809 122.451 11.2519 122.148 10.6973C121.844 10.1339 121.693 9.48393 121.693 8.74727C121.693 8.0106 121.84 7.36493 122.135 6.81027C122.429 6.2556 122.841 5.83093 123.37 5.53627C123.907 5.23293 124.522 5.08127 125.216 5.08127C125.892 5.08127 126.49 5.2286 127.01 5.52327C127.53 5.81793 127.928 6.22527 128.206 6.74527C128.492 7.2566 128.635 7.83727 128.635 8.48727ZM127.413 8.24027C127.413 7.7896 127.313 7.40393 127.114 7.08327C126.914 6.75393 126.641 6.50693 126.295 6.34227C125.957 6.16893 125.58 6.08227 125.164 6.08227C124.566 6.08227 124.054 6.27293 123.63 6.65427C123.214 7.0356 122.975 7.56427 122.915 8.24027H127.413ZM131.379 6.35527C131.587 5.94793 131.882 5.6316 132.263 5.40627C132.653 5.18093 133.126 5.06827 133.68 5.06827V6.29027H133.368C132.042 6.29027 131.379 7.0096 131.379 8.44827V12.3223H130.196V5.19827H131.379V6.35527Z" fill="#437F69"/>
</svg>
