<svg width="53" height="51" viewBox="0 0 53 51" fill="none" xmlns="http://www.w3.org/2000/svg">
<g id="Graphic Icons" clip-path="url(#clip0_859_5173)">
<path id="Vector" d="M8.52029 6.41358C8.69695 6.5379 8.89977 6.5837 9.1026 6.54444C9.1026 6.54444 9.10914 6.54444 9.11568 6.54444C14.0489 5.56302 18.1709 5.96867 21.7302 7.78757C24.9034 9.41018 27.3308 11.9684 29.6797 14.4416C32.1856 17.0783 34.77 19.8067 38.1526 21.4162C39.978 22.2864 41.8885 22.764 43.9888 22.8949C44.3617 22.9145 44.7346 22.9276 45.1207 22.9276C47.1424 22.9276 49.3015 22.6135 51.6896 21.9658C52.128 21.848 52.4028 21.3573 52.3046 20.8731C52.2523 20.618 52.1084 20.4021 51.899 20.2712C51.7158 20.1534 51.4999 20.1207 51.2905 20.1796C48.6472 20.8928 46.3049 21.1741 44.1327 21.0367C42.2026 20.9189 40.4491 20.4675 38.7676 19.6693C35.6271 18.171 33.2978 15.7174 30.8247 13.1134C25.8194 7.83991 20.6441 2.38322 8.82126 4.73209C8.37635 4.81714 8.07538 5.29477 8.14735 5.78547C8.18661 6.04064 8.32401 6.26964 8.52029 6.41358Z" fill="#B7500B"/>
<path id="Vector_2" d="M29.9226 1.95141C30.7535 2.71038 31.5387 3.49551 32.2976 4.24793L32.35 4.30027C36.2495 8.16706 39.9462 11.8376 46.7507 11.8376C47.346 11.8376 47.9611 11.8114 48.6023 11.7525C49.0603 11.7133 49.4005 11.2683 49.3678 10.7646C49.3481 10.5028 49.2304 10.2673 49.0472 10.1037C48.8836 9.96633 48.6742 9.89436 48.4714 9.91399C41.1697 10.5748 37.4337 6.85851 33.4688 2.93283C32.7098 2.18041 31.8527 1.32331 30.9891 0.53817C30.8124 0.381143 30.5965 0.309173 30.3741 0.335344C30.1451 0.361515 29.9357 0.492371 29.7983 0.695197C29.53 1.08122 29.5824 1.63082 29.9161 1.94487C29.9161 1.94487 29.9226 1.95141 29.9291 1.95796L29.9226 1.95141Z" fill="#B7500B"/>
<path id="Vector_3" d="M25.2443 47.4696L25.1527 47.378C19.9316 41.954 14.5338 36.3534 1.84732 39.1995C1.39587 39.2976 1.10145 39.7818 1.1865 40.2725C1.2323 40.5277 1.3697 40.7501 1.57253 40.8875C1.74918 41.0053 1.96509 41.0511 2.17446 41.0053C2.17446 41.0053 2.17446 41.0053 2.18101 41.0053C5.02712 40.3641 7.55264 40.1548 9.89496 40.3641C11.969 40.5473 13.8533 41.0577 15.6592 41.9279C19.0091 43.5439 21.5411 46.1676 23.9947 48.7127L24.119 48.8436C24.5181 49.2623 24.9368 49.6876 25.3229 50.0802C25.4799 50.2372 25.6827 50.3223 25.8921 50.3223C26.1014 50.3223 25.9182 50.3223 25.9379 50.3223C26.1669 50.3092 26.3828 50.1979 26.5333 50.0082C26.8277 49.6353 26.8015 49.0726 26.4678 48.7389C26.036 48.3005 25.6369 47.8818 25.2443 47.4761V47.4696Z" fill="#B7500B"/>
<path id="Vector_4" d="M52.9006 31.021C52.8352 30.7724 52.6782 30.563 52.4622 30.4518C52.2725 30.3471 52.05 30.334 51.8472 30.406C48.7394 31.4921 46.0176 32.0417 43.5182 32.094C41.3002 32.1398 39.3112 31.7865 37.4334 31.0145C33.9265 29.5751 31.4272 26.9383 28.7773 24.1445C23.3992 18.4785 17.8378 12.6161 4.11756 16.3979C3.96708 16.4371 3.78388 16.4895 3.60068 16.5418L3.02492 16.7054C2.74358 16.7839 2.5015 16.8559 2.44915 16.869C2.00424 16.9933 1.74253 17.4774 1.84722 17.9681C1.89956 18.2233 2.05004 18.4392 2.25941 18.5635C2.44261 18.6748 2.65852 18.7075 2.86789 18.6486C2.87443 18.6486 2.88098 18.6486 2.89406 18.6421C2.95949 18.6224 3.11652 18.5766 3.30626 18.5243C3.48291 18.4719 3.69228 18.4131 3.88857 18.3607L4.27459 18.2495C4.40545 18.2102 4.47742 18.1906 4.51667 18.1775C7.61141 17.327 10.3332 16.9606 12.8456 17.0718C15.0702 17.1634 17.0723 17.6279 18.9697 18.485C22.5028 20.0749 25.1068 22.8229 27.6258 25.4793C30.3149 28.3123 33.0956 31.2435 36.8708 32.7941C38.7878 33.5792 40.8095 33.9653 43.0406 33.9653C45.2717 33.9653 43.322 33.9653 43.4659 33.9653C46.1419 33.9064 49.0469 33.3175 52.3576 32.166C52.7828 32.0155 53.0315 31.5117 52.9071 31.0341L52.9006 31.021Z" fill="#B7500B"/>
<path id="Vector_5" d="M50.1914 41.2998C50.0017 41.1951 49.7793 41.1755 49.5764 41.2474C46.4817 42.3205 43.773 42.8635 41.2867 42.9093C39.0753 42.9486 37.0928 42.5953 35.2215 41.8232C31.7277 40.3773 29.2349 37.7471 26.5916 34.9598C21.1807 29.2611 15.5866 23.366 1.70284 27.272C1.66358 27.2851 1.46075 27.3375 1.24484 27.3898L0.695247 27.5338C0.250337 27.6581 -0.0113748 28.1422 0.0933099 28.6329C0.145652 28.8881 0.296136 29.104 0.505506 29.2283C0.688704 29.3396 0.904616 29.3723 1.11399 29.3134C1.12053 29.3134 1.13361 29.3134 1.14016 29.3069C1.21213 29.2872 1.38224 29.2414 1.54581 29.2022L1.78135 29.1433C2.06269 29.0713 2.10849 29.0582 2.12157 29.0582C5.25557 28.175 8.01009 27.7955 10.5487 27.8805C12.7994 27.959 14.8211 28.417 16.7382 29.2676C20.2974 30.8575 22.9211 33.6186 25.4597 36.288C28.1423 39.1145 30.9164 42.0391 34.6785 43.5963C36.6021 44.388 38.6303 44.7806 40.8745 44.7806C40.9988 44.7806 41.1166 44.7806 41.2409 44.7806C43.9038 44.7282 46.7957 44.1524 50.0868 43.014C50.5251 42.8635 50.7672 42.3663 50.6429 41.8821C50.5775 41.6335 50.4205 41.4241 50.2111 41.3063L50.1914 41.2998Z" fill="#B7500B"/>
</g>
<defs>
<clipPath id="clip0_859_5173">
<rect width="52.8657" height="50" fill="white" transform="translate(0.0673828 0.322266)"/>
</clipPath>
</defs>
</svg>
