<svg width="45" height="46" viewBox="0 0 45 46" fill="none" xmlns="http://www.w3.org/2000/svg">
<g id="Graphic Icons" clip-path="url(#clip0_738_20541)">
<path id="Vector" d="M40.8336 0.322266H4.16644C1.86863 0.322266 0 2.19089 0 4.4887V41.1553C0 43.4531 1.86863 45.3217 4.16644 45.3217H40.833C43.1308 45.3217 44.9994 43.4531 44.9994 41.1553V4.4887C44.9994 2.19089 43.1308 0.322266 40.833 0.322266H40.8336ZM43.3333 41.1553C43.3333 42.5345 42.2122 43.655 40.8336 43.655H4.16644C2.78719 43.655 1.66669 42.534 1.66669 41.1553V4.4887C1.66669 3.10945 2.78775 1.98895 4.16644 1.98895H40.833C42.2122 1.98895 43.3327 3.11002 43.3327 4.4887V41.1553H43.3333ZM22.5006 6.98902C16.7214 6.98902 11.3507 9.55177 8.48194 13.6805C8.23387 14.0366 8.3025 14.5265 8.64 14.8016L16.2191 20.9677C16.4689 21.1719 16.8131 21.2135 17.1022 21.074C17.3919 20.9368 17.577 20.6426 17.577 20.322C17.577 18.1991 19.7854 16.4722 22.4977 16.4722C25.2101 16.4722 27.4185 18.1991 27.4185 20.322C27.4185 20.6426 27.6041 20.9368 27.8932 21.074C28.008 21.128 28.1306 21.155 28.2516 21.155C28.4389 21.155 28.6267 21.0926 28.7764 20.9677L36.3555 14.8016C36.693 14.5265 36.7616 14.0371 36.5136 13.6805C33.6448 9.55345 28.2741 6.98902 22.4949 6.98902H22.4989H22.5006ZM28.8276 18.783C28.0294 16.4874 25.4942 14.8061 22.5006 14.8061C21.4942 14.8061 20.5487 15.0103 19.6943 15.3478L18.2441 12.4498C18.0377 12.0391 17.5359 11.8704 17.1253 12.0768C16.713 12.2833 16.5459 12.7833 16.7524 13.1956L18.2272 16.1454C17.2671 16.835 16.5336 17.739 16.1707 18.783L10.3101 14.0141C12.9662 10.6914 17.5579 8.65739 22.4977 8.65739C27.4376 8.65739 32.031 10.6931 34.6854 14.0141L28.8247 18.783H28.827H28.8276Z" fill="#B7500B"/>
</g>
<defs>
<clipPath id="clip0_738_20541">
<rect width="45" height="45" fill="white" transform="translate(0 0.322266)"/>
</clipPath>
</defs>
</svg>
