<svg width="33" height="33" viewBox="0 0 33 33" fill="none" xmlns="http://www.w3.org/2000/svg">
<path d="M15.5489 2.92705C15.8483 2.00574 17.1517 2.00574 17.4511 2.92705L19.98 10.7102C20.1138 11.1223 20.4978 11.4012 20.931 11.4012H29.1147C30.0835 11.4012 30.4862 12.6408 29.7025 13.2102L23.0818 18.0205C22.7313 18.2752 22.5846 18.7265 22.7185 19.1385L25.2474 26.9217C25.5468 27.843 24.4923 28.6092 23.7086 28.0398L17.0878 23.2295C16.7373 22.9748 16.2627 22.9748 15.9122 23.2295L9.29144 28.0398C8.50773 28.6092 7.45325 27.843 7.7526 26.9217L10.2815 19.1385C10.4154 18.7265 10.2687 18.2752 9.91824 18.0205L3.29747 13.2102C2.51375 12.6408 2.91653 11.4012 3.88525 11.4012H12.069C12.5022 11.4012 12.8862 11.1223 13.02 10.7102L15.5489 2.92705Z" fill="#FBC400"/>
<path fill-rule="evenodd" clip-rule="evenodd" d="M22 11.4012V26.7985L23.7085 28.0398C24.4922 28.6092 25.5467 27.8431 25.2474 26.9218L22.7185 19.1386C22.5846 18.7265 22.7312 18.2752 23.0817 18.0205L29.7025 13.2103C30.4862 12.6409 30.0834 11.4012 29.1147 11.4012H22Z" fill="#F6E6AA"/>
</svg>
