<svg width="25" height="25" viewBox="0 0 25 25" fill="none" xmlns="http://www.w3.org/2000/svg">
<path d="M11.4239 2.92705C11.7233 2.00574 13.0267 2.00574 13.3261 2.92705L14.9288 7.85993C15.0627 8.27195 15.4467 8.55091 15.8799 8.55091H21.0666C22.0354 8.55091 22.4381 9.79053 21.6544 10.3599L17.4583 13.4086C17.1078 13.6633 16.9611 14.1146 17.095 14.5267L18.6978 19.4595C18.9971 20.3808 17.9427 21.147 17.1589 20.5776L12.9628 17.5289C12.6123 17.2742 12.1377 17.2742 11.7872 17.5289L7.59105 20.5776C6.80734 21.147 5.75286 20.3808 6.05221 19.4595L7.655 14.5267C7.78888 14.1146 7.64222 13.6633 7.29173 13.4086L3.09557 10.3599C2.31186 9.79053 2.71464 8.55091 3.68336 8.55091H8.8701C9.30332 8.55091 9.68728 8.27195 9.82115 7.85993L11.4239 2.92705Z" fill="#FBC400"/>
</svg>
