<svg width="25" height="26" viewBox="0 0 25 26" fill="none" xmlns="http://www.w3.org/2000/svg">
<path d="M11.4239 3.49932C11.7233 2.57801 13.0267 2.57801 13.3261 3.49932L14.9288 8.4322C15.0627 8.84422 15.4467 9.12318 15.8799 9.12318H21.0666C22.0354 9.12318 22.4381 10.3628 21.6544 10.9322L17.4583 13.9809C17.1078 14.2355 16.9611 14.6869 17.095 15.0989L18.6978 20.0318C18.9971 20.9531 17.9427 21.7192 17.1589 21.1498L12.9628 18.1011C12.6123 17.8465 12.1377 17.8465 11.7872 18.1011L7.59105 21.1498C6.80734 21.7192 5.75286 20.9531 6.05221 20.0318L7.655 15.0989C7.78888 14.6869 7.64222 14.2355 7.29173 13.9809L3.09557 10.9322C2.31186 10.3628 2.71464 9.12318 3.68336 9.12318H8.8701C9.30332 9.12318 9.68728 8.84422 9.82115 8.4322L11.4239 3.49932Z" fill="#FBC400"/>
<path fill-rule="evenodd" clip-rule="evenodd" d="M16.5001 9.12329V20.6712L17.159 21.1499C17.9427 21.7193 18.9972 20.9532 18.6978 20.0319L17.095 15.099C16.9612 14.687 17.1078 14.2356 17.4583 13.981L21.6545 10.9323C22.4382 10.3629 22.0354 9.12329 21.0667 9.12329H16.5001Z" fill="#F6E6AA"/>
</svg>
