<?xml version="1.0" encoding="UTF-8"?>
<svg id="Layer_1" xmlns="http://www.w3.org/2000/svg" version="1.1" viewBox="0 0 844.03 136.6">
  <!-- Generator: Adobe Illustrator 29.4.0, SVG Export Plug-In . SVG Version: 2.1.0 Build 152)  -->
  <defs>
    <style>
      .st0 {
        fill: #fff;
      }
    </style>
  </defs>
  <g>
    <path class="st0" d="M384.3,77.9c12.5,0,22.6-8.9,22.7-19.9,0-11-10.1-19.9-22.6-19.9h-27.8v59.6h7.3v-19.7c11.3,3.7,21.9,10.1,32.7,19.9h11.3c-8.4-8.5-16.6-15.1-25-20h1.6-.2ZM363.8,69.6h0v-23.3h20.5c8.3,0,15.3,5.4,15.3,11.8s-7,11.7-15.4,11.7h-20.6.2v-.2Z"/>
    <path class="st0" d="M312.1,77.8c12.5,0,22.6-8.9,22.7-19.9,0-11-10.1-19.9-22.6-19.9h-27.8v59.6h7.3v-19.7c11.3,3.7,21.9,10.1,32.7,19.9h11.3c-8.4-8.5-16.6-15.1-25-20h1.6s-.2,0-.2,0ZM291.6,69.5h0v-23.3h20.5c8.3,0,15.3,5.4,15.3,11.8s-7,11.7-15.4,11.7h-20.6.2v-.2Z"/>
    <path class="st0" d="M446.4,38.3l-25.8,59.7h8.1l8.6-20h24.3l8.6,20.1h8.1l-25.6-59.8h-6.4.1,0ZM440.9,69.8l8.7-20.1,8.6,20.1h-17.3Z"/>
    <polygon class="st0" points="141.3 45.6 164.6 45.7 164.5 97.5 171.8 97.5 171.9 45.7 195.2 45.7 195.2 37.5 141.3 37.4 141.3 45.6"/>
    <polygon class="st0" points="216.4 97.5 264.5 97.5 264.5 89.4 223.7 89.3 223.7 72.7 249.3 72.7 249.3 64.5 223.7 64.5 223.8 45.8 264.6 45.9 264.6 37.7 216.5 37.6 216.4 97.5"/>
    <g>
      <path class="st0" d="M809.8,121.9c-29.2,13.4-52-4-70.4-22.9-8.6-8.8-17-15.5-25.7-20.6h1.6c12.5,0,22.6-8.9,22.7-19.9,0-11-10.1-19.9-22.6-19.9h-27.8v29.7c-4.5-.9-9-1.5-13.8-1.7-7.3-.3-14.2.4-20.8,1.8l-12.8-29.8h-6.4l-25.8,59.7h10.4c7.2-9.7,17.8-16.8,30.4-20.5l8.8,20.5h8.1l-9.6-22.3c5.5-1,11.3-1.5,17.3-1.2,4.8.2,9.5.8,14,1.8v21.6h7.3v-19.6c13.8,4.5,26.6,13,39.7,26.5,14.3,14.6,32.5,29.7,54.9,29.7,8.58,0,15-1.6,23.2-5.3l-2.7-7.6h0ZM623,82.4l14-32.4,8.7,20.3c-8.5,2.7-16.2,6.8-22.7,12.1ZM694.9,46.8h20.5c8.3,0,15.3,5.4,15.3,11.8s-7,11.7-15.4,11.7h-20.5v-23.4h.1v-.1Z"/>
      <polygon class="st0" points="559.2 64.5 537.9 38.5 531.2 38.4 531.1 98.1 538.4 98.2 538.5 51.2 556.8 73.6 561.6 73.6 580.1 51.2 580 98.2 587.3 98.2 587.4 38.5 580.6 38.5 559.2 64.5"/>
      <polygon class="st0" points="808 90.1 767.2 90 767.2 73.4 792.8 73.4 792.8 65.2 767.2 65.2 767.2 46.5 808 46.6 808 38.4 760 38.3 759.9 98.2 808 98.3 808 90.1"/>
    </g>
  </g>
  <path class="st0" d="M16.8,61.1h-.7c-3-.2-5.9-1.4-8.5-3.5-1.7-1.4-3.3-3.3-4.9-5.7-.3-.5-.6-1-.9-1.4l6.5-4c.3.4.5.8.8,1.2,1.2,1.8,2.4,3.2,3.5,4.1,1.3,1.1,2.6,1.7,4,1.7s3.1-.3,4.7-2.3c.8-1,1.6-2.3,2.4-3.6,1.2-2,2.4-4,4.1-5.8,3-3.2,6.6-4.7,10.2-4.6,2.9.2,5.7,1.3,8.2,3.3,1.7,1.4,3.3,3.2,4.9,5.5,0,.1.2.2.2.4,1.5,2.4,2.8,4.1,4.2,5.2,1.3,1.1,2.6,1.7,4,1.7h.9c.3,0,.7-.1,1-.2.4-.1.7-.2,1-.4,1.6-.8,3.1-3.3,4.7-5.7,2.1-3.4,4.3-6.8,8-8.5,6.4-3,13.9,0,19.1,7.5,0,.1.2.3.2.4,1.5,2.4,2.8,4.1,4.2,5.2,1.3,1.1,2.6,1.7,4,1.7s3.1-.3,4.7-2.3c.8-1,1.6-2.3,2.4-3.7l.5-.8,6.6,3.9-.5.8c-.9,1.5-1.9,3.1-3,4.6-2.8,3.5-6.8,5.3-11.1,5.1-3-.2-5.9-1.4-8.5-3.5-2-1.7-3.9-4-5.8-7.2-2.5-3.5-6.1-6.5-9.5-4.9-1.6.8-3.2,3.3-4.8,5.7-2,3.2-4.2,6.5-7.5,8.3-.7.4-1.5.7-2.4,1-.8.2-1.6.4-2.5.5h-2.1c-3-.2-5.9-1.4-8.5-3.5-2-1.7-3.9-4-5.8-7.2h0c-1.2-1.7-2.3-3-3.4-3.9-1.2-1-2.5-1.5-3.8-1.6-1.4,0-2.9.7-4.5,2.3-1,1-1.9,2.6-2.9,4.3-.9,1.5-1.9,3.1-3,4.6-2.7,3.3-6.3,5.1-10.3,5.1v.2h-.1Z"/>
  <path class="st0" d="M16.8,97.6h-.7c-3-.2-5.9-1.4-8.5-3.5-1.7-1.4-3.3-3.3-4.9-5.7-.3-.5-.6-1-.9-1.4l6.5-4c.3.4.5.8.8,1.2,1.2,1.8,2.4,3.2,3.5,4.1,1.3,1.1,2.6,1.7,4,1.7s3.1-.3,4.7-2.3c.8-1,1.6-2.3,2.4-3.6,1.2-2,2.4-4,4.1-5.8,3.1-3.2,6.7-4.7,10.3-4.5,2.9.2,5.7,1.3,8.2,3.3,1.7,1.4,3.3,3.2,4.9,5.5,0,0,.2.2.2.4,1.5,2.4,2.8,4.1,4.2,5.2,1.3,1.1,2.6,1.7,4,1.7h.9c.3,0,.7,0,1-.2.4,0,.7-.3,1-.4,1.6-.8,3.1-3.3,4.6-5.7,2.1-3.4,4.3-6.8,8-8.5,6.4-3,13.9,0,19.1,7.5,0,0,.2.3.2.4,1.5,2.4,2.8,4.1,4.2,5.2,1.3,1.1,2.6,1.7,4,1.7s3.1-.3,4.7-2.3c.8-1,1.6-2.3,2.4-3.7l.5-.8,6.6,3.9-.4.8c-.9,1.5-1.9,3.1-3,4.6-2.9,3.5-6.8,5.3-11.1,5.1-3-.2-5.9-1.4-8.5-3.5-2-1.7-3.9-4-5.8-7.2-2.5-3.5-6.1-6.4-9.5-4.9-1.6.8-3.2,3.3-4.7,5.7-2,3.2-4.2,6.5-7.5,8.3-.8.4-1.6.7-2.4,1-.8.2-1.6.4-2.5.5h-2.1c-3-.2-5.9-1.4-8.5-3.5-2-1.7-3.9-4-5.9-7.2h0c-1.2-1.7-2.3-3-3.4-3.9-1.2-1-2.5-1.5-3.8-1.6-1.4,0-2.9.7-4.5,2.3s-1.9,2.6-2.9,4.3c-.9,1.5-1.9,3.1-3,4.6-2.7,3.3-6.3,5.1-10.3,5.1h-.2v.1Z"/>
  <path class="st0" d="M837.46,39.17c1.49.86,2.66,2.04,3.5,3.55.84,1.51,1.26,3.2,1.26,5.08s-.42,3.58-1.26,5.11c-.84,1.52-2.01,2.72-3.5,3.58-1.49.86-3.18,1.29-5.06,1.29s-3.62-.43-5.11-1.29c-1.49-.86-2.66-2.05-3.5-3.58-.84-1.52-1.26-3.23-1.26-5.11s.42-3.58,1.26-5.08c.84-1.51,2.01-2.69,3.5-3.55,1.49-.86,3.19-1.29,5.11-1.29s3.57.43,5.06,1.29ZM838.07,53.6c1.44-1.49,2.16-3.42,2.16-5.79s-.72-4.3-2.16-5.79c-1.44-1.49-3.33-2.24-5.67-2.24s-4.26.75-5.67,2.24c-1.41,1.49-2.12,3.42-2.12,5.79s.71,4.3,2.12,5.79c1.41,1.49,3.3,2.24,5.67,2.24s4.22-.75,5.67-2.24ZM836.17,47.74c-.41.54-.97.92-1.68,1.14l2.72,4.04-3.07.05-2.33-3.89h-.83v3.89h-2.53v-10.46h4.67c1.1,0,1.99.29,2.65.88.66.58,1,1.38,1,2.38,0,.78-.2,1.44-.61,1.97ZM830.99,46.98h2c.36,0,.66-.1.9-.29.24-.19.37-.47.37-.83s-.12-.62-.37-.8c-.24-.18-.54-.27-.9-.27h-2v2.19Z"/>
</svg>